<svg id="Layer_2" data-name="Layer 2" xmlns="http://www.w3.org/2000/svg" viewBox="0 0 1278.77 286.77"><defs><style>.cls-1{fill:#fff;}.cls-10,.cls-2,.cls-3,.cls-9{fill:none;stroke:#191919;}.cls-10,.cls-12,.cls-2,.cls-4,.cls-5,.cls-6,.cls-7,.cls-9{stroke-linecap:round;}.cls-10,.cls-12,.cls-2,.cls-3,.cls-4,.cls-5,.cls-6,.cls-7,.cls-9{stroke-linejoin:round;stroke-width:1.5px;}.cls-4{fill:#74b266;stroke:#416837;}.cls-5{fill:#c9c9c9;}.cls-12,.cls-5{stroke:#231f20;}.cls-6{fill:#efc458;stroke:#9b7c37;}.cls-7{fill:#9b7fe6;stroke:#5d4e93;}.cls-8{fill:#191919;}.cls-9{stroke-dasharray:0.95 5.71;}.cls-10{stroke-dasharray:0.95 5.71;}.cls-11{fill:#231f20;}.cls-12{fill:#c6e7ec;}</style></defs><rect class="cls-1" width="1278.77" height="286.77"/><rect class="cls-2" x="456.44" y="30.58" width="58.75" height="41.12" rx="3.63"/><line class="cls-3" x1="456.44" y1="65.98" x2="515.19" y2="65.98"/><line class="cls-2" x1="483.86" y1="68.84" x2="487.77" y2="68.84"/><line class="cls-3" x1="479.5" y1="71.52" x2="478.77" y2="76.16"/><line class="cls-3" x1="492.87" y1="76.16" x2="492.13" y2="71.52"/><rect class="cls-2" x="473.96" y="76.16" width="23.71" height="2.95"/><polygon class="cls-4" points="485.82 37.08 489.45 44.46 497.59 45.64 491.7 51.38 493.1 59.48 485.82 55.66 478.54 59.48 479.93 51.38 474.04 45.64 482.18 44.46 485.82 37.08"/><polygon class="cls-5" points="530.41 16.6 533.97 26.59 543.55 22.04 539 31.62 548.99 35.18 539 38.73 543.55 48.31 533.97 43.76 530.41 53.76 526.86 43.76 517.28 48.31 521.83 38.73 511.83 35.18 521.83 31.62 517.28 22.04 526.86 26.59 530.41 16.6"/><rect class="cls-6" x="590.76" y="96.84" width="107.34" height="26.06"/><rect class="cls-4" x="986.95" y="96.84" width="94.14" height="26.06"/><rect class="cls-7" x="935.27" y="96.84" width="44.39" height="26.06"/><path class="cls-2" d="M530.3,126.88s-.88,9.28,8.39,9.28h11.82c9.28,0,8.39,9.27,8.39,9.27s-.88-9.27,8.39-9.27h11.82c9.28,0,8.39-9.28,8.39-9.28"/><path class="cls-2" d="M935.29,126.88s-.88,9.27,8.39,9.27H1021c9.28,0,8.39,9.28,8.39,9.28s-.88-9.28,8.4-9.28h77.36c9.27,0,8.39-9.27,8.39-9.27"/><path class="cls-2" d="M935.29,93.46s-.88-9.28,8.39-9.28h5.39c9.28,0,8.39-9.28,8.39-9.28s-.88,9.28,8.4,9.28h5.38c9.28,0,8.4,9.28,8.4,9.28"/><path class="cls-2" d="M987,93.46s-.88-9.28,8.39-9.28h31.05c8.94,0,8.09-9.28,8.09-9.28s-.86,9.28,8.09,9.28h30.08c9.28,0,8.39,9.28,8.39,9.28"/><path d="M613,107h1l.05.69a2.06,2.06,0,0,1,.29-.3,2.27,2.27,0,0,1,.32-.22,2,2,0,0,1,.55-.21,2.69,2.69,0,0,1,.65-.08,2.35,2.35,0,0,1,1.08.24,2.18,2.18,0,0,1,.78.67,3.21,3.21,0,0,1,.48,1,4.89,4.89,0,0,1,.17,1.31v.12a4.7,4.7,0,0,1-.17,1.27,3.21,3.21,0,0,1-.48,1,2.21,2.21,0,0,1-.78.68,2.3,2.3,0,0,1-1.06.25,2.88,2.88,0,0,1-.68-.08,2,2,0,0,1-.57-.22l-.28-.19a1.9,1.9,0,0,1-.25-.24v3H613Zm4.17,2.23a2.57,2.57,0,0,0-.31-.74,1.64,1.64,0,0,0-.55-.5,1.5,1.5,0,0,0-.78-.19,1.73,1.73,0,0,0-.47.06,1.46,1.46,0,0,0-.38.17,1.3,1.3,0,0,0-.34.28,2.31,2.31,0,0,0-.25.36v3.05a1.9,1.9,0,0,0,.22.33,1.48,1.48,0,0,0,.3.26,1.7,1.7,0,0,0,.93.26,1.5,1.5,0,0,0,.78-.19,1.65,1.65,0,0,0,.54-.51,2.42,2.42,0,0,0,.31-.75,3.6,3.6,0,0,0,.1-.88v-.12A3.68,3.68,0,0,0,617.21,109.27Z"/><path d="M620.14,108.88a3.13,3.13,0,0,1,.58-1,2.55,2.55,0,0,1,.9-.68,2.74,2.74,0,0,1,1.2-.25,2.79,2.79,0,0,1,1.21.25,2.69,2.69,0,0,1,.91.68,3,3,0,0,1,.57,1,4,4,0,0,1,.2,1.27v.13a4,4,0,0,1-.2,1.27,3,3,0,0,1-.57,1,2.56,2.56,0,0,1-.91.68,2.86,2.86,0,0,1-1.2.25,2.94,2.94,0,0,1-1.21-.25,2.44,2.44,0,0,1-.9-.68,3.19,3.19,0,0,1-.58-1,4,4,0,0,1-.2-1.27v-.13A4,4,0,0,1,620.14,108.88Zm1,2.29a2.15,2.15,0,0,0,.34.75,1.71,1.71,0,0,0,.56.51,1.68,1.68,0,0,0,.79.19,1.61,1.61,0,0,0,.78-.19,1.75,1.75,0,0,0,.57-.51,2.14,2.14,0,0,0,.33-.75,3.24,3.24,0,0,0,.12-.89v-.13a3.3,3.3,0,0,0-.12-.89,2.4,2.4,0,0,0-.34-.74,1.74,1.74,0,0,0-.56-.52,1.68,1.68,0,0,0-.79-.19,1.61,1.61,0,0,0-.78.19,1.64,1.64,0,0,0-.56.52,2.19,2.19,0,0,0-.34.74,3.29,3.29,0,0,0-.11.89v.13A3.24,3.24,0,0,0,621.14,111.17Z"/><path d="M630.86,107v5.4h2.07v.94h-5.31v-.94h2.16V108h-2.16V107Zm-1.18-1.93a.49.49,0,0,1,.14-.21.52.52,0,0,1,.19-.12.79.79,0,0,1,.28,0,.68.68,0,0,1,.26,0,.56.56,0,0,1,.2.12.52.52,0,0,1,.14.21.76.76,0,0,1,.05.27.6.6,0,0,1-.17.43.74.74,0,0,1-1,0,.6.6,0,0,1-.17-.43A.76.76,0,0,1,629.68,105.11Z"/><path d="M634.65,107h1l.08.94a2.25,2.25,0,0,1,.31-.37,2.34,2.34,0,0,1,.35-.29A2.63,2.63,0,0,1,637,107a2.69,2.69,0,0,1,.7-.11,2.85,2.85,0,0,1,.91.14,1.78,1.78,0,0,1,.69.44,2.1,2.1,0,0,1,.45.76,3.54,3.54,0,0,1,.15,1.09v4h-1.08v-4a2.2,2.2,0,0,0-.1-.72,1.14,1.14,0,0,0-.27-.47,1.24,1.24,0,0,0-.46-.27,2.2,2.2,0,0,0-.61-.08,1.63,1.63,0,0,0-.55.09,1.53,1.53,0,0,0-.48.23,1.3,1.3,0,0,0-.32.3,2.51,2.51,0,0,0-.27.37v4.55h-1.08Z"/><path d="M644.42,107h2.41v.84h-2.41v3.44a1.75,1.75,0,0,0,.09.61.89.89,0,0,0,.26.38,1,1,0,0,0,.38.21,1.63,1.63,0,0,0,.45.06l.36,0,.37,0,.34-.07.25,0,.15.77a1.72,1.72,0,0,1-.33.14,2.35,2.35,0,0,1-.42.1,3.46,3.46,0,0,1-.48.07,4.36,4.36,0,0,1-.51,0,2.56,2.56,0,0,1-.79-.12,1.59,1.59,0,0,1-.63-.39,1.8,1.8,0,0,1-.43-.67,2.93,2.93,0,0,1-.15-1v-3.44h-1.67V107h1.67V105.5h1.09Z"/><path d="M650.63,113.27a2.7,2.7,0,0,1-1-.64,2.88,2.88,0,0,1-.62-1,3.32,3.32,0,0,1-.23-1.23v-.24a3.73,3.73,0,0,1,.25-1.38,3,3,0,0,1,.66-1,2.93,2.93,0,0,1,.92-.64,2.83,2.83,0,0,1,1.06-.22,2.79,2.79,0,0,1,1.2.24,2.41,2.41,0,0,1,.85.65,2.74,2.74,0,0,1,.51,1,4.4,4.4,0,0,1,.17,1.23v.49h-4.53v0a3.2,3.2,0,0,0,.18.82,2.13,2.13,0,0,0,.4.62,1.87,1.87,0,0,0,.62.45,1.91,1.91,0,0,0,.8.16,2.26,2.26,0,0,0,1-.23,2.4,2.4,0,0,0,.75-.62l.67.51a2.83,2.83,0,0,1-1,.85,3,3,0,0,1-1.56.38A3.23,3.23,0,0,1,650.63,113.27Zm.46-5.34a1.81,1.81,0,0,0-.53.35,2.39,2.39,0,0,0-.39.57,3,3,0,0,0-.23.78h3.41v0a1.82,1.82,0,0,0-.11-.63,1.84,1.84,0,0,0-.31-.59,1.67,1.67,0,0,0-.5-.4,1.59,1.59,0,0,0-.72-.15A1.63,1.63,0,0,0,651.09,107.93Z"/><path d="M661,107a2.43,2.43,0,0,1,.49.11l-.14,1.06c-.22,0-.42-.08-.61-.1a5.41,5.41,0,0,0-.59,0,2.28,2.28,0,0,0-.72.1,1.64,1.64,0,0,0-.56.28,1.61,1.61,0,0,0-.38.4,2.4,2.4,0,0,0-.27.53v4.07h-1.09V107h1l0,.85v.16a2.8,2.8,0,0,1,.92-.83,2.56,2.56,0,0,1,1.24-.3C660.61,106.92,660.82,106.94,661,107Z"/><path d="M667.57,112.51a2.39,2.39,0,0,1-.79.73,2.29,2.29,0,0,1-1.1.26,2.57,2.57,0,0,1-.9-.16,1.66,1.66,0,0,1-.69-.48,2.23,2.23,0,0,1-.44-.84,3.94,3.94,0,0,1-.16-1.21V107h1.08v3.78a3.35,3.35,0,0,0,.09.85,1.23,1.23,0,0,0,.24.54.86.86,0,0,0,.4.29,1.82,1.82,0,0,0,.55.08,2.57,2.57,0,0,0,.65-.08,1.79,1.79,0,0,0,.5-.24,1.26,1.26,0,0,0,.31-.3,1.72,1.72,0,0,0,.22-.37V107h1.09v6.34h-1Z"/><path d="M670.65,107h1l.05.69a2.68,2.68,0,0,1,.28-.3,3.15,3.15,0,0,1,.33-.22,2,2,0,0,1,.55-.21,2.69,2.69,0,0,1,.65-.08,2.38,2.38,0,0,1,1.08.24,2.18,2.18,0,0,1,.78.67,3.21,3.21,0,0,1,.48,1,4.89,4.89,0,0,1,.17,1.31v.12a4.7,4.7,0,0,1-.17,1.27,3.21,3.21,0,0,1-.48,1,2.21,2.21,0,0,1-.78.68,2.3,2.3,0,0,1-1.06.25,2.88,2.88,0,0,1-.68-.08,2,2,0,0,1-.57-.22L672,113a3,3,0,0,1-.26-.24v3h-1.08Zm4.17,2.23a2.57,2.57,0,0,0-.31-.74,1.64,1.64,0,0,0-.55-.5,1.5,1.5,0,0,0-.78-.19,1.73,1.73,0,0,0-.47.06,1.46,1.46,0,0,0-.38.17,1.3,1.3,0,0,0-.34.28,2.36,2.36,0,0,0-.26.36v3.05a2.75,2.75,0,0,0,.23.33,1.48,1.48,0,0,0,.3.26,1.63,1.63,0,0,0,.93.26,1.5,1.5,0,0,0,.78-.19,1.65,1.65,0,0,0,.54-.51,2.42,2.42,0,0,0,.31-.75,3.6,3.6,0,0,0,.1-.88v-.12A3.68,3.68,0,0,0,674.82,109.27Z"/><rect class="cls-6" x="704.46" y="96.84" width="223.77" height="26.06"/><path class="cls-8" d="M939,62.93h2.91a2.74,2.74,0,0,1,1.32.32,2.57,2.57,0,0,1,1,.91,2.33,2.33,0,0,1,.37,1.31,2.4,2.4,0,0,1-.27,1.12,2.55,2.55,0,0,1-.74.86,2.76,2.76,0,0,1-1.05.47l0,0,2.43,3.52v0h-1.2L941.38,68H940v3.51h-1Zm2.85,4.14a1.73,1.73,0,0,0,.83-.21,1.48,1.48,0,0,0,.62-.57,1.46,1.46,0,0,0,.24-.82,1.6,1.6,0,0,0-.78-1.34,1.47,1.47,0,0,0-.84-.23H940v3.17Z"/><path class="cls-8" d="M946.87,71.29a3,3,0,0,1-1.08-1.16,3.48,3.48,0,0,1-.39-1.66,3.74,3.74,0,0,1,.36-1.63,3,3,0,0,1,1-1.19,2.73,2.73,0,0,1,1.55-.44,2.92,2.92,0,0,1,1.56.4,2.64,2.64,0,0,1,1,1.11,3.51,3.51,0,0,1,.36,1.62,1.8,1.8,0,0,1,0,.31h-4.84a2.4,2.4,0,0,0,.33,1.18,1.91,1.91,0,0,0,.76.71,2,2,0,0,0,2.78-.86l.87.42a3.12,3.12,0,0,1-4.29,1.19Zm3.34-3.48A2,2,0,0,0,950,67a1.61,1.61,0,0,0-.6-.65,1.89,1.89,0,0,0-1-.26,1.72,1.72,0,0,0-1.22.46,2.18,2.18,0,0,0-.66,1.22Z"/><path class="cls-8" d="M952.48,65.4h1v.9h0a2.07,2.07,0,0,1,.8-.78,2.34,2.34,0,0,1,1.18-.31,2.15,2.15,0,0,1,1.68.64,2.49,2.49,0,0,1,.59,1.74v3.93h-1V67.75a1.65,1.65,0,0,0-.4-1.24,1.6,1.6,0,0,0-1.12-.38,1.44,1.44,0,0,0-.88.28,1.87,1.87,0,0,0-.61.72,2.22,2.22,0,0,0-.21.94v3.45h-1Z"/><path class="cls-8" d="M960.32,71.29a2.88,2.88,0,0,1-1.05-1.16,3.77,3.77,0,0,1,0-3.34,2.81,2.81,0,0,1,1.05-1.16,2.72,2.72,0,0,1,1.49-.42,2.47,2.47,0,0,1,1.25.31,2.38,2.38,0,0,1,.84.79H964l-.05-.85V62.93h1v8.59h-1v-.9h-.05a2.33,2.33,0,0,1-.84.77,2.47,2.47,0,0,1-1.25.32A2.72,2.72,0,0,1,960.32,71.29Zm2.6-.79a2.13,2.13,0,0,0,.75-.82,2.64,2.64,0,0,0,.28-1.22,2.69,2.69,0,0,0-.28-1.23,2.1,2.1,0,0,0-.75-.81,1.88,1.88,0,0,0-1-.29,1.93,1.93,0,0,0-1,.29,2.06,2.06,0,0,0-.75.82,2.67,2.67,0,0,0-.28,1.22,2.71,2.71,0,0,0,.28,1.22,2.13,2.13,0,0,0,.75.82,1.93,1.93,0,0,0,1,.29A1.88,1.88,0,0,0,962.92,70.5Z"/><path class="cls-8" d="M967.52,71.29a3,3,0,0,1-1.08-1.16,3.48,3.48,0,0,1-.39-1.66,3.74,3.74,0,0,1,.36-1.63,3,3,0,0,1,1.05-1.19,2.73,2.73,0,0,1,1.55-.44,2.92,2.92,0,0,1,1.56.4,2.73,2.73,0,0,1,1,1.11,3.64,3.64,0,0,1,.35,1.62c0,.09,0,.2,0,.31h-4.85a2.4,2.4,0,0,0,.33,1.18,1.87,1.87,0,0,0,.77.71,2,2,0,0,0,2.77-.86l.87.42a3.12,3.12,0,0,1-4.29,1.19Zm3.34-3.48a2,2,0,0,0-.22-.77,1.61,1.61,0,0,0-.6-.65,1.89,1.89,0,0,0-1-.26,1.72,1.72,0,0,0-1.22.46,2.18,2.18,0,0,0-.66,1.22Z"/><path class="cls-8" d="M973.13,65.4h1v1h0a1.69,1.69,0,0,1,.69-.84,2,2,0,0,1,1.08-.33,1.75,1.75,0,0,1,.72.13v1.09a1.84,1.84,0,0,0-.86-.19,1.42,1.42,0,0,0-.82.25,1.87,1.87,0,0,0-.59.68,1.92,1.92,0,0,0-.22.92v3.43h-1Z"/><rect class="cls-7" x="349.39" y="96.84" width="44.39" height="26.06"/><path class="cls-2" d="M349.41,93.46s-.89-9.28,8.39-9.28h5.39c9.27,0,8.39-9.28,8.39-9.28s-.88,9.28,8.39,9.28h5.39c9.28,0,8.4,9.28,8.4,9.28"/><path class="cls-8" d="M353.13,62.93H356a2.74,2.74,0,0,1,1.32.32,2.57,2.57,0,0,1,1,.91,2.33,2.33,0,0,1,.37,1.31,2.4,2.4,0,0,1-.27,1.12,2.55,2.55,0,0,1-.74.86,2.76,2.76,0,0,1-1.05.47l0,0L359,71.47v0h-1.2L355.5,68h-1.35v3.51h-1ZM356,67.07a1.73,1.73,0,0,0,.83-.21,1.48,1.48,0,0,0,.62-.57,1.46,1.46,0,0,0,.24-.82,1.6,1.6,0,0,0-.78-1.34,1.47,1.47,0,0,0-.84-.23h-1.9v3.17Z"/><path class="cls-8" d="M361,71.29a3,3,0,0,1-1.08-1.16,3.48,3.48,0,0,1-.39-1.66,3.74,3.74,0,0,1,.36-1.63,3,3,0,0,1,1.05-1.19,2.73,2.73,0,0,1,1.55-.44,2.92,2.92,0,0,1,1.56.4,2.64,2.64,0,0,1,1,1.11,3.51,3.51,0,0,1,.36,1.62,1.8,1.8,0,0,1,0,.31h-4.84a2.4,2.4,0,0,0,.33,1.18,1.91,1.91,0,0,0,.76.71,2,2,0,0,0,2.78-.86l.87.42a3.1,3.1,0,0,1-1.07,1.17,3.23,3.23,0,0,1-3.22,0Zm3.34-3.48a2,2,0,0,0-.22-.77,1.68,1.68,0,0,0-.6-.65,1.89,1.89,0,0,0-1-.26,1.72,1.72,0,0,0-1.22.46,2.18,2.18,0,0,0-.66,1.22Z"/><path class="cls-8" d="M366.6,65.4h1v.9h.05a2,2,0,0,1,.8-.78,2.34,2.34,0,0,1,1.18-.31,2.15,2.15,0,0,1,1.68.64,2.49,2.49,0,0,1,.58,1.74v3.93h-1V67.75a1.65,1.65,0,0,0-.4-1.24,1.62,1.62,0,0,0-1.12-.38,1.44,1.44,0,0,0-.88.28,1.87,1.87,0,0,0-.61.72,2.22,2.22,0,0,0-.21.94v3.45h-1Z"/><path class="cls-8" d="M374.44,71.29a2.88,2.88,0,0,1-1.05-1.16,3.77,3.77,0,0,1,0-3.34,2.81,2.81,0,0,1,1.05-1.16,2.72,2.72,0,0,1,1.49-.42,2.47,2.47,0,0,1,1.25.31,2.38,2.38,0,0,1,.84.79h.05l-.05-.85V62.93h1v8.59h-1v-.9H378a2.33,2.33,0,0,1-.84.77,2.47,2.47,0,0,1-1.25.32A2.72,2.72,0,0,1,374.44,71.29Zm2.6-.79a2.13,2.13,0,0,0,.75-.82,2.64,2.64,0,0,0,.28-1.22,2.69,2.69,0,0,0-.28-1.23,2.1,2.1,0,0,0-.75-.81,1.88,1.88,0,0,0-1-.29,1.93,1.93,0,0,0-1,.29,2.06,2.06,0,0,0-.75.82,2.67,2.67,0,0,0-.28,1.22,2.71,2.71,0,0,0,.28,1.22,2.13,2.13,0,0,0,.75.82,1.93,1.93,0,0,0,1,.29A1.88,1.88,0,0,0,377,70.5Z"/><path class="cls-8" d="M381.64,71.29a3,3,0,0,1-1.08-1.16,3.48,3.48,0,0,1-.39-1.66,3.74,3.74,0,0,1,.36-1.63,3,3,0,0,1,1.05-1.19,2.73,2.73,0,0,1,1.55-.44,2.92,2.92,0,0,1,1.56.4,2.73,2.73,0,0,1,1,1.11,3.64,3.64,0,0,1,.35,1.62c0,.09,0,.2,0,.31h-4.85a2.4,2.4,0,0,0,.33,1.18,1.87,1.87,0,0,0,.77.71,2,2,0,0,0,2.77-.86l.87.42a3.12,3.12,0,0,1-4.29,1.19ZM385,67.81a2,2,0,0,0-.22-.77,1.61,1.61,0,0,0-.6-.65,1.89,1.89,0,0,0-1-.26,1.72,1.72,0,0,0-1.22.46,2.18,2.18,0,0,0-.66,1.22Z"/><path class="cls-8" d="M387.25,65.4h1v1h0a1.69,1.69,0,0,1,.69-.84,2,2,0,0,1,1.08-.33,1.75,1.75,0,0,1,.72.13v1.09a1.84,1.84,0,0,0-.86-.19,1.42,1.42,0,0,0-.82.25,1.87,1.87,0,0,0-.59.68,1.92,1.92,0,0,0-.22.92v3.43h-1Z"/><path class="cls-8" d="M1022.61,62.93h2.79a2.56,2.56,0,0,1,1.28.32,2.53,2.53,0,0,1,0,4.44,2.56,2.56,0,0,1-1.28.32h-1.81v3.51h-1Zm2.81,4.11a1.43,1.43,0,0,0,.82-.23,1.61,1.61,0,0,0,.55-.58,1.61,1.61,0,0,0,0-1.52,1.61,1.61,0,0,0-.55-.58,1.43,1.43,0,0,0-.82-.23h-1.83V67Z"/><path class="cls-8" d="M1029.57,71.45a1.9,1.9,0,0,1-.78-.73,2,2,0,0,1-.28-1,1.82,1.82,0,0,1,.7-1.52,2.89,2.89,0,0,1,1.79-.54,4,4,0,0,1,1,.12,2.6,2.6,0,0,1,.69.27v-.37a1.4,1.4,0,0,0-.46-1.1,1.72,1.72,0,0,0-1.17-.41,1.87,1.87,0,0,0-.9.22,1.61,1.61,0,0,0-.67.62l-.74-.58a2.36,2.36,0,0,1,1-.86,2.91,2.91,0,0,1,1.35-.31,2.6,2.6,0,0,1,1.89.65,2.37,2.37,0,0,1,.68,1.78v3.88h-.94v-.88h0a2.21,2.21,0,0,1-.76.76,2.16,2.16,0,0,1-1.15.31A2.57,2.57,0,0,1,1029.57,71.45Zm2.18-.9a2.1,2.1,0,0,0,.68-.71,1.92,1.92,0,0,0,.25-1,2.26,2.26,0,0,0-.68-.32,3,3,0,0,0-.85-.12,1.85,1.85,0,0,0-1.22.35,1.1,1.1,0,0,0-.41.9,1,1,0,0,0,.37.82,1.38,1.38,0,0,0,.93.31A1.81,1.81,0,0,0,1031.75,70.55Z"/><path class="cls-8" d="M1035.07,64.05a.74.74,0,0,1,0-1,.67.67,0,0,1,.49-.21.68.68,0,0,1,.51.21.76.76,0,0,1,0,1,.65.65,0,0,1-.51.22A.64.64,0,0,1,1035.07,64.05Zm0,1.35h1v6.12h-1Z"/><path class="cls-8" d="M1037.6,65.4h.94v.9h0a2.08,2.08,0,0,1,.78-.78,2.16,2.16,0,0,1,1.13-.31,2.05,2.05,0,0,1,1.63.64,2.58,2.58,0,0,1,.56,1.74v3.93h-1V67.75a1.69,1.69,0,0,0-.4-1.24,1.49,1.49,0,0,0-1.07-.38,1.36,1.36,0,0,0-.85.28,1.82,1.82,0,0,0-.59.72,2.22,2.22,0,0,0-.21.94v3.45h-1Z"/><path class="cls-8" d="M1045.4,71.59a1.5,1.5,0,0,1-.51-.33,1.74,1.74,0,0,1-.46-1.29V66.32h-1V65.4h1V63.67h1V65.4h1.44v.92h-1.44v3.41a1.27,1.27,0,0,0,.18.76.78.78,0,0,0,.64.27,1.16,1.16,0,0,0,.65-.2v1a1.27,1.27,0,0,1-.36.12,2.14,2.14,0,0,1-1.12-.08Z"/><path class="cls-8" d="M980.49,148.82h2.89a2.88,2.88,0,0,1,1.34.32,2.6,2.6,0,0,1,1,.91,2.43,2.43,0,0,1,.36,1.31,2.47,2.47,0,0,1-.36,1.32,2.57,2.57,0,0,1-1,.9,2.77,2.77,0,0,1-1.34.33h-1.87v3.5h-1Zm2.92,4.11a1.61,1.61,0,0,0,.85-.22,1.78,1.78,0,0,0,.57-.59,1.53,1.53,0,0,0,0-1.51,1.69,1.69,0,0,0-.57-.59,1.61,1.61,0,0,0-.85-.23h-1.9v3.14Z"/><path class="cls-8" d="M987.2,151.29h1v1h.05a1.7,1.7,0,0,1,.7-.84,2,2,0,0,1,1.08-.33,1.75,1.75,0,0,1,.72.13v1.09a1.92,1.92,0,0,0-.87-.19,1.41,1.41,0,0,0-.81.25,1.88,1.88,0,0,0-.6.68,2.08,2.08,0,0,0-.22.92v3.43h-1Z"/><path class="cls-8" d="M992.49,157.18a2.88,2.88,0,0,1-1.08-1.16,3.48,3.48,0,0,1-.39-1.66,3.69,3.69,0,0,1,.36-1.62,3,3,0,0,1,1-1.2,2.81,2.81,0,0,1,1.55-.44,2.92,2.92,0,0,1,1.56.4,2.64,2.64,0,0,1,1,1.11,3.51,3.51,0,0,1,.36,1.62,1.71,1.71,0,0,1,0,.31H992a2.37,2.37,0,0,0,.33,1.18,2,2,0,0,0,.76.72,2.08,2.08,0,0,0,1,.24,2,2,0,0,0,1.81-1.11l.87.42a3,3,0,0,1-1.07,1.17,2.92,2.92,0,0,1-1.64.44A3,3,0,0,1,992.49,157.18Zm3.34-3.48a2.09,2.09,0,0,0-.22-.77,1.53,1.53,0,0,0-.6-.64,1.81,1.81,0,0,0-1-.27,1.76,1.76,0,0,0-1.22.46,2.18,2.18,0,0,0-.66,1.22Z"/><path class="cls-8" d="M998.65,157.14a2.57,2.57,0,0,1-.94-1.18l.91-.41a1.87,1.87,0,0,0,.68.85,1.75,1.75,0,0,0,1,.3,2,2,0,0,0,1-.23.76.76,0,0,0,.08-1.29,3.16,3.16,0,0,0-1-.4l-.74-.19a2.63,2.63,0,0,1-1.2-.61,1.54,1.54,0,0,1-.15-2,2.05,2.05,0,0,1,.84-.62,3,3,0,0,1,1.14-.21,2.85,2.85,0,0,1,1.44.35,2,2,0,0,1,.89,1l-.89.41a1.47,1.47,0,0,0-1.45-.82,1.67,1.67,0,0,0-.88.23.71.71,0,0,0-.38.6.67.67,0,0,0,.26.54,2.14,2.14,0,0,0,.8.35l.88.22a3,3,0,0,1,1.36.68,1.51,1.51,0,0,1,.46,1.1,1.55,1.55,0,0,1-.33,1,2.06,2.06,0,0,1-.87.65,3.06,3.06,0,0,1-1.23.23A2.78,2.78,0,0,1,998.65,157.14Z"/><path class="cls-8" d="M1005.05,157.18A2.84,2.84,0,0,1,1004,156a3.48,3.48,0,0,1-.39-1.66,3.69,3.69,0,0,1,.36-1.62,3.06,3.06,0,0,1,1.05-1.2,2.81,2.81,0,0,1,1.55-.44,2.92,2.92,0,0,1,1.56.4,2.73,2.73,0,0,1,1,1.11,3.64,3.64,0,0,1,.35,1.62c0,.1,0,.2,0,.31h-4.85a2.37,2.37,0,0,0,.33,1.18,2,2,0,0,0,1.73,1,2,2,0,0,0,1.81-1.11l.87.42a3,3,0,0,1-1.07,1.17,2.92,2.92,0,0,1-1.64.44A3,3,0,0,1,1005.05,157.18Zm3.33-3.48a2.28,2.28,0,0,0-.21-.77,1.62,1.62,0,0,0-.61-.64,1.81,1.81,0,0,0-1-.27,1.76,1.76,0,0,0-1.22.46,2.18,2.18,0,0,0-.66,1.22Z"/><path class="cls-8" d="M1010.65,151.29h1v.9h0a2.05,2.05,0,0,1,.8-.77,2.25,2.25,0,0,1,1.18-.32,2.17,2.17,0,0,1,1.69.64,2.55,2.55,0,0,1,.58,1.75v3.92h-1v-3.77a1.61,1.61,0,0,0-.41-1.23,1.56,1.56,0,0,0-1.12-.39,1.46,1.46,0,0,0-.88.28,1.87,1.87,0,0,0-.61.72,2.23,2.23,0,0,0-.21.95v3.44h-1Z"/><path class="cls-8" d="M1018.74,157.48a1.49,1.49,0,0,1-.53-.33,1.7,1.7,0,0,1-.48-1.28v-3.66h-1.07v-.92h1.07v-1.73h1v1.73h1.5v.92h-1.5v3.41a1.2,1.2,0,0,0,.19.76.81.81,0,0,0,.66.27,1.13,1.13,0,0,0,.67-.2v1a2.53,2.53,0,0,1-.36.12,3.23,3.23,0,0,1-.48,0A1.92,1.92,0,0,1,1018.74,157.48Z"/><path class="cls-8" d="M1022.11,157.34a2,2,0,0,1-.82-.73,2,2,0,0,1-.28-1.05,1.79,1.79,0,0,1,.73-1.52,3,3,0,0,1,1.85-.54,4.13,4.13,0,0,1,1,.12,2.82,2.82,0,0,1,.73.27v-.37a1.4,1.4,0,0,0-.48-1.1,1.84,1.84,0,0,0-1.22-.41,2,2,0,0,0-.94.22,1.8,1.8,0,0,0-.69.62l-.76-.58a2.45,2.45,0,0,1,1-.86,3.12,3.12,0,0,1,1.4-.31,2.79,2.79,0,0,1,2,.65,2.32,2.32,0,0,1,.71,1.78v3.88h-1v-.88h0a2.22,2.22,0,0,1-.79.76,2.3,2.3,0,0,1-1.19.31A2.71,2.71,0,0,1,1022.11,157.34Zm2.25-.9a1.93,1.93,0,0,0,.71-.71,1.84,1.84,0,0,0,.27-1,2.58,2.58,0,0,0-.71-.31,3.24,3.24,0,0,0-.89-.12,2,2,0,0,0-1.27.34,1.14,1.14,0,0,0-.42.9,1,1,0,0,0,.38.82,1.48,1.48,0,0,0,1,.31A1.87,1.87,0,0,0,1024.36,156.44Z"/><path class="cls-8" d="M1029.27,157.48a1.54,1.54,0,0,1-.54-.33,1.7,1.7,0,0,1-.48-1.28v-3.66h-1.07v-.92h1.07v-1.73h1v1.73h1.5v.92h-1.5v3.41a1.26,1.26,0,0,0,.19.76.85.85,0,0,0,.67.27,1.15,1.15,0,0,0,.67-.2v1a2.65,2.65,0,0,1-.37.12,3,3,0,0,1-.47,0A1.92,1.92,0,0,1,1029.27,157.48Z"/><path class="cls-8" d="M1032.14,150a.74.74,0,0,1-.22-.52.71.71,0,0,1,.22-.52.75.75,0,0,1,1,0,.7.7,0,0,1,.21.52.73.73,0,0,1-.21.52.75.75,0,0,1-1,0Zm0,1.34h1v6.12h-1Z"/><path class="cls-8" d="M1035.91,157.17a3,3,0,0,1-1.12-1.18,3.49,3.49,0,0,1,0-3.28,3,3,0,0,1,1.12-1.18,3.27,3.27,0,0,1,3.24,0,3,3,0,0,1,1.12,1.18,3.56,3.56,0,0,1,0,3.28,3,3,0,0,1-1.12,1.18,3.27,3.27,0,0,1-3.24,0Zm2.67-.77a2.17,2.17,0,0,0,.78-.81,2.8,2.8,0,0,0,0-2.48,2.1,2.1,0,0,0-2.89-.81,2,2,0,0,0-.78.81,2.71,2.71,0,0,0,0,2.48,2,2,0,0,0,.78.81,2.13,2.13,0,0,0,2.11,0Z"/><path class="cls-8" d="M1041.74,151.29h1v.9h0a2.12,2.12,0,0,1,.8-.77,2.25,2.25,0,0,1,1.18-.32,2.16,2.16,0,0,1,1.69.64,2.55,2.55,0,0,1,.58,1.75v3.92h-1v-3.77a1.61,1.61,0,0,0-.41-1.23,1.54,1.54,0,0,0-1.12-.39,1.46,1.46,0,0,0-.88.28,1.76,1.76,0,0,0-.6.72,2.1,2.1,0,0,0-.22.95v3.44h-1Z"/><path class="cls-8" d="M1052.37,157.18a2.81,2.81,0,0,1-1-1.16,3.77,3.77,0,0,1,0-3.34,2.88,2.88,0,0,1,1-1.16,2.72,2.72,0,0,1,1.49-.42,2.4,2.4,0,0,1,1.25.32,2.27,2.27,0,0,1,.84.78h0l0-.85v-2.53h1v8.59h-1v-.9h0a2.33,2.33,0,0,1-.84.77,2.4,2.4,0,0,1-1.25.32A2.72,2.72,0,0,1,1052.37,157.18Zm2.6-.79a2,2,0,0,0,.74-.82,2.71,2.71,0,0,0,0-2.44,2,2,0,0,0-.74-.82,1.88,1.88,0,0,0-1-.29,1.9,1.9,0,0,0-1,.29,2.13,2.13,0,0,0-.75.82,2.8,2.8,0,0,0,0,2.44,2.13,2.13,0,0,0,.75.82,1.9,1.9,0,0,0,1,.29A1.88,1.88,0,0,0,1055,156.39Z"/><path class="cls-8" d="M1059.57,157.18a2.88,2.88,0,0,1-1.08-1.16,3.48,3.48,0,0,1-.39-1.66,3.69,3.69,0,0,1,.36-1.62,3,3,0,0,1,1-1.2,2.81,2.81,0,0,1,1.55-.44,2.92,2.92,0,0,1,1.56.4,2.64,2.64,0,0,1,1,1.11,3.51,3.51,0,0,1,.36,1.62,1.71,1.71,0,0,1,0,.31h-4.84a2.37,2.37,0,0,0,.33,1.18,2,2,0,0,0,.76.72,2.08,2.08,0,0,0,1,.24,2,2,0,0,0,1.81-1.11l.87.42a3.1,3.1,0,0,1-1.07,1.17,3,3,0,0,1-1.65.44A3,3,0,0,1,1059.57,157.18Zm3.34-3.48a2.09,2.09,0,0,0-.22-.77,1.66,1.66,0,0,0-.6-.64,1.81,1.81,0,0,0-1-.27,1.76,1.76,0,0,0-1.22.46,2.18,2.18,0,0,0-.66,1.22Z"/><path class="cls-8" d="M1065.18,148.82h1v8.59h-1Z"/><path class="cls-8" d="M1068.4,157.34a1.95,1.95,0,0,1-1.1-1.78A1.79,1.79,0,0,1,1068,154a3,3,0,0,1,1.85-.54,4.22,4.22,0,0,1,1,.12,2.87,2.87,0,0,1,.72.27v-.37a1.4,1.4,0,0,0-.48-1.1,1.81,1.81,0,0,0-1.21-.41,2,2,0,0,0-.94.22,1.8,1.8,0,0,0-.69.62l-.77-.58a2.48,2.48,0,0,1,1-.86,3.09,3.09,0,0,1,1.4-.31,2.83,2.83,0,0,1,2,.65,2.31,2.31,0,0,1,.7,1.78v3.88h-1v-.88h-.05a2.14,2.14,0,0,1-.79.76,2.27,2.27,0,0,1-1.19.31A2.78,2.78,0,0,1,1068.4,157.34Zm2.26-.9a2,2,0,0,0,.71-.71,1.93,1.93,0,0,0,.26-1,2.45,2.45,0,0,0-.71-.31,3.17,3.17,0,0,0-.88-.12,2,2,0,0,0-1.27.34,1.15,1.15,0,0,0-.43.9,1,1,0,0,0,.39.82,1.47,1.47,0,0,0,1,.31A1.92,1.92,0,0,0,1070.66,156.44Z"/><path class="cls-8" d="M1075.77,157l-2.53-5.74h1.1l1.92,4.55h0l1.85-4.55h1.1l-3.78,8.71h-1.06Z"/><path class="cls-8" d="M1168.85,43.32h5v1h-3.94v2.94h3.56v1h-3.56v3.72h-1Z"/><path class="cls-8" d="M1174.77,45.79h1v1h0a1.67,1.67,0,0,1,.7-.84,1.89,1.89,0,0,1,1.08-.34,1.75,1.75,0,0,1,.72.13v1.09a2,2,0,0,0-.86-.19,1.49,1.49,0,0,0-.82.25,1.77,1.77,0,0,0-.59.68,2,2,0,0,0-.23.92v3.43h-1Z"/><path class="cls-8" d="M1179.79,51.84a2.08,2.08,0,0,1-.82-.73,1.92,1.92,0,0,1-.28-1,1.77,1.77,0,0,1,.73-1.51,3,3,0,0,1,1.85-.55,4.13,4.13,0,0,1,1,.12,2.47,2.47,0,0,1,.73.28V48a1.36,1.36,0,0,0-.48-1.09,1.78,1.78,0,0,0-1.21-.42,2.21,2.21,0,0,0-.95.22,1.8,1.8,0,0,0-.69.62l-.76-.57a2.47,2.47,0,0,1,1-.87,3.14,3.14,0,0,1,1.41-.31,2.78,2.78,0,0,1,2,.65A2.33,2.33,0,0,1,1184,48v3.87h-1V51h0a2.32,2.32,0,0,1-2,1.06A2.58,2.58,0,0,1,1179.79,51.84Zm2.26-.9a2,2,0,0,0,.7-.71,1.82,1.82,0,0,0,.27-1,2.45,2.45,0,0,0-.71-.31,3.24,3.24,0,0,0-.89-.12,1.89,1.89,0,0,0-1.26.35,1.09,1.09,0,0,0-.43.9,1,1,0,0,0,.38.81,1.49,1.49,0,0,0,1,.31A1.82,1.82,0,0,0,1182.05,50.94Z"/><path class="cls-8" d="M1185.41,45.79h1v.9h0a2.26,2.26,0,0,1,1.9-1.09,2.14,2.14,0,0,1,1.17.32,1.85,1.85,0,0,1,.72.87,2.47,2.47,0,0,1,.86-.87,2.38,2.38,0,0,1,1.24-.32,2,2,0,0,1,1.59.64,2.69,2.69,0,0,1,.53,1.75v3.92h-1V48.14a1.81,1.81,0,0,0-.34-1.23,1.49,1.49,0,0,0-1.86-.12,1.72,1.72,0,0,0-.59.71,2.18,2.18,0,0,0-.21,1v3.45h-1V48.16a1.83,1.83,0,0,0-.34-1.25,1.32,1.32,0,0,0-1-.39,1.35,1.35,0,0,0-.83.27,1.8,1.8,0,0,0-.58.72,2.29,2.29,0,0,0-.21,1v3.43h-1Z"/><path class="cls-8" d="M1197.07,51.68a2.94,2.94,0,0,1-1.09-1.15,3.55,3.55,0,0,1-.39-1.67,3.7,3.7,0,0,1,.37-1.62,3,3,0,0,1,1-1.2,2.84,2.84,0,0,1,1.56-.44,2.92,2.92,0,0,1,1.56.4,2.64,2.64,0,0,1,1,1.11,3.54,3.54,0,0,1,.36,1.62,1.71,1.71,0,0,1,0,.31h-4.85a2.48,2.48,0,0,0,.34,1.18,1.94,1.94,0,0,0,.76.72,2.08,2.08,0,0,0,1,.24,2,2,0,0,0,1.81-1.1l.86.42a3.14,3.14,0,0,1-1.06,1.17,3,3,0,0,1-1.65.43A3,3,0,0,1,1197.07,51.68Zm3.34-3.48a2,2,0,0,0-.22-.76,1.62,1.62,0,0,0-.6-.65,1.84,1.84,0,0,0-1-.27,1.77,1.77,0,0,0-1.23.47,2.24,2.24,0,0,0-.66,1.21Z"/><path class="cls-8" d="M1205.41,45.79h1v.91h0a2.16,2.16,0,0,1,.83-.78,2.51,2.51,0,0,1,1.26-.32A2.72,2.72,0,0,1,1210,46a3,3,0,0,1,1,1.16,3.79,3.79,0,0,1,0,3.35,2.92,2.92,0,0,1-1,1.15,2.72,2.72,0,0,1-1.49.42,2.5,2.5,0,0,1-1.26-.31,2.24,2.24,0,0,1-.83-.78h0l0,.84V54.5h-1Zm4,5.1a2.08,2.08,0,0,0,.74-.81,2.68,2.68,0,0,0,.27-1.23,2.64,2.64,0,0,0-.27-1.22,2.11,2.11,0,0,0-.74-.82,1.93,1.93,0,0,0-1-.29,1.85,1.85,0,0,0-1,.29,2.13,2.13,0,0,0-.75.82,2.64,2.64,0,0,0-.28,1.22,2.69,2.69,0,0,0,.28,1.23,2.1,2.1,0,0,0,.75.81,1.85,1.85,0,0,0,1,.29A1.93,1.93,0,0,0,1209.41,50.89Z"/><path class="cls-8" d="M1212.57,45.79h1v1h0a1.67,1.67,0,0,1,.7-.84,1.89,1.89,0,0,1,1.08-.34,1.75,1.75,0,0,1,.72.13v1.09a2,2,0,0,0-.86-.19,1.49,1.49,0,0,0-.82.25,1.77,1.77,0,0,0-.59.68,2,2,0,0,0-.23.92v3.43h-1Z"/><path class="cls-8" d="M1217.87,51.68a2.87,2.87,0,0,1-1.09-1.15,3.75,3.75,0,0,1,0-3.29,3,3,0,0,1,1-1.2,2.81,2.81,0,0,1,1.55-.44,2.92,2.92,0,0,1,1.56.4,2.73,2.73,0,0,1,1,1.11,3.67,3.67,0,0,1,.35,1.62c0,.1,0,.2,0,.31h-4.85a2.38,2.38,0,0,0,.34,1.18,1.94,1.94,0,0,0,.76.72,2.07,2.07,0,0,0,1,.24,2,2,0,0,0,1.82-1.1l.86.42a3.16,3.16,0,0,1-1.07,1.17,3.24,3.24,0,0,1-3.21,0Zm3.33-3.48a2,2,0,0,0-.21-.76,1.62,1.62,0,0,0-.6-.65,1.87,1.87,0,0,0-1-.27,1.74,1.74,0,0,0-1.22.47,2.12,2.12,0,0,0-.66,1.21Z"/><path class="cls-8" d="M1224,51.64a2.44,2.44,0,0,1-.93-1.18l.91-.41a1.81,1.81,0,0,0,.68.85,1.75,1.75,0,0,0,1,.3,1.9,1.9,0,0,0,1-.23.75.75,0,0,0,.41-.67.71.71,0,0,0-.33-.61,3,3,0,0,0-1-.41l-.74-.19a2.63,2.63,0,0,1-1.2-.61,1.54,1.54,0,0,1-.15-2,2,2,0,0,1,.85-.61,2.86,2.86,0,0,1,1.14-.22A2.94,2.94,0,0,1,1227,46a1.91,1.91,0,0,1,.89,1l-.88.41a1.49,1.49,0,0,0-1.46-.82,1.61,1.61,0,0,0-.88.24.68.68,0,0,0-.38.59.67.67,0,0,0,.27.55,2.09,2.09,0,0,0,.79.34l.89.23a2.85,2.85,0,0,1,1.35.67,1.47,1.47,0,0,1,.46,1.1,1.61,1.61,0,0,1-.32,1,2.11,2.11,0,0,1-.88.66,3.23,3.23,0,0,1-1.22.22A2.79,2.79,0,0,1,1224,51.64Z"/><path class="cls-8" d="M1230.42,51.68a2.87,2.87,0,0,1-1.09-1.15,3.75,3.75,0,0,1,0-3.29,3,3,0,0,1,1-1.2,2.82,2.82,0,0,1,1.56-.44,2.89,2.89,0,0,1,1.55.4,2.73,2.73,0,0,1,1,1.11,3.67,3.67,0,0,1,.35,1.62,1.67,1.67,0,0,1,0,.31H1230a2.38,2.38,0,0,0,.34,1.18,1.94,1.94,0,0,0,.76.72,2.07,2.07,0,0,0,1,.24,2,2,0,0,0,1.82-1.1l.86.42a3.16,3.16,0,0,1-1.07,1.17,3.24,3.24,0,0,1-3.21,0Zm3.33-3.48a1.81,1.81,0,0,0-.21-.76,1.62,1.62,0,0,0-.6-.65,1.84,1.84,0,0,0-1-.27,1.75,1.75,0,0,0-1.23.47,2.18,2.18,0,0,0-.66,1.21Z"/><path class="cls-8" d="M1236,45.79h1v.9h0a2.12,2.12,0,0,1,.8-.77,2.35,2.35,0,0,1,1.18-.32,2.16,2.16,0,0,1,1.69.64,2.55,2.55,0,0,1,.58,1.75v3.92h-1V48.14a1.63,1.63,0,0,0-.41-1.23,1.67,1.67,0,0,0-2-.11,1.79,1.79,0,0,0-.6.73,2.06,2.06,0,0,0-.22.94v3.44h-1Z"/><path class="cls-8" d="M1244.12,52a1.54,1.54,0,0,1-.54-.33,1.69,1.69,0,0,1-.48-1.28V46.72H1242v-.93h1.07V44.06h1v1.73h1.5v.93h-1.5v3.41a1.31,1.31,0,0,0,.19.76.82.82,0,0,0,.66.27,1.16,1.16,0,0,0,.68-.21v1a2.65,2.65,0,0,1-.37.12,3,3,0,0,1-.47,0A1.92,1.92,0,0,1,1244.12,52Z"/><path class="cls-8" d="M1247.73,51.68a2.92,2.92,0,0,1-1.08-1.15,3.55,3.55,0,0,1-.39-1.67,3.69,3.69,0,0,1,.36-1.62,3,3,0,0,1,1.05-1.2,2.81,2.81,0,0,1,1.55-.44,2.92,2.92,0,0,1,1.56.4,2.73,2.73,0,0,1,1,1.11,3.67,3.67,0,0,1,.35,1.62c0,.1,0,.2,0,.31h-4.85a2.37,2.37,0,0,0,.33,1.18,2,2,0,0,0,.77.72,2,2,0,0,0,1,.24,2,2,0,0,0,1.81-1.1l.87.42a3.16,3.16,0,0,1-1.07,1.17,3.26,3.26,0,0,1-3.22,0Zm3.34-3.48a2,2,0,0,0-.22-.76,1.49,1.49,0,0,0-.6-.65,1.81,1.81,0,0,0-1-.27A1.72,1.72,0,0,0,1248,47a2.12,2.12,0,0,0-.66,1.21Z"/><path class="cls-8" d="M1254.51,51.68a2.85,2.85,0,0,1-1-1.15,3.79,3.79,0,0,1,0-3.35,2.88,2.88,0,0,1,1-1.16,2.72,2.72,0,0,1,1.49-.42,2.5,2.5,0,0,1,1.25.32,2.27,2.27,0,0,1,.84.78h.05l-.05-.85V43.32h1v8.59h-1V51h-.05a2.35,2.35,0,0,1-.84.78,2.49,2.49,0,0,1-1.25.31A2.72,2.72,0,0,1,1254.51,51.68Zm2.6-.79a2,2,0,0,0,.74-.81,2.57,2.57,0,0,0,.29-1.23,2.53,2.53,0,0,0-.29-1.22,2,2,0,0,0-.74-.82,1.88,1.88,0,0,0-1-.29,1.9,1.9,0,0,0-1,.29,2.13,2.13,0,0,0-.75.82,2.58,2.58,0,0,0-.28,1.22,2.55,2.55,0,0,0,.28,1.22,2.06,2.06,0,0,0,.75.82,1.9,1.9,0,0,0,1,.29A1.88,1.88,0,0,0,1257.11,50.89Z"/><path class="cls-8" d="M1260.75,51.69a.75.75,0,0,1-.23-.55.74.74,0,0,1,.23-.53.72.72,0,0,1,.54-.22.74.74,0,0,1,.55.22.73.73,0,0,1,.22.53.75.75,0,0,1-.77.77A.72.72,0,0,1,1260.75,51.69Zm0-5.45V43.32h1v2.92l-.12,3.14h-.78Z"/><path class="cls-8" d="M569.39,43.32h1v8.59h-1Z"/><path class="cls-8" d="M572.13,45.79h1v.9h0a2.05,2.05,0,0,1,.8-.77,2.35,2.35,0,0,1,1.18-.32,2.17,2.17,0,0,1,1.68.64A2.5,2.5,0,0,1,577.4,48v3.92h-1V48.14a1.64,1.64,0,0,0-.41-1.23,1.56,1.56,0,0,0-1.12-.39,1.51,1.51,0,0,0-.88.28,2,2,0,0,0-.61.73,2.19,2.19,0,0,0-.21.94v3.44h-1Z"/><path class="cls-8" d="M578.81,45.79h1v.91h.05a2.27,2.27,0,0,1,.84-.78,2.5,2.5,0,0,1,1.25-.32,2.72,2.72,0,0,1,1.49.42,2.88,2.88,0,0,1,1.05,1.16,3.79,3.79,0,0,1,0,3.35,2.79,2.79,0,0,1-1.05,1.15,2.72,2.72,0,0,1-1.49.42,2.49,2.49,0,0,1-1.25-.31,2.27,2.27,0,0,1-.84-.78h-.05l.05.84V54.5h-1Zm4,5.1a2,2,0,0,0,.74-.81,2.57,2.57,0,0,0,.28-1.23,2.53,2.53,0,0,0-.28-1.22,2,2,0,0,0-.74-.82,1.9,1.9,0,0,0-1-.29,1.88,1.88,0,0,0-1,.29,2,2,0,0,0-.74.82,2.53,2.53,0,0,0-.29,1.22,2.57,2.57,0,0,0,.29,1.23,2,2,0,0,0,.74.81,1.79,1.79,0,0,0,1,.29A1.82,1.82,0,0,0,582.81,50.89Z"/><path class="cls-8" d="M586.51,51.46a2.63,2.63,0,0,1-.58-1.82V45.79h1v3.7a1.8,1.8,0,0,0,.39,1.28,1.44,1.44,0,0,0,1.07.41,1.61,1.61,0,0,0,.92-.27,1.94,1.94,0,0,0,.63-.73,2.12,2.12,0,0,0,.22-.93V45.79h1v6.12h-1V51h0a2,2,0,0,1-.81.77,2.3,2.3,0,0,1-1.17.31A2.16,2.16,0,0,1,586.51,51.46Z"/><path class="cls-8" d="M594.43,52a1.49,1.49,0,0,1-.53-.33,1.69,1.69,0,0,1-.48-1.28V46.72h-1.07v-.93h1.07V44.06h1v1.73h1.5v.93h-1.5v3.41a1.23,1.23,0,0,0,.19.76.81.81,0,0,0,.66.27A1.13,1.13,0,0,0,596,51v1a2.29,2.29,0,0,1-.37.12,3,3,0,0,1-.47,0A1.92,1.92,0,0,1,594.43,52Z"/><path class="cls-8" d="M599.94,45.79h1v1h0a1.72,1.72,0,0,1,.7-.84,1.89,1.89,0,0,1,1.08-.34,1.75,1.75,0,0,1,.72.13v1.1a1.88,1.88,0,0,0-.86-.2,1.43,1.43,0,0,0-.82.26,1.67,1.67,0,0,0-.59.67,2,2,0,0,0-.23.93v3.42h-1Z"/><path class="cls-8" d="M605.24,51.68a2.81,2.81,0,0,1-1.09-1.15,3.75,3.75,0,0,1,0-3.29,3,3,0,0,1,1-1.2,2.81,2.81,0,0,1,1.55-.44,3,3,0,0,1,1.56.4,2.73,2.73,0,0,1,1,1.11,3.67,3.67,0,0,1,.35,1.62c0,.1,0,.2,0,.31h-4.85a2.38,2.38,0,0,0,.34,1.18,1.94,1.94,0,0,0,.76.72,2.07,2.07,0,0,0,1,.24,2,2,0,0,0,1.82-1.1l.86.42a3.09,3.09,0,0,1-1.07,1.17,3.24,3.24,0,0,1-3.21,0Zm3.33-3.48a2,2,0,0,0-.21-.76,1.62,1.62,0,0,0-.6-.65,1.87,1.87,0,0,0-1-.27,1.74,1.74,0,0,0-1.22.47,2.12,2.12,0,0,0-.66,1.21Z"/><path class="cls-8" d="M612.08,51.68A3,3,0,0,1,611,50.51a3.48,3.48,0,0,1-.39-1.66,3.57,3.57,0,0,1,.39-1.67A3,3,0,0,1,612.08,46a3,3,0,0,1,1.59-.42,2.91,2.91,0,0,1,1.68.46,2.54,2.54,0,0,1,1,1.23l-.92.39a1.74,1.74,0,0,0-.68-.86,1.91,1.91,0,0,0-1.09-.3,1.8,1.8,0,0,0-1,.3,2,2,0,0,0-.75.82,2.52,2.52,0,0,0-.29,1.21,2.49,2.49,0,0,0,.29,1.21,2,2,0,0,0,.75.83,1.88,1.88,0,0,0,1,.29,2,2,0,0,0,1.12-.3,1.85,1.85,0,0,0,.7-.85l.91.38a2.68,2.68,0,0,1-1,1.23,2.93,2.93,0,0,1-1.68.46A3,3,0,0,1,612.08,51.68Z"/><path class="cls-8" d="M618.54,51.68a2.85,2.85,0,0,1-1.08-1.15,3.55,3.55,0,0,1-.39-1.67,3.69,3.69,0,0,1,.36-1.62,3.06,3.06,0,0,1,1.05-1.2A2.81,2.81,0,0,1,620,45.6a3,3,0,0,1,1.56.4,2.73,2.73,0,0,1,1,1.11,3.67,3.67,0,0,1,.35,1.62c0,.1,0,.2,0,.31h-4.85a2.37,2.37,0,0,0,.33,1.18,2,2,0,0,0,.77.72,2,2,0,0,0,1,.24,2,2,0,0,0,1.81-1.1l.87.42a3.09,3.09,0,0,1-1.07,1.17,3.26,3.26,0,0,1-3.22,0Zm3.34-3.48a2,2,0,0,0-.22-.76,1.49,1.49,0,0,0-.6-.65,1.81,1.81,0,0,0-1-.27,1.72,1.72,0,0,0-1.22.47,2.12,2.12,0,0,0-.66,1.21Z"/><path class="cls-8" d="M624.23,44.45a.73.73,0,0,1-.21-.52.7.7,0,0,1,.21-.52.73.73,0,0,1,.52-.21.72.72,0,0,1,.73.73.73.73,0,0,1-.21.52.71.71,0,0,1-.52.22A.74.74,0,0,1,624.23,44.45Zm0,1.34h1v6.12h-1Z"/><path class="cls-8" d="M626.19,45.79h1.09l1.9,4.92h0l1.92-4.92h1.07l-2.5,6.12h-1Z"/><path class="cls-8" d="M634,51.68a2.88,2.88,0,0,1-1.09-1.15,3.55,3.55,0,0,1-.39-1.67,3.7,3.7,0,0,1,.37-1.62,3,3,0,0,1,1-1.2,2.84,2.84,0,0,1,1.56-.44,3,3,0,0,1,1.56.4,2.64,2.64,0,0,1,1,1.11,3.54,3.54,0,0,1,.36,1.62,1.71,1.71,0,0,1,0,.31h-4.85a2.48,2.48,0,0,0,.34,1.18,1.94,1.94,0,0,0,.76.72,2.08,2.08,0,0,0,1,.24,2,2,0,0,0,1.81-1.1l.86.42a3.06,3.06,0,0,1-1.06,1.17,3,3,0,0,1-1.65.43A3,3,0,0,1,634,51.68Zm3.34-3.48a2,2,0,0,0-.22-.76,1.62,1.62,0,0,0-.6-.65,1.84,1.84,0,0,0-1-.27,1.77,1.77,0,0,0-1.23.47,2.24,2.24,0,0,0-.66,1.21Z"/><path class="cls-8" d="M640.77,51.68a2.93,2.93,0,0,1-1-1.15,3.88,3.88,0,0,1,0-3.35,3,3,0,0,1,1-1.16,2.76,2.76,0,0,1,1.5-.42,2.5,2.5,0,0,1,1.25.32,2.44,2.44,0,0,1,.84.78h0l0-.85V43.32h1v8.59h-1V51h0a2.44,2.44,0,0,1-.84.78,2.49,2.49,0,0,1-1.25.31A2.76,2.76,0,0,1,640.77,51.68Zm2.61-.79a2.08,2.08,0,0,0,.74-.81,2.57,2.57,0,0,0,.28-1.23,2.53,2.53,0,0,0-.28-1.22,2.11,2.11,0,0,0-.74-.82,1.87,1.87,0,0,0-2,0,2.13,2.13,0,0,0-.75.82,2.58,2.58,0,0,0-.28,1.22,2.55,2.55,0,0,0,.28,1.22,2.06,2.06,0,0,0,.75.82,1.87,1.87,0,0,0,2,0Z"/><path class="cls-8" d="M530.07,148.82h1v8.59h-1Z"/><path class="cls-8" d="M532.8,151.29h1v.9h.05a2.08,2.08,0,0,1,.81-.77,2.24,2.24,0,0,1,1.17-.32,2.16,2.16,0,0,1,1.69.64,2.5,2.5,0,0,1,.58,1.75v3.92h-1v-3.77a1.57,1.57,0,0,0-.41-1.23,1.53,1.53,0,0,0-1.11-.39,1.47,1.47,0,0,0-.89.28,1.76,1.76,0,0,0-.6.72,2.1,2.1,0,0,0-.22.95v3.44h-1Z"/><path class="cls-8" d="M539.49,151.29h1v.91h0a2.16,2.16,0,0,1,.83-.78,2.4,2.4,0,0,1,1.25-.32,2.76,2.76,0,0,1,1.5.42,3,3,0,0,1,1,1.16,3.86,3.86,0,0,1,0,3.34,3,3,0,0,1-1,1.16,2.76,2.76,0,0,1-1.5.42,2.4,2.4,0,0,1-1.25-.32,2.22,2.22,0,0,1-.83-.77h0l0,.84V160h-1Zm4,5.1a2.06,2.06,0,0,0,.75-.82,2.89,2.89,0,0,0,0-2.44,2.06,2.06,0,0,0-.75-.82,1.87,1.87,0,0,0-1-.29,1.91,1.91,0,0,0-1,.29,2.11,2.11,0,0,0-.74.82,2.8,2.8,0,0,0,0,2.44,2.11,2.11,0,0,0,.74.82,1.91,1.91,0,0,0,1,.29A1.87,1.87,0,0,0,543.48,156.39Z"/><path class="cls-8" d="M547.18,157a2.64,2.64,0,0,1-.58-1.81v-3.85h1V155a1.8,1.8,0,0,0,.4,1.28,1.42,1.42,0,0,0,1.07.41,1.56,1.56,0,0,0,.92-.28,1.89,1.89,0,0,0,.62-.72,2,2,0,0,0,.22-.93v-3.46h1v6.12h-1v-.89h0a2.05,2.05,0,0,1-.8.77,2.34,2.34,0,0,1-1.18.31A2.13,2.13,0,0,1,547.18,157Z"/><path class="cls-8" d="M555.1,157.48a1.49,1.49,0,0,1-.53-.33,1.7,1.7,0,0,1-.48-1.28v-3.66H553v-.92h1.07v-1.73h1v1.73h1.5v.92h-1.5v3.41a1.2,1.2,0,0,0,.19.76.81.81,0,0,0,.66.27,1.13,1.13,0,0,0,.67-.2v1a2.53,2.53,0,0,1-.36.12,3.14,3.14,0,0,1-.48,0A2,2,0,0,1,555.1,157.48Z"/><path class="cls-8" d="M561.73,157.18a2.81,2.81,0,0,1-1.05-1.16,3.77,3.77,0,0,1,0-3.34,2.88,2.88,0,0,1,1.05-1.16,2.72,2.72,0,0,1,1.49-.42,2.38,2.38,0,0,1,1.25.32,2.27,2.27,0,0,1,.84.78h.05l-.05-.85v-2.53h1v8.59h-1v-.9h-.05a2.33,2.33,0,0,1-.84.77,2.38,2.38,0,0,1-1.25.32A2.72,2.72,0,0,1,561.73,157.18Zm2.6-.79a2.06,2.06,0,0,0,.75-.82,2.8,2.8,0,0,0,0-2.44,2.06,2.06,0,0,0-.75-.82,1.88,1.88,0,0,0-1-.29,1.93,1.93,0,0,0-1,.29,2.13,2.13,0,0,0-.75.82,2.8,2.8,0,0,0,0,2.44,2.13,2.13,0,0,0,.75.82,1.93,1.93,0,0,0,1,.29A1.88,1.88,0,0,0,564.33,156.39Z"/><path class="cls-8" d="M568.93,157.18a2.88,2.88,0,0,1-1.08-1.16,3.48,3.48,0,0,1-.39-1.66,3.69,3.69,0,0,1,.36-1.62,3.06,3.06,0,0,1,1-1.2,2.81,2.81,0,0,1,1.55-.44,2.92,2.92,0,0,1,1.56.4,2.73,2.73,0,0,1,1,1.11,3.64,3.64,0,0,1,.35,1.62c0,.1,0,.2,0,.31h-4.85a2.37,2.37,0,0,0,.33,1.18,2,2,0,0,0,.77.72,2,2,0,0,0,1,.24,2,2,0,0,0,1.81-1.11l.87.42a3,3,0,0,1-1.07,1.17,2.92,2.92,0,0,1-1.64.44A3,3,0,0,1,568.93,157.18Zm3.34-3.48a2.09,2.09,0,0,0-.22-.77,1.53,1.53,0,0,0-.6-.64,1.81,1.81,0,0,0-1-.27,1.76,1.76,0,0,0-1.22.46,2.18,2.18,0,0,0-.66,1.22Z"/><path class="cls-8" d="M574.54,148.82h1v8.59h-1Z"/><path class="cls-8" d="M577.77,157.34a2,2,0,0,1-.82-.73,2,2,0,0,1-.29-1.05,1.81,1.81,0,0,1,.73-1.52,3,3,0,0,1,1.85-.54,4.22,4.22,0,0,1,1,.12,2.73,2.73,0,0,1,.72.27v-.37a1.4,1.4,0,0,0-.48-1.1,1.81,1.81,0,0,0-1.21-.41,2,2,0,0,0-.94.22,1.8,1.8,0,0,0-.69.62l-.77-.58a2.48,2.48,0,0,1,1-.86,3.09,3.09,0,0,1,1.4-.31,2.81,2.81,0,0,1,2,.65,2.32,2.32,0,0,1,.71,1.78v3.88h-1v-.88h0a2.18,2.18,0,0,1-.8.76,2.24,2.24,0,0,1-1.18.31A2.71,2.71,0,0,1,577.77,157.34Zm2.25-.9a2,2,0,0,0,.71-.71,1.83,1.83,0,0,0,.26-1,2.38,2.38,0,0,0-.7-.31,3.24,3.24,0,0,0-.89-.12,2,2,0,0,0-1.27.34,1.14,1.14,0,0,0-.42.9,1,1,0,0,0,.38.82,1.48,1.48,0,0,0,1,.31A1.87,1.87,0,0,0,580,156.44Z"/><path class="cls-8" d="M585.13,157l-2.53-5.74h1.11l1.92,4.55h0l1.85-4.55h1.1L584.82,160h-1.05Z"/><line class="cls-2" x1="1123.58" y1="126.88" x2="1123.58" y2="126.38"/><line class="cls-9" x1="1123.58" y1="120.66" x2="1123.58" y2="90.19"/><line class="cls-2" x1="1123.58" y1="87.33" x2="1123.58" y2="86.83"/><line class="cls-2" x1="530.07" y1="126.88" x2="530.07" y2="126.38"/><line class="cls-10" x1="530.07" y1="120.66" x2="530.07" y2="70.19"/><line class="cls-2" x1="530.07" y1="67.33" x2="530.07" y2="66.83"/><rect class="cls-2" x="1094.21" y="30.58" width="58.75" height="41.12" rx="3.63"/><line class="cls-3" x1="1094.21" y1="65.98" x2="1152.95" y2="65.98"/><line class="cls-2" x1="1121.63" y1="68.84" x2="1125.53" y2="68.84"/><line class="cls-3" x1="1117.27" y1="71.52" x2="1116.53" y2="76.16"/><line class="cls-3" x1="1130.63" y1="76.16" x2="1129.89" y2="71.52"/><rect class="cls-2" x="1111.73" y="76.16" width="23.71" height="2.95"/><polygon class="cls-4" points="1123.58 37.08 1127.22 44.46 1135.36 45.64 1129.47 51.38 1130.86 59.48 1123.58 55.66 1116.3 59.48 1117.69 51.38 1111.8 45.64 1119.94 44.46 1123.58 37.08"/><rect class="cls-4" x="398.73" y="96.84" width="34.14" height="26.06"/><rect class="cls-7" x="294" y="96.84" width="44.39" height="26.06"/><path class="cls-2" d="M294,126.88s-.88,9.27,8.4,9.27h77.36c9.27,0,8.39,9.28,8.39,9.28s-.88-9.28,8.39-9.28h80.86c9.28,0,8.4-9.27,8.4-9.27"/><path class="cls-2" d="M398.75,93.46s-.88-9.28,8.39-9.28h.57c8.94,0,8.09-9.28,8.09-9.28s-.85,9.28,8.09,9.28h.56c9.28,0,8.39,9.28,8.39,9.28"/><path class="cls-8" d="M403.91,62.93h2.79a2.56,2.56,0,0,1,1.28.32,2.53,2.53,0,0,1,0,4.44,2.56,2.56,0,0,1-1.28.32h-1.8v3.51h-1ZM406.72,67a1.43,1.43,0,0,0,.82-.23,1.61,1.61,0,0,0,.55-.58,1.62,1.62,0,0,0,0-1.52,1.61,1.61,0,0,0-.55-.58,1.43,1.43,0,0,0-.82-.23H404.9V67Z"/><path class="cls-8" d="M410.87,71.45a2,2,0,0,1-1.06-1.78,1.82,1.82,0,0,1,.71-1.52,2.84,2.84,0,0,1,1.78-.54,4,4,0,0,1,1,.12,2.84,2.84,0,0,1,.7.27v-.37a1.41,1.41,0,0,0-.47-1.1,1.68,1.68,0,0,0-1.16-.41,1.88,1.88,0,0,0-.91.22,1.67,1.67,0,0,0-.67.62l-.74-.58a2.36,2.36,0,0,1,1-.86,2.93,2.93,0,0,1,1.36-.31,2.58,2.58,0,0,1,1.88.65,2.34,2.34,0,0,1,.68,1.78v3.88H414v-.88h-.05A2.2,2.2,0,0,1,412,71.71,2.57,2.57,0,0,1,410.87,71.45Zm2.18-.9a2.1,2.1,0,0,0,.68-.71,1.93,1.93,0,0,0,.26-1,2.45,2.45,0,0,0-.69-.32,3,3,0,0,0-.85-.12,1.85,1.85,0,0,0-1.22.35,1.1,1.1,0,0,0-.41.9,1,1,0,0,0,.37.82,1.38,1.38,0,0,0,.93.31A1.79,1.79,0,0,0,413.05,70.55Z"/><path class="cls-8" d="M416.37,64.05a.74.74,0,0,1,0-1,.7.7,0,0,1,1,0,.76.76,0,0,1,0,1,.68.68,0,0,1-1,0Zm0,1.35h1v6.12h-1Z"/><path class="cls-8" d="M418.9,65.4h.94v.9h.05a2.05,2.05,0,0,1,.77-.78,2.19,2.19,0,0,1,1.13-.31,2.05,2.05,0,0,1,1.63.64,2.58,2.58,0,0,1,.56,1.74v3.93h-1V67.75a1.65,1.65,0,0,0-.4-1.24,1.49,1.49,0,0,0-1.07-.38,1.36,1.36,0,0,0-.85.28,1.82,1.82,0,0,0-.59.72,2.21,2.21,0,0,0-.2.94v3.45h-1Z"/><path class="cls-8" d="M426.7,71.59a1.5,1.5,0,0,1-.51-.33,1.74,1.74,0,0,1-.46-1.29V66.32h-1V65.4h1V63.67h1V65.4h1.45v.92h-1.45v3.41a1.2,1.2,0,0,0,.19.76.75.75,0,0,0,.63.27,1.14,1.14,0,0,0,.65-.2v1a1.21,1.21,0,0,1-.35.12,2,2,0,0,1-.46,0A1.85,1.85,0,0,1,426.7,71.59Z"/><path class="cls-8" d="M339.23,148.82h2.89a2.84,2.84,0,0,1,1.33.32,2.53,2.53,0,0,1,1,.91,2.44,2.44,0,0,1,.37,1.31,2.47,2.47,0,0,1-.37,1.32,2.5,2.5,0,0,1-1,.9,2.73,2.73,0,0,1-1.33.33h-1.87v3.5h-1Zm2.91,4.11a1.58,1.58,0,0,0,.85-.22,1.78,1.78,0,0,0,.57-.59,1.53,1.53,0,0,0,0-1.51A1.69,1.69,0,0,0,343,150a1.59,1.59,0,0,0-.85-.23h-1.89v3.14Z"/><path class="cls-8" d="M345.94,151.29h1v1h0a1.73,1.73,0,0,1,.69-.84,2,2,0,0,1,1.08-.33,1.75,1.75,0,0,1,.72.13v1.09a1.84,1.84,0,0,0-.86-.19,1.42,1.42,0,0,0-.82.25,1.86,1.86,0,0,0-.59.68,2,2,0,0,0-.22.92v3.43h-1Z"/><path class="cls-8" d="M351.23,157.18a2.84,2.84,0,0,1-1.09-1.16,3.48,3.48,0,0,1-.39-1.66,3.57,3.57,0,0,1,.37-1.62,3,3,0,0,1,1-1.2,2.82,2.82,0,0,1,1.56-.44,2.92,2.92,0,0,1,1.56.4,2.71,2.71,0,0,1,1,1.11,3.51,3.51,0,0,1,.35,1.62,1.67,1.67,0,0,1,0,.31h-4.85a2.48,2.48,0,0,0,.34,1.18,1.94,1.94,0,0,0,.76.72,2.08,2.08,0,0,0,1,.24,2,2,0,0,0,1.81-1.11l.86.42a2.94,2.94,0,0,1-1.07,1.17,2.89,2.89,0,0,1-1.64.44A3,3,0,0,1,351.23,157.18Zm3.33-3.48a1.9,1.9,0,0,0-.21-.77,1.66,1.66,0,0,0-.6-.64,1.84,1.84,0,0,0-1-.27,1.8,1.8,0,0,0-1.23.46,2.31,2.31,0,0,0-.66,1.22Z"/><path class="cls-8" d="M357.38,157.14a2.49,2.49,0,0,1-.93-1.18l.91-.41a1.81,1.81,0,0,0,.68.85,1.75,1.75,0,0,0,1,.3,2,2,0,0,0,1-.23.75.75,0,0,0,.41-.67.75.75,0,0,0-.32-.62,3.16,3.16,0,0,0-1-.4l-.75-.19a2.63,2.63,0,0,1-1.2-.61,1.54,1.54,0,0,1-.15-2,2.09,2.09,0,0,1,.85-.62,3,3,0,0,1,1.14-.21,2.83,2.83,0,0,1,1.43.35,2,2,0,0,1,.9,1l-.89.41A1.48,1.48,0,0,0,359,152a1.73,1.73,0,0,0-.89.23.7.7,0,0,0-.37.6.65.65,0,0,0,.26.54,2.16,2.16,0,0,0,.79.35l.89.22a3,3,0,0,1,1.36.68,1.5,1.5,0,0,1,.45,1.1,1.61,1.61,0,0,1-.32,1,2.09,2.09,0,0,1-.88.65,3,3,0,0,1-1.22.23A2.79,2.79,0,0,1,357.38,157.14Z"/><path class="cls-8" d="M363.78,157.18a2.9,2.9,0,0,1-1.09-1.16,3.48,3.48,0,0,1-.39-1.66,3.7,3.7,0,0,1,.37-1.62,3,3,0,0,1,1-1.2,2.84,2.84,0,0,1,1.56-.44,2.92,2.92,0,0,1,1.56.4,2.64,2.64,0,0,1,1,1.11,3.51,3.51,0,0,1,.36,1.62,1.71,1.71,0,0,1,0,.31h-4.85a2.48,2.48,0,0,0,.34,1.18,1.94,1.94,0,0,0,.76.72,2.08,2.08,0,0,0,1,.24,2,2,0,0,0,1.81-1.11l.86.42a3,3,0,0,1-1.06,1.17,3.23,3.23,0,0,1-3.22,0Zm3.34-3.48a2.09,2.09,0,0,0-.22-.77,1.66,1.66,0,0,0-.6-.64,1.84,1.84,0,0,0-1-.27,1.8,1.8,0,0,0-1.23.46,2.31,2.31,0,0,0-.66,1.22Z"/><path class="cls-8" d="M369.38,151.29h1v.9h0a2.08,2.08,0,0,1,.81-.77,2.24,2.24,0,0,1,1.17-.32,2.16,2.16,0,0,1,1.69.64,2.5,2.5,0,0,1,.58,1.75v3.92h-1v-3.77a1.57,1.57,0,0,0-.41-1.23,1.53,1.53,0,0,0-1.11-.39,1.44,1.44,0,0,0-.88.28,1.79,1.79,0,0,0-.61.72,2.24,2.24,0,0,0-.22.95v3.44h-1Z"/><path class="cls-8" d="M377.48,157.48a1.63,1.63,0,0,1-.54-.33,1.7,1.7,0,0,1-.48-1.28v-3.66H375.4v-.92h1.06v-1.73h1v1.73H379v.92h-1.5v3.41a1.19,1.19,0,0,0,.2.76.81.81,0,0,0,.66.27,1.15,1.15,0,0,0,.67-.2v1a2.29,2.29,0,0,1-.37.12,3,3,0,0,1-.47,0A1.92,1.92,0,0,1,377.48,157.48Z"/><path class="cls-8" d="M380.84,157.34a1.95,1.95,0,0,1-1.1-1.78,1.79,1.79,0,0,1,.73-1.52,3,3,0,0,1,1.85-.54,4.22,4.22,0,0,1,1,.12,2.87,2.87,0,0,1,.72.27v-.37a1.4,1.4,0,0,0-.48-1.1,1.81,1.81,0,0,0-1.21-.41,2,2,0,0,0-.94.22,1.8,1.8,0,0,0-.69.62l-.77-.58a2.48,2.48,0,0,1,1-.86,3.09,3.09,0,0,1,1.4-.31,2.83,2.83,0,0,1,2,.65,2.31,2.31,0,0,1,.7,1.78v3.88h-1v-.88H384a2.14,2.14,0,0,1-.79.76,2.27,2.27,0,0,1-1.19.31A2.78,2.78,0,0,1,380.84,157.34Zm2.26-.9a2,2,0,0,0,.71-.71,1.93,1.93,0,0,0,.26-1,2.45,2.45,0,0,0-.71-.31,3.17,3.17,0,0,0-.88-.12,2,2,0,0,0-1.27.34,1.15,1.15,0,0,0-.43.9,1,1,0,0,0,.39.82,1.47,1.47,0,0,0,1,.31A1.92,1.92,0,0,0,383.1,156.44Z"/><path class="cls-8" d="M388,157.48a1.49,1.49,0,0,1-.53-.33,1.7,1.7,0,0,1-.48-1.28v-3.66h-1.07v-.92H387v-1.73h1v1.73h1.5v.92H388v3.41a1.2,1.2,0,0,0,.19.76.81.81,0,0,0,.66.27,1.13,1.13,0,0,0,.67-.2v1a2.53,2.53,0,0,1-.36.12,3.23,3.23,0,0,1-.48,0A1.92,1.92,0,0,1,388,157.48Z"/><path class="cls-8" d="M390.88,150a.7.7,0,0,1-.22-.52.67.67,0,0,1,.22-.52.73.73,0,0,1,1.24.52.73.73,0,0,1-.21.52.74.74,0,0,1-1,0Zm0,1.34h1v6.12h-1Z"/><path class="cls-8" d="M394.64,157.17a3,3,0,0,1-1.12-1.18,3.56,3.56,0,0,1,0-3.28,3,3,0,0,1,1.12-1.18,3.13,3.13,0,0,1,4.37,1.18,3.56,3.56,0,0,1,0,3.28,3.19,3.19,0,0,1-4.37,1.18Zm2.67-.77a2,2,0,0,0,.78-.81,2.71,2.71,0,0,0,0-2.48,2,2,0,0,0-.78-.81,2.11,2.11,0,0,0-1.05-.28,2.17,2.17,0,0,0-1.05.28,2.12,2.12,0,0,0-.79.81,2.8,2.8,0,0,0,0,2.48,2.12,2.12,0,0,0,.79.81,2.17,2.17,0,0,0,1.05.28A2.11,2.11,0,0,0,397.31,156.4Z"/><path class="cls-8" d="M400.48,151.29h1v.9h.05a2,2,0,0,1,.8-.77,2.25,2.25,0,0,1,1.18-.32,2.15,2.15,0,0,1,1.68.64,2.5,2.5,0,0,1,.58,1.75v3.92h-1v-3.77a1.61,1.61,0,0,0-.4-1.23,1.57,1.57,0,0,0-1.12-.39,1.44,1.44,0,0,0-.88.28,1.87,1.87,0,0,0-.61.72,2.23,2.23,0,0,0-.21.95v3.44h-1Z"/><path class="cls-8" d="M411.1,157.18a3,3,0,0,1-1.05-1.16,3.86,3.86,0,0,1,0-3.34,3,3,0,0,1,1.05-1.16,2.76,2.76,0,0,1,1.5-.42,2.34,2.34,0,0,1,1.24.32,2.27,2.27,0,0,1,.84.78h.05l-.05-.85v-2.53h1v8.59h-1v-.9h-.05a2.5,2.5,0,0,1-2.08,1.09A2.76,2.76,0,0,1,411.1,157.18Zm2.61-.79a2.11,2.11,0,0,0,.74-.82,2.8,2.8,0,0,0,0-2.44,2.11,2.11,0,0,0-.74-.82,1.91,1.91,0,0,0-1-.29,1.87,1.87,0,0,0-1,.29,2.13,2.13,0,0,0-.75.82,2.8,2.8,0,0,0,0,2.44,2.13,2.13,0,0,0,.75.82,1.87,1.87,0,0,0,1,.29A1.91,1.91,0,0,0,413.71,156.39Z"/><path class="cls-8" d="M418.31,157.18a2.84,2.84,0,0,1-1.09-1.16,3.48,3.48,0,0,1-.39-1.66,3.57,3.57,0,0,1,.37-1.62,3,3,0,0,1,1-1.2,2.82,2.82,0,0,1,1.56-.44,2.92,2.92,0,0,1,1.56.4,2.71,2.71,0,0,1,1,1.11,3.51,3.51,0,0,1,.35,1.62,1.67,1.67,0,0,1,0,.31h-4.85a2.48,2.48,0,0,0,.34,1.18,1.94,1.94,0,0,0,.76.72,2.08,2.08,0,0,0,1,.24,2,2,0,0,0,1.81-1.11l.86.42a2.94,2.94,0,0,1-1.07,1.17,2.89,2.89,0,0,1-1.64.44A3,3,0,0,1,418.31,157.18Zm3.33-3.48a1.9,1.9,0,0,0-.21-.77,1.66,1.66,0,0,0-.6-.64,1.84,1.84,0,0,0-1-.27,1.8,1.8,0,0,0-1.23.46,2.31,2.31,0,0,0-.66,1.22Z"/><path class="cls-8" d="M423.91,148.82h1v8.59h-1Z"/><path class="cls-8" d="M427.14,157.34a2,2,0,0,1-.82-.73,2,2,0,0,1-.28-1.05,1.79,1.79,0,0,1,.73-1.52,3,3,0,0,1,1.85-.54,4.13,4.13,0,0,1,1,.12,2.82,2.82,0,0,1,.73.27v-.37a1.4,1.4,0,0,0-.48-1.1,1.84,1.84,0,0,0-1.22-.41,2,2,0,0,0-.94.22,1.8,1.8,0,0,0-.69.62l-.76-.58a2.45,2.45,0,0,1,1-.86,3.12,3.12,0,0,1,1.4-.31,2.79,2.79,0,0,1,2,.65,2.32,2.32,0,0,1,.71,1.78v3.88h-1v-.88h-.05a2.22,2.22,0,0,1-.79.76,2.3,2.3,0,0,1-1.19.31A2.71,2.71,0,0,1,427.14,157.34Zm2.25-.9a1.93,1.93,0,0,0,.71-.71,1.84,1.84,0,0,0,.27-1,2.58,2.58,0,0,0-.71-.31,3.24,3.24,0,0,0-.89-.12,2,2,0,0,0-1.26.34,1.12,1.12,0,0,0-.43.9,1,1,0,0,0,.38.82,1.48,1.48,0,0,0,1,.31A1.87,1.87,0,0,0,429.39,156.44Z"/><path class="cls-8" d="M434.51,157,432,151.29h1.11l1.92,4.55h0l1.85-4.55H438L434.2,160h-1.06Z"/><line class="cls-2" x1="485.82" y1="126.88" x2="485.82" y2="126.38"/><line class="cls-9" x1="485.82" y1="120.66" x2="485.82" y2="90.19"/><line class="cls-2" x1="485.82" y1="87.33" x2="485.82" y2="86.83"/><path class="cls-11" d="M544.88,78.11a.75.75,0,0,1-.66-.39l-7-12.83-6.59,6.38a.73.73,0,0,1-.52.21.79.79,0,0,1-.3,0,.76.76,0,0,1-.45-.7V35.18a.76.76,0,0,1,.45-.69.8.8,0,0,1,.3-.06.75.75,0,0,1,.52.21l25.85,25a.78.78,0,0,1,.18.83.75.75,0,0,1-.7.46h-9.77L552.82,73a.73.73,0,0,1,.06.58.69.69,0,0,1-.36.44l-7.28,4A.8.8,0,0,1,544.88,78.11Z"/><path class="cls-1" d="M530.07,35.18l25.85,25h-11l7.29,13.26-7.29,4-7.51-13.69-7.3,7.07V35.18m0-1.5a1.52,1.52,0,0,0-.59.12,1.5,1.5,0,0,0-.91,1.38V70.74a1.49,1.49,0,0,0,2.54,1.07l5.89-5.7,6.56,12a1.5,1.5,0,0,0,1.32.78,1.57,1.57,0,0,0,.72-.18l7.28-4a1.48,1.48,0,0,0,.6-2l-6.07-11h8.51a1.5,1.5,0,0,0,1-2.58L531.11,34.1a1.48,1.48,0,0,0-1-.42Z"/><path class="cls-2" d="M928.23,126.88s.88,9.27-8.39,9.27H767.9c-9.28,0-8.39,9.28-8.39,9.28s.88-9.28-8.39-9.28H599.18c-9.28,0-8.39-9.27-8.39-9.27"/><rect class="cls-6" x="96.29" y="96.84" width="185.34" height="26.06"/><rect class="cls-6" x="294" y="96.84" width="50.43" height="26.06"/><path d="M158.1,107.64a1.34,1.34,0,0,1,.51-.52,1.47,1.47,0,0,1,.75-.2,1.65,1.65,0,0,1,.46.06,1,1,0,0,1,.35.16.76.76,0,0,1,.2.2.87.87,0,0,1,.16.26,1.5,1.5,0,0,1,.19-.25,2.25,2.25,0,0,1,.24-.21,1.79,1.79,0,0,1,.37-.15,1.93,1.93,0,0,1,.44-.07,1.55,1.55,0,0,1,.59.1,1.15,1.15,0,0,1,.45.28,1.45,1.45,0,0,1,.3.55,2.69,2.69,0,0,1,.11.79v4.74h-1v-4.75a1.23,1.23,0,0,0-.05-.35A.66.66,0,0,0,162,108a.68.68,0,0,0-.23-.14,1.07,1.07,0,0,0-.32,0,1.16,1.16,0,0,0-.34,0,.76.76,0,0,0-.23.15.62.62,0,0,0-.15.21,1.07,1.07,0,0,0-.07.27v4.86h-1v-4.75a1.69,1.69,0,0,0,0-.35.65.65,0,0,0-.14-.26.54.54,0,0,0-.22-.13,1,1,0,0,0-.31,0,1.16,1.16,0,0,0-.34,0,.9.9,0,0,0-.24.12.64.64,0,0,0-.13.15.56.56,0,0,0-.09.17v5h-1V107h1Z"/><path d="M164.67,108.88a3,3,0,0,1,.57-1,2.84,2.84,0,0,1,4.23,0,3.1,3.1,0,0,1,.56,1,3.72,3.72,0,0,1,.2,1.27v.13a3.72,3.72,0,0,1-.2,1.27,3.15,3.15,0,0,1-.56,1,2.65,2.65,0,0,1-.91.68,3,3,0,0,1-2.41,0,2.56,2.56,0,0,1-.91-.68,3,3,0,0,1-.57-1,3.72,3.72,0,0,1-.2-1.27v-.13A3.72,3.72,0,0,1,164.67,108.88Zm1,2.29a2.35,2.35,0,0,0,.34.75,1.75,1.75,0,0,0,.57.51,1.65,1.65,0,0,0,.79.19,1.67,1.67,0,0,0,.78-.19,1.82,1.82,0,0,0,.56-.51,2.35,2.35,0,0,0,.34-.75,3.68,3.68,0,0,0,.11-.89v-.13a3.3,3.3,0,0,0-.12-.89,2.17,2.17,0,0,0-.33-.74,1.67,1.67,0,0,0-.57-.52,1.72,1.72,0,0,0-1.57,0,1.74,1.74,0,0,0-.56.52,2.4,2.4,0,0,0-.34.74,3.74,3.74,0,0,0-.11.89v.13A3.68,3.68,0,0,0,165.66,111.17Z"/><path d="M176.09,112.51a2.39,2.39,0,0,1-.79.73,2.32,2.32,0,0,1-1.1.26,2.57,2.57,0,0,1-.9-.16,1.66,1.66,0,0,1-.69-.48,2.25,2.25,0,0,1-.45-.84,4.3,4.3,0,0,1-.15-1.21V107h1.08v3.78a4,4,0,0,0,.08.85,1.36,1.36,0,0,0,.25.54.81.81,0,0,0,.4.29,1.82,1.82,0,0,0,.55.08,2.57,2.57,0,0,0,.65-.08,1.79,1.79,0,0,0,.5-.24,1.26,1.26,0,0,0,.31-.3,2.26,2.26,0,0,0,.22-.37V107h1.09v6.34h-1Z"/><path d="M183.31,111.35a.87.87,0,0,0-.26-.29,2.16,2.16,0,0,0-.48-.23,4.29,4.29,0,0,0-.74-.2,6.16,6.16,0,0,1-1-.27,2.91,2.91,0,0,1-.77-.38,1.62,1.62,0,0,1-.5-.51,1.41,1.41,0,0,1-.17-.69,1.48,1.48,0,0,1,.18-.72,1.69,1.69,0,0,1,.51-.59,2.61,2.61,0,0,1,.78-.4,3.18,3.18,0,0,1,1-.15,3.41,3.41,0,0,1,1,.15,2.54,2.54,0,0,1,.8.43,1.92,1.92,0,0,1,.51.63,1.71,1.71,0,0,1,.18.77h-1.09a.85.85,0,0,0-.1-.4,1.1,1.1,0,0,0-.3-.35,1.37,1.37,0,0,0-.45-.24,1.64,1.64,0,0,0-.6-.1,2.25,2.25,0,0,0-.61.08,1.56,1.56,0,0,0-.43.2,1,1,0,0,0-.26.3.76.76,0,0,0-.09.35.74.74,0,0,0,.07.34.68.68,0,0,0,.25.26,1.53,1.53,0,0,0,.46.21,4.32,4.32,0,0,0,.73.18,9.73,9.73,0,0,1,1,.29,3.15,3.15,0,0,1,.78.38,1.6,1.6,0,0,1,.48.53,1.31,1.31,0,0,1,.17.69,1.54,1.54,0,0,1-.19.77,1.75,1.75,0,0,1-.53.59,2.76,2.76,0,0,1-.81.38,3.84,3.84,0,0,1-1,.14,3.43,3.43,0,0,1-1.15-.18,2.56,2.56,0,0,1-.85-.46,2,2,0,0,1-.54-.65,1.78,1.78,0,0,1-.18-.78h1.08a1.2,1.2,0,0,0,.18.56,1.37,1.37,0,0,0,.39.37,1.75,1.75,0,0,0,.51.2,2.74,2.74,0,0,0,.56.06,2.37,2.37,0,0,0,.75-.11,1.13,1.13,0,0,0,.51-.28.85.85,0,0,0,.17-.25.67.67,0,0,0,.06-.28A.78.78,0,0,0,183.31,111.35Z"/><path d="M188,113.27a2.89,2.89,0,0,1-1-.64,3,3,0,0,1-.62-1,3.32,3.32,0,0,1-.22-1.23v-.24a3.73,3.73,0,0,1,.24-1.38,3.37,3.37,0,0,1,.66-1,3,3,0,0,1,.92-.64,2.84,2.84,0,0,1,1.07-.22,2.78,2.78,0,0,1,1.19.24,2.45,2.45,0,0,1,.86.65,2.89,2.89,0,0,1,.5,1,4.4,4.4,0,0,1,.17,1.23v.49h-4.53v0a2.82,2.82,0,0,0,.19.82,1.91,1.91,0,0,0,.39.62,1.87,1.87,0,0,0,.62.45,1.92,1.92,0,0,0,.81.16,2.29,2.29,0,0,0,1-.23,2.4,2.4,0,0,0,.75-.62l.66.51a2.74,2.74,0,0,1-1,.85,3,3,0,0,1-1.55.38A3.25,3.25,0,0,1,188,113.27Zm.46-5.34a1.64,1.64,0,0,0-.52.35,2.16,2.16,0,0,0-.4.57,2.63,2.63,0,0,0-.22.78h3.41v0a2.09,2.09,0,0,0-.11-.63,1.86,1.86,0,0,0-.32-.59,1.67,1.67,0,0,0-.5-.4,1.58,1.58,0,0,0-.71-.15A1.68,1.68,0,0,0,188.41,107.93Z"/><path d="M193.55,108.85a3.25,3.25,0,0,1,.51-1,2.33,2.33,0,0,1,.8-.67,2.26,2.26,0,0,1,1-.24,2.5,2.5,0,0,1,1,.19,2,2,0,0,1,.74.56v-3.29h1.08v9h-1l0-.67a2.09,2.09,0,0,1-.76.59,2.47,2.47,0,0,1-1,.2,2.22,2.22,0,0,1-1-.25,2.36,2.36,0,0,1-.8-.68,3.25,3.25,0,0,1-.51-1,4.33,4.33,0,0,1-.18-1.27v-.12A4.51,4.51,0,0,1,193.55,108.85Zm1,2.31a2.09,2.09,0,0,0,.31.73,1.46,1.46,0,0,0,.52.5,1.61,1.61,0,0,0,.78.19,1.59,1.59,0,0,0,.9-.25,1.67,1.67,0,0,0,.57-.66v-2.94a1.85,1.85,0,0,0-.57-.64,1.51,1.51,0,0,0-.89-.25,1.46,1.46,0,0,0-.78.19,1.41,1.41,0,0,0-.53.5,2.32,2.32,0,0,0-.31.74,3.68,3.68,0,0,0-.1.89v.12A3.6,3.6,0,0,0,194.56,111.16Z"/><path d="M200.67,108.88a3.13,3.13,0,0,1,.58-1,2.55,2.55,0,0,1,.9-.68,2.71,2.71,0,0,1,1.2-.25,2.79,2.79,0,0,1,1.21.25,2.69,2.69,0,0,1,.91.68,3,3,0,0,1,.57,1,4,4,0,0,1,.2,1.27v.13a4,4,0,0,1-.2,1.27,3,3,0,0,1-.57,1,2.56,2.56,0,0,1-.91.68,2.86,2.86,0,0,1-1.2.25,2.94,2.94,0,0,1-1.21-.25,2.44,2.44,0,0,1-.9-.68,3.19,3.19,0,0,1-.58-1,4,4,0,0,1-.2-1.27v-.13A4,4,0,0,1,200.67,108.88Zm1,2.29a2.15,2.15,0,0,0,.34.75,1.71,1.71,0,0,0,.56.51,1.68,1.68,0,0,0,.79.19,1.61,1.61,0,0,0,.78-.19,1.75,1.75,0,0,0,.57-.51,2.14,2.14,0,0,0,.33-.75,3.24,3.24,0,0,0,.11-.89v-.13a3.29,3.29,0,0,0-.11-.89,2.4,2.4,0,0,0-.34-.74,1.74,1.74,0,0,0-.56-.52,1.68,1.68,0,0,0-.79-.19,1.61,1.61,0,0,0-.78.19,1.64,1.64,0,0,0-.56.52,2.19,2.19,0,0,0-.34.74,3.29,3.29,0,0,0-.11.89v.13A3.24,3.24,0,0,0,201.67,111.17Z"/><path d="M207.24,107h1l.74,4,.13.91.16-.91,1-4h.7l1,4,.17,1,.15-1,.71-4h1l-1.35,6.34h-.85l-1-3.89-.16-1-.16,1-1,3.89h-.85Z"/><path d="M215.18,107h1l.08.94a2.25,2.25,0,0,1,.31-.37,2.34,2.34,0,0,1,.35-.29,2.63,2.63,0,0,1,.61-.29,2.69,2.69,0,0,1,.7-.11,2.85,2.85,0,0,1,.91.14,1.78,1.78,0,0,1,.69.44,2.1,2.1,0,0,1,.45.76,3.54,3.54,0,0,1,.15,1.09v4h-1.08v-4a2.2,2.2,0,0,0-.1-.72,1.14,1.14,0,0,0-.27-.47,1.24,1.24,0,0,0-.46-.27,2.2,2.2,0,0,0-.61-.08,1.73,1.73,0,0,0-.56.09,1.58,1.58,0,0,0-.47.23,1.3,1.3,0,0,0-.32.3,2.51,2.51,0,0,0-.27.37v4.55h-1.08Z"/><path d="M314.21,107a2.43,2.43,0,0,1,.49.11l-.14,1.06c-.21,0-.41-.08-.6-.1a5.74,5.74,0,0,0-.6,0,2.37,2.37,0,0,0-.72.1,1.73,1.73,0,0,0-.56.28,1.61,1.61,0,0,0-.38.4,2.4,2.4,0,0,0-.27.53v4.07h-1.09V107h1l0,.85v.16a2.93,2.93,0,0,1,.93-.83,2.49,2.49,0,0,1,1.23-.3C313.79,106.92,314,106.94,314.21,107Z"/><path d="M317.86,111.17l-.68,2.21h-1.09l2.76-8.53h.9l2.71,8.53h-1.08l-.67-2.21Zm2.56-.94-1.12-3.71-1.15,3.71Z"/><path d="M325,109.61v3.77h-1.09v-8.53h5.24v.92H325v2.92h3.55v.92Z"/><path class="cls-2" d="M96.31,126.88s-.88,9.27,8.39,9.27h75.86c9.28,0,8.4,9.28,8.4,9.28s-.89-9.28,8.39-9.28h75.86c9.28,0,8.39-9.27,8.39-9.27"/><polygon class="cls-12" points="35.28 16.6 38.84 26.59 48.42 22.04 43.87 31.62 53.87 35.18 43.87 38.73 48.42 48.31 38.84 43.76 35.28 53.76 31.73 43.76 22.15 48.31 26.7 38.73 16.7 35.18 26.7 31.62 22.15 22.04 31.73 26.59 35.28 16.6"/><path class="cls-2" d="M35.17,126.88s-.88,9.28,8.39,9.28H55.38c9.28,0,8.39,9.27,8.39,9.27s-.88-9.27,8.39-9.27H84c9.28,0,8.39-9.28,8.39-9.28"/><path class="cls-8" d="M74.26,43.32h1v8.59h-1Z"/><path class="cls-8" d="M77,45.79h1v.9h0a2.12,2.12,0,0,1,.8-.77A2.35,2.35,0,0,1,80,45.6a2.19,2.19,0,0,1,1.69.64A2.55,2.55,0,0,1,82.27,48v3.92h-1V48.14a1.64,1.64,0,0,0-.41-1.23,1.67,1.67,0,0,0-2-.11,1.86,1.86,0,0,0-.6.73,2.06,2.06,0,0,0-.22.94v3.44H77Z"/><path class="cls-8" d="M83.68,45.79h1v.91h0a2.27,2.27,0,0,1,.84-.78,2.5,2.5,0,0,1,1.25-.32,2.78,2.78,0,0,1,1.5.42,3,3,0,0,1,1,1.16,3.88,3.88,0,0,1,0,3.35,2.93,2.93,0,0,1-1,1.15,2.78,2.78,0,0,1-1.5.42,2.49,2.49,0,0,1-1.25-.31A2.27,2.27,0,0,1,84.7,51h0l0,.84V54.5h-1Zm4,5.1a2,2,0,0,0,.74-.81,2.57,2.57,0,0,0,.28-1.23,2.53,2.53,0,0,0-.28-1.22,2,2,0,0,0-.74-.82,1.87,1.87,0,0,0-2,0,2.11,2.11,0,0,0-.74.82,2.53,2.53,0,0,0-.28,1.22,2.57,2.57,0,0,0,.28,1.23,2.08,2.08,0,0,0,.74.81,1.87,1.87,0,0,0,2,0Z"/><path class="cls-8" d="M91.38,51.46a2.63,2.63,0,0,1-.58-1.82V45.79h1v3.7a1.75,1.75,0,0,0,.4,1.28,1.42,1.42,0,0,0,1.06.41,1.61,1.61,0,0,0,.92-.27,1.94,1.94,0,0,0,.63-.73,2.12,2.12,0,0,0,.22-.93V45.79h1v6.12h-1V51h0a2,2,0,0,1-.81.77,2.3,2.3,0,0,1-1.17.31A2.16,2.16,0,0,1,91.38,51.46Z"/><path class="cls-8" d="M99.3,52a1.49,1.49,0,0,1-.53-.33,1.69,1.69,0,0,1-.48-1.28V46.72H97.22v-.93h1.07V44.06h1v1.73h1.5v.93h-1.5v3.41a1.23,1.23,0,0,0,.19.76.81.81,0,0,0,.66.27,1.13,1.13,0,0,0,.67-.21v1l-.36.12a3.23,3.23,0,0,1-.48,0A1.92,1.92,0,0,1,99.3,52Z"/><path class="cls-8" d="M104.82,45.79h1v1h0a1.64,1.64,0,0,1,.69-.84,1.94,1.94,0,0,1,1.08-.34,1.75,1.75,0,0,1,.72.13v1.1a1.85,1.85,0,0,0-.86-.2,1.43,1.43,0,0,0-.82.26,1.75,1.75,0,0,0-.59.67,2,2,0,0,0-.22.93v3.42h-1Z"/><path class="cls-8" d="M110.11,51.68A2.81,2.81,0,0,1,109,50.53a3.75,3.75,0,0,1,0-3.29,3,3,0,0,1,1-1.2,2.82,2.82,0,0,1,1.56-.44,3,3,0,0,1,1.56.4,2.78,2.78,0,0,1,1,1.11,3.54,3.54,0,0,1,.35,1.62,1.67,1.67,0,0,1,0,.31h-4.85a2.38,2.38,0,0,0,.34,1.18,1.94,1.94,0,0,0,.76.72,2.07,2.07,0,0,0,1,.24,2,2,0,0,0,1.82-1.1l.86.42a3.09,3.09,0,0,1-1.07,1.17,3.24,3.24,0,0,1-3.21,0Zm3.33-3.48a1.81,1.81,0,0,0-.21-.76,1.62,1.62,0,0,0-.6-.65,1.84,1.84,0,0,0-1-.27,1.77,1.77,0,0,0-1.23.47,2.24,2.24,0,0,0-.66,1.21Z"/><path class="cls-8" d="M117,51.68a3,3,0,0,1-1.11-1.17,3.48,3.48,0,0,1-.39-1.66,3.57,3.57,0,0,1,.39-1.67A3,3,0,0,1,117,46a3,3,0,0,1,1.59-.42,2.91,2.91,0,0,1,1.68.46,2.54,2.54,0,0,1,1,1.23l-.92.39a1.74,1.74,0,0,0-.68-.86,1.9,1.9,0,0,0-1.08-.3,1.81,1.81,0,0,0-1,.3,2,2,0,0,0-.75.82,2.51,2.51,0,0,0-.28,1.21,2.49,2.49,0,0,0,.28,1.21,2,2,0,0,0,.75.83,1.89,1.89,0,0,0,1,.29,2,2,0,0,0,1.11-.3,1.85,1.85,0,0,0,.7-.85l.91.38a2.68,2.68,0,0,1-1,1.23,2.93,2.93,0,0,1-1.68.46A3,3,0,0,1,117,51.68Z"/><path class="cls-8" d="M123.42,51.68a2.81,2.81,0,0,1-1.09-1.15,3.55,3.55,0,0,1-.39-1.67,3.69,3.69,0,0,1,.36-1.62,3.06,3.06,0,0,1,1-1.2,2.81,2.81,0,0,1,1.55-.44,3,3,0,0,1,1.56.4,2.73,2.73,0,0,1,1,1.11,3.67,3.67,0,0,1,.35,1.62c0,.1,0,.2,0,.31H123a2.28,2.28,0,0,0,.34,1.18,1.94,1.94,0,0,0,.76.72,2,2,0,0,0,1,.24,2,2,0,0,0,1.82-1.1l.86.42a3.09,3.09,0,0,1-1.07,1.17,3,3,0,0,1-1.64.43A3,3,0,0,1,123.42,51.68Zm3.33-3.48a2.17,2.17,0,0,0-.21-.76,1.58,1.58,0,0,0-.61-.65,1.81,1.81,0,0,0-1-.27,1.72,1.72,0,0,0-1.22.47A2.12,2.12,0,0,0,123,48.2Z"/><path class="cls-8" d="M129.1,44.45a.73.73,0,0,1-.21-.52.7.7,0,0,1,.21-.52.73.73,0,0,1,.52-.21.72.72,0,0,1,.73.73.73.73,0,0,1-.21.52.71.71,0,0,1-.52.22A.74.74,0,0,1,129.1,44.45Zm0,1.34h1v6.12h-1Z"/><path class="cls-8" d="M131.06,45.79h1.09l1.9,4.92h0L136,45.79h1.07l-2.5,6.12h-1Z"/><path class="cls-8" d="M138.87,51.68a2.85,2.85,0,0,1-1.08-1.15,3.44,3.44,0,0,1-.4-1.67,3.7,3.7,0,0,1,.37-1.62,3,3,0,0,1,1-1.2,2.84,2.84,0,0,1,1.56-.44,3,3,0,0,1,1.56.4,2.64,2.64,0,0,1,1,1.11,3.54,3.54,0,0,1,.36,1.62,1.71,1.71,0,0,1,0,.31h-4.84a2.37,2.37,0,0,0,.33,1.18,2,2,0,0,0,.76.72,2.08,2.08,0,0,0,1,.24,2,2,0,0,0,1.81-1.1l.87.42a3.17,3.17,0,0,1-1.07,1.17,3.26,3.26,0,0,1-3.22,0Zm3.34-3.48a2,2,0,0,0-.22-.76,1.62,1.62,0,0,0-.6-.65,1.84,1.84,0,0,0-1-.27,1.77,1.77,0,0,0-1.23.47,2.24,2.24,0,0,0-.66,1.21Z"/><path class="cls-8" d="M145.64,51.68a2.93,2.93,0,0,1-1-1.15,3.88,3.88,0,0,1,0-3.35,3,3,0,0,1,1-1.16,2.78,2.78,0,0,1,1.5-.42,2.5,2.5,0,0,1,1.25.32,2.44,2.44,0,0,1,.84.78h0l0-.85V43.32h1v8.59h-1V51h0a2.44,2.44,0,0,1-.84.78,2.49,2.49,0,0,1-1.25.31A2.78,2.78,0,0,1,145.64,51.68Zm2.61-.79a2.08,2.08,0,0,0,.74-.81,2.57,2.57,0,0,0,.28-1.23,2.53,2.53,0,0,0-.28-1.22,2.11,2.11,0,0,0-.74-.82,1.87,1.87,0,0,0-2,0,2.13,2.13,0,0,0-.75.82,2.58,2.58,0,0,0-.28,1.22,2.55,2.55,0,0,0,.28,1.22,2.06,2.06,0,0,0,.75.82,1.87,1.87,0,0,0,2,0Z"/><path class="cls-8" d="M34.94,148.82h1v8.59h-1Z"/><path class="cls-8" d="M37.67,151.29h1v.9h0a2.08,2.08,0,0,1,.81-.77,2.24,2.24,0,0,1,1.17-.32,2.16,2.16,0,0,1,1.69.64,2.5,2.5,0,0,1,.58,1.75v3.92h-1v-3.77a1.57,1.57,0,0,0-.41-1.23A1.53,1.53,0,0,0,40.4,152a1.47,1.47,0,0,0-.89.28,1.84,1.84,0,0,0-.6.72,2.1,2.1,0,0,0-.22.95v3.44h-1Z"/><path class="cls-8" d="M44.36,151.29h1v.91h.05a2.16,2.16,0,0,1,.83-.78,2.4,2.4,0,0,1,1.25-.32,2.76,2.76,0,0,1,1.5.42,3,3,0,0,1,1,1.16A3.86,3.86,0,0,1,50,156a3,3,0,0,1-1,1.16,2.76,2.76,0,0,1-1.5.42,2.4,2.4,0,0,1-1.25-.32,2.22,2.22,0,0,1-.83-.77h-.05l.05.84V160h-1Zm4,5.1a2.06,2.06,0,0,0,.75-.82,2.89,2.89,0,0,0,0-2.44,2.06,2.06,0,0,0-.75-.82,1.87,1.87,0,0,0-1-.29,1.91,1.91,0,0,0-1,.29,2.11,2.11,0,0,0-.74.82,2.8,2.8,0,0,0,0,2.44,2.11,2.11,0,0,0,.74.82,1.91,1.91,0,0,0,1,.29A1.87,1.87,0,0,0,48.35,156.39Z"/><path class="cls-8" d="M52.05,157a2.64,2.64,0,0,1-.58-1.81v-3.85h1V155a1.8,1.8,0,0,0,.4,1.28,1.42,1.42,0,0,0,1.07.41,1.56,1.56,0,0,0,.92-.28,1.89,1.89,0,0,0,.62-.72,2,2,0,0,0,.22-.93v-3.46h1v6.12h-1v-.89h-.05a2.05,2.05,0,0,1-.8.77,2.34,2.34,0,0,1-1.18.31A2.14,2.14,0,0,1,52.05,157Z"/><path class="cls-8" d="M60,157.48a1.49,1.49,0,0,1-.53-.33,1.7,1.7,0,0,1-.48-1.28v-3.66H57.89v-.92H59v-1.73h1v1.73h1.5v.92H60v3.41a1.2,1.2,0,0,0,.19.76.81.81,0,0,0,.66.27,1.13,1.13,0,0,0,.67-.2v1a2.53,2.53,0,0,1-.36.12,3.14,3.14,0,0,1-.48,0A2,2,0,0,1,60,157.48Z"/><path class="cls-8" d="M66.6,157.18a2.81,2.81,0,0,1-1-1.16,3.77,3.77,0,0,1,0-3.34,2.88,2.88,0,0,1,1-1.16,2.72,2.72,0,0,1,1.49-.42,2.38,2.38,0,0,1,1.25.32,2.27,2.27,0,0,1,.84.78h0l0-.85v-2.53h1v8.59h-1v-.9h0a2.33,2.33,0,0,1-.84.77,2.38,2.38,0,0,1-1.25.32A2.72,2.72,0,0,1,66.6,157.18Zm2.6-.79a2.06,2.06,0,0,0,.75-.82,2.8,2.8,0,0,0,0-2.44,2.06,2.06,0,0,0-.75-.82,1.88,1.88,0,0,0-1-.29,1.93,1.93,0,0,0-1,.29,2.13,2.13,0,0,0-.75.82,2.8,2.8,0,0,0,0,2.44,2.13,2.13,0,0,0,.75.82,1.93,1.93,0,0,0,1,.29A1.88,1.88,0,0,0,69.2,156.39Z"/><path class="cls-8" d="M73.8,157.18A2.88,2.88,0,0,1,72.72,156a3.48,3.48,0,0,1-.39-1.66,3.69,3.69,0,0,1,.36-1.62,3.06,3.06,0,0,1,1-1.2,2.81,2.81,0,0,1,1.55-.44,2.92,2.92,0,0,1,1.56.4,2.73,2.73,0,0,1,1,1.11,3.64,3.64,0,0,1,.35,1.62c0,.1,0,.2,0,.31H73.35a2.37,2.37,0,0,0,.33,1.18,2,2,0,0,0,.77.72,2,2,0,0,0,1,.24,2,2,0,0,0,1.81-1.11l.87.42A3,3,0,0,1,77,157.16a2.92,2.92,0,0,1-1.64.44A3,3,0,0,1,73.8,157.18Zm3.34-3.48a2.09,2.09,0,0,0-.22-.77,1.53,1.53,0,0,0-.6-.64,1.81,1.81,0,0,0-1-.27,1.76,1.76,0,0,0-1.22.46,2.18,2.18,0,0,0-.66,1.22Z"/><path class="cls-8" d="M79.41,148.82h1v8.59h-1Z"/><path class="cls-8" d="M82.64,157.34a2,2,0,0,1-.82-.73,2,2,0,0,1-.29-1.05,1.81,1.81,0,0,1,.73-1.52,3,3,0,0,1,1.85-.54,4.22,4.22,0,0,1,1,.12,2.73,2.73,0,0,1,.72.27v-.37a1.4,1.4,0,0,0-.48-1.1,1.81,1.81,0,0,0-1.21-.41,2,2,0,0,0-.94.22,1.8,1.8,0,0,0-.69.62l-.77-.58a2.48,2.48,0,0,1,1-.86,3.09,3.09,0,0,1,1.4-.31,2.81,2.81,0,0,1,2,.65,2.32,2.32,0,0,1,.71,1.78v3.88h-1v-.88h0a2.18,2.18,0,0,1-.8.76,2.24,2.24,0,0,1-1.18.31A2.71,2.71,0,0,1,82.64,157.34Zm2.25-.9a2,2,0,0,0,.71-.71,1.83,1.83,0,0,0,.26-1,2.38,2.38,0,0,0-.7-.31,3.24,3.24,0,0,0-.89-.12,2,2,0,0,0-1.27.34,1.14,1.14,0,0,0-.42.9,1,1,0,0,0,.38.82,1.48,1.48,0,0,0,1,.31A1.87,1.87,0,0,0,84.89,156.44Z"/><path class="cls-8" d="M90,157l-2.53-5.74h1.11l1.92,4.55h0l1.85-4.55h1.1L89.69,160h-1Z"/><path class="cls-8" d="M146.63,148.82h2.9a2.87,2.87,0,0,1,1.33.32,2.6,2.6,0,0,1,1,.91,2.43,2.43,0,0,1,.36,1.31,2.47,2.47,0,0,1-.36,1.32,2.57,2.57,0,0,1-1,.9,2.76,2.76,0,0,1-1.33.33h-1.88v3.5h-1Zm2.92,4.11a1.61,1.61,0,0,0,.85-.22,1.78,1.78,0,0,0,.57-.59,1.53,1.53,0,0,0,0-1.51,1.69,1.69,0,0,0-.57-.59,1.61,1.61,0,0,0-.85-.23h-1.9v3.14Z"/><path class="cls-8" d="M153.34,151.29h1v1h.05a1.7,1.7,0,0,1,.7-.84,2,2,0,0,1,1.08-.33,1.75,1.75,0,0,1,.72.13v1.09a1.92,1.92,0,0,0-.87-.19,1.41,1.41,0,0,0-.81.25,1.88,1.88,0,0,0-.6.68,2.08,2.08,0,0,0-.22.92v3.43h-1Z"/><path class="cls-8" d="M158.68,157.17a3,3,0,0,1-1.12-1.18,3.56,3.56,0,0,1,0-3.28,3,3,0,0,1,1.12-1.18,3.27,3.27,0,0,1,3.24,0,3,3,0,0,1,1.12,1.18,3.49,3.49,0,0,1,0,3.28,3,3,0,0,1-1.12,1.18,3.27,3.27,0,0,1-3.24,0Zm2.67-.77a2,2,0,0,0,.78-.81,2.71,2.71,0,0,0,0-2.48,2,2,0,0,0-.78-.81,2.11,2.11,0,0,0-1-.28,2.09,2.09,0,0,0-1.84,1.09,2.8,2.8,0,0,0,0,2.48,2.1,2.1,0,0,0,2.89.81Z"/><path class="cls-8" d="M165.81,157.18a3,3,0,0,1-1.1-1.17,3.37,3.37,0,0,1-.4-1.66,3.44,3.44,0,0,1,.4-1.67,2.93,2.93,0,0,1,1.1-1.16,3.06,3.06,0,0,1,1.6-.42,2.88,2.88,0,0,1,1.67.46,2.61,2.61,0,0,1,1,1.23l-.93.38a1.76,1.76,0,0,0-.68-.85,1.9,1.9,0,0,0-1.08-.3,1.84,1.84,0,0,0-1,.3,2.13,2.13,0,0,0-.75.82,2.75,2.75,0,0,0,0,2.42,2.13,2.13,0,0,0,.75.82,1.84,1.84,0,0,0,1,.3,2,2,0,0,0,1.11-.3,1.78,1.78,0,0,0,.7-.85l.91.38a2.7,2.7,0,0,1-1,1.22,2.85,2.85,0,0,1-1.67.47A3.06,3.06,0,0,1,165.81,157.18Z"/><path class="cls-8" d="M172.28,157.18a2.84,2.84,0,0,1-1.09-1.16,3.48,3.48,0,0,1-.39-1.66,3.57,3.57,0,0,1,.37-1.62,3,3,0,0,1,1-1.2,2.82,2.82,0,0,1,1.56-.44,3,3,0,0,1,1.56.4,2.78,2.78,0,0,1,1,1.11,3.51,3.51,0,0,1,.35,1.62,1.67,1.67,0,0,1,0,.31h-4.85a2.38,2.38,0,0,0,.34,1.18,1.94,1.94,0,0,0,.76.72,2.07,2.07,0,0,0,1,.24,2,2,0,0,0,1.82-1.11l.86.42a3,3,0,0,1-1.07,1.17,2.89,2.89,0,0,1-1.64.44A3,3,0,0,1,172.28,157.18Zm3.33-3.48a1.9,1.9,0,0,0-.21-.77,1.66,1.66,0,0,0-.6-.64,1.84,1.84,0,0,0-1-.27,1.8,1.8,0,0,0-1.23.46,2.31,2.31,0,0,0-.66,1.22Z"/><path class="cls-8" d="M178.43,157.14a2.49,2.49,0,0,1-.93-1.18l.91-.41a1.81,1.81,0,0,0,.68.85,1.75,1.75,0,0,0,1,.3,2,2,0,0,0,1-.23.75.75,0,0,0,.41-.67.75.75,0,0,0-.32-.62,3.16,3.16,0,0,0-1-.4l-.75-.19a2.63,2.63,0,0,1-1.2-.61,1.54,1.54,0,0,1-.15-2,2.09,2.09,0,0,1,.85-.62,3,3,0,0,1,1.14-.21,2.83,2.83,0,0,1,1.43.35,2,2,0,0,1,.9,1l-.89.41A1.48,1.48,0,0,0,180,152a1.73,1.73,0,0,0-.89.23.7.7,0,0,0-.37.6.65.65,0,0,0,.26.54,2.16,2.16,0,0,0,.79.35l.89.22a3,3,0,0,1,1.36.68,1.5,1.5,0,0,1,.45,1.1,1.61,1.61,0,0,1-.32,1,2.09,2.09,0,0,1-.88.65,3,3,0,0,1-1.22.23A2.79,2.79,0,0,1,178.43,157.14Z"/><path class="cls-8" d="M184.11,157.14a2.57,2.57,0,0,1-.94-1.18l.92-.41a1.79,1.79,0,0,0,.67.85,1.75,1.75,0,0,0,1,.3,2,2,0,0,0,1-.23.75.75,0,0,0,.08-1.29,3,3,0,0,0-1-.4l-.74-.19a2.63,2.63,0,0,1-1.2-.61,1.54,1.54,0,0,1-.15-2,2.05,2.05,0,0,1,.84-.62,3.12,3.12,0,0,1,1.14-.21,2.85,2.85,0,0,1,1.44.35,1.91,1.91,0,0,1,.89,1l-.89.41a1.47,1.47,0,0,0-1.45-.82,1.7,1.7,0,0,0-.88.23.71.71,0,0,0-.38.6.65.65,0,0,0,.27.54,2.09,2.09,0,0,0,.79.35l.89.22a3,3,0,0,1,1.35.68,1.47,1.47,0,0,1,.46,1.1,1.55,1.55,0,0,1-.33,1,2.06,2.06,0,0,1-.87.65,3.06,3.06,0,0,1-1.23.23A2.78,2.78,0,0,1,184.11,157.14Z"/><path class="cls-8" d="M189.32,150a.7.7,0,0,1-.22-.52.67.67,0,0,1,.22-.52.69.69,0,0,1,.51-.21.72.72,0,0,1,.53.21.7.7,0,0,1,.21.52.73.73,0,0,1-.21.52.72.72,0,0,1-.53.21A.69.69,0,0,1,189.32,150Zm0,1.34h1v6.12h-1Z"/><path class="cls-8" d="M192,151.29h1v.9H193a2,2,0,0,1,.8-.77,2.25,2.25,0,0,1,1.18-.32,2.15,2.15,0,0,1,1.68.64,2.5,2.5,0,0,1,.58,1.75v3.92h-1v-3.77a1.61,1.61,0,0,0-.4-1.23,1.57,1.57,0,0,0-1.12-.39,1.44,1.44,0,0,0-.88.28,1.87,1.87,0,0,0-.61.72,2.23,2.23,0,0,0-.21.95v3.44h-1Z"/><path class="cls-8" d="M199.52,159.69a2.53,2.53,0,0,1-.94-1.21l.94-.4a1.81,1.81,0,0,0,.66.86,1.93,1.93,0,0,0,1.13.33,2,2,0,0,0,1.47-.53,2.09,2.09,0,0,0,.52-1.51v-.68h-.05a2.25,2.25,0,0,1-.85.76,2.61,2.61,0,0,1-1.24.29,2.72,2.72,0,0,1-1.45-.41,3,3,0,0,1-1-1.15,3.84,3.84,0,0,1,0-3.37,2.91,2.91,0,0,1,1-1.16,2.72,2.72,0,0,1,1.45-.41,2.61,2.61,0,0,1,1.24.29,2.22,2.22,0,0,1,.85.78h.05v-.88h1v5.88a2.75,2.75,0,0,1-3,3A3,3,0,0,1,199.52,159.69Zm2.79-3.29a2,2,0,0,0,.72-.81,2.67,2.67,0,0,0,.27-1.24,2.73,2.73,0,0,0-.27-1.26,2,2,0,0,0-.72-.79,1.84,1.84,0,0,0-1-.28,1.94,1.94,0,0,0-1,.28,2,2,0,0,0-.73.81,2.67,2.67,0,0,0-.27,1.24,2.71,2.71,0,0,0,.27,1.25,1.89,1.89,0,0,0,.73.8,1.94,1.94,0,0,0,2,0Z"/><path class="cls-8" d="M210.23,157.48a1.54,1.54,0,0,1-.54-.33,1.7,1.7,0,0,1-.48-1.28v-3.66h-1.07v-.92h1.07v-1.73h1v1.73h1.5v.92h-1.5v3.41a1.26,1.26,0,0,0,.19.76.85.85,0,0,0,.67.27,1.15,1.15,0,0,0,.67-.2v1a2.65,2.65,0,0,1-.37.12,3,3,0,0,1-.47,0A1.92,1.92,0,0,1,210.23,157.48Z"/><path class="cls-8" d="M213.1,150a.74.74,0,0,1-.22-.52.71.71,0,0,1,.22-.52.73.73,0,0,1,.52-.21.72.72,0,0,1,.52.21.7.7,0,0,1,.21.52.73.73,0,0,1-.21.52.72.72,0,0,1-.52.21A.73.73,0,0,1,213.1,150Zm0,1.34h1v6.12h-1Z"/><path class="cls-8" d="M215.73,151.29h1v.9h.05a2.26,2.26,0,0,1,1.91-1.09,2.18,2.18,0,0,1,1.17.32,1.83,1.83,0,0,1,.71.87,2.56,2.56,0,0,1,.86-.87,2.41,2.41,0,0,1,1.24-.32,1.94,1.94,0,0,1,1.59.64,2.63,2.63,0,0,1,.53,1.75v3.92h-1v-3.77a1.79,1.79,0,0,0-.35-1.23,1.31,1.31,0,0,0-1-.39,1.37,1.37,0,0,0-.83.27,1.74,1.74,0,0,0-.58.7,2.24,2.24,0,0,0-.21,1v3.46h-1v-3.76a1.82,1.82,0,0,0-.35-1.24,1.29,1.29,0,0,0-1-.39,1.37,1.37,0,0,0-.83.27,1.8,1.8,0,0,0-.58.72,2.25,2.25,0,0,0-.21,1v3.43h-1Z"/><path class="cls-8" d="M227.39,157.18a2.88,2.88,0,0,1-1.08-1.16,3.48,3.48,0,0,1-.39-1.66,3.69,3.69,0,0,1,.36-1.62,3,3,0,0,1,1.05-1.2,2.81,2.81,0,0,1,1.55-.44,2.92,2.92,0,0,1,1.56.4,2.64,2.64,0,0,1,1,1.11,3.51,3.51,0,0,1,.36,1.62,1.71,1.71,0,0,1,0,.31h-4.84a2.37,2.37,0,0,0,.33,1.18,2,2,0,0,0,.76.72,2.08,2.08,0,0,0,1,.24,2,2,0,0,0,1.81-1.11l.87.42a3.1,3.1,0,0,1-1.07,1.17,3,3,0,0,1-1.65.44A3,3,0,0,1,227.39,157.18Zm3.34-3.48a2.09,2.09,0,0,0-.22-.77,1.66,1.66,0,0,0-.6-.64,1.81,1.81,0,0,0-1-.27,1.76,1.76,0,0,0-1.22.46,2.18,2.18,0,0,0-.66,1.22Z"/><line class="cls-2" x1="34.94" y1="126.88" x2="34.94" y2="126.38"/><line class="cls-10" x1="34.94" y1="120.66" x2="34.94" y2="70.19"/><line class="cls-2" x1="34.94" y1="67.33" x2="34.94" y2="66.83"/><path class="cls-11" d="M49.75,78.11a.75.75,0,0,1-.66-.39l-7-12.83-6.59,6.38a.73.73,0,0,1-.52.21.79.79,0,0,1-.3,0,.76.76,0,0,1-.45-.7V35.18a.76.76,0,0,1,.45-.69.8.8,0,0,1,.3-.06.73.73,0,0,1,.52.21l25.85,25a.78.78,0,0,1,.18.83.75.75,0,0,1-.7.46H51L57.69,73a.78.78,0,0,1,.07.58.75.75,0,0,1-.36.44l-7.29,4A.8.8,0,0,1,49.75,78.11Z"/><path class="cls-1" d="M34.94,35.18l25.85,25h-11L57,73.39l-7.29,4L42.24,63.67l-7.3,7.07V35.18m0-1.5a1.52,1.52,0,0,0-.59.12,1.5,1.5,0,0,0-.91,1.38V70.74A1.49,1.49,0,0,0,36,71.81l5.89-5.7,6.56,12a1.51,1.51,0,0,0,1.32.78,1.57,1.57,0,0,0,.72-.18l7.28-4a1.48,1.48,0,0,0,.6-2l-6.07-11h8.51a1.5,1.5,0,0,0,1-2.58L36,34.1a1.48,1.48,0,0,0-1-.42Z"/><path class="cls-8" d="M717.18,148.82h2.9a2.75,2.75,0,0,1,1.33.32,2.6,2.6,0,0,1,1,.91,2.43,2.43,0,0,1,.36,1.31,2.41,2.41,0,0,1-.36,1.31,2.52,2.52,0,0,1-1,.91,2.76,2.76,0,0,1-1.33.33H718.2v3.5h-1Zm2.92,4.11a1.61,1.61,0,0,0,.85-.22,1.78,1.78,0,0,0,.57-.59,1.57,1.57,0,0,0,.2-.76,1.6,1.6,0,0,0-.2-.76A1.75,1.75,0,0,0,721,150a1.61,1.61,0,0,0-.85-.23h-1.9v3.14Z"/><path class="cls-8" d="M723.89,151.29h1v1h0a1.7,1.7,0,0,1,.7-.84,2,2,0,0,1,1.08-.33,1.75,1.75,0,0,1,.72.13v1.09a1.92,1.92,0,0,0-.87-.19,1.41,1.41,0,0,0-.81.25,1.88,1.88,0,0,0-.6.68,2.08,2.08,0,0,0-.22.92v3.43h-1Z"/><path class="cls-8" d="M729.23,157.17a3,3,0,0,1-1.12-1.18,3.56,3.56,0,0,1,0-3.28,3,3,0,0,1,1.12-1.18,3.27,3.27,0,0,1,3.24,0,3,3,0,0,1,1.12,1.18,3.49,3.49,0,0,1,0,3.28,3,3,0,0,1-1.12,1.18,3.27,3.27,0,0,1-3.24,0Zm2.67-.78a1.94,1.94,0,0,0,.78-.8,2.5,2.5,0,0,0,.3-1.24,2.47,2.47,0,0,0-.3-1.24,2,2,0,0,0-.78-.81,2.11,2.11,0,0,0-1-.28,2.09,2.09,0,0,0-1.84,1.09,2.47,2.47,0,0,0-.29,1.24,2.5,2.5,0,0,0,.29,1.24,2,2,0,0,0,.79.8,2.05,2.05,0,0,0,1.05.29A2,2,0,0,0,731.9,156.39Z"/><path class="cls-8" d="M736.36,157.17a2.93,2.93,0,0,1-1.1-1.16,3.4,3.4,0,0,1-.4-1.66,3.44,3.44,0,0,1,.4-1.67,2.86,2.86,0,0,1,1.1-1.16,3.06,3.06,0,0,1,1.6-.42,2.88,2.88,0,0,1,1.67.46,2.61,2.61,0,0,1,1,1.23l-.93.38a1.84,1.84,0,0,0-.68-.86,2,2,0,0,0-1.08-.29,1.91,1.91,0,0,0-1,.29,2.23,2.23,0,0,0-.75.83,2.49,2.49,0,0,0-.28,1.21,2.51,2.51,0,0,0,.28,1.21,2.13,2.13,0,0,0,.75.82,1.84,1.84,0,0,0,1,.3,2,2,0,0,0,1.11-.3,1.78,1.78,0,0,0,.7-.85l.91.38a2.7,2.7,0,0,1-1,1.22,2.85,2.85,0,0,1-1.67.47A3,3,0,0,1,736.36,157.17Z"/><path class="cls-8" d="M742.83,157.18a2.9,2.9,0,0,1-1.09-1.16,3.48,3.48,0,0,1-.39-1.66,3.57,3.57,0,0,1,.37-1.62,3,3,0,0,1,1-1.2,2.82,2.82,0,0,1,1.56-.44,3,3,0,0,1,1.56.4,2.78,2.78,0,0,1,1,1.11,3.51,3.51,0,0,1,.35,1.62,1.67,1.67,0,0,1,0,.31h-4.85a2.41,2.41,0,0,0,.34,1.18,1.94,1.94,0,0,0,.76.72,2.07,2.07,0,0,0,1,.24,2,2,0,0,0,1.82-1.11l.86.42a3,3,0,0,1-1.07,1.17,2.89,2.89,0,0,1-1.64.44A3,3,0,0,1,742.83,157.18Zm3.33-3.48a1.9,1.9,0,0,0-.21-.77,1.66,1.66,0,0,0-.6-.64,1.84,1.84,0,0,0-1-.27,1.76,1.76,0,0,0-1.23.46,2.31,2.31,0,0,0-.66,1.22Z"/><path class="cls-8" d="M749,157.14a2.49,2.49,0,0,1-.93-1.18l.91-.41a1.81,1.81,0,0,0,.68.85,1.75,1.75,0,0,0,1,.3,2,2,0,0,0,1-.23.76.76,0,0,0,.09-1.29,3.16,3.16,0,0,0-1-.4l-.75-.19a2.73,2.73,0,0,1-1.2-.61,1.54,1.54,0,0,1-.15-2,2.09,2.09,0,0,1,.85-.62,3,3,0,0,1,1.14-.21,2.83,2.83,0,0,1,1.43.35,2,2,0,0,1,.9,1l-.89.41a1.48,1.48,0,0,0-1.45-.82,1.73,1.73,0,0,0-.89.23.7.7,0,0,0-.37.6.65.65,0,0,0,.26.54,2,2,0,0,0,.79.34l.89.23a3,3,0,0,1,1.36.68,1.5,1.5,0,0,1,.45,1.1,1.61,1.61,0,0,1-.32,1,2.09,2.09,0,0,1-.88.65,3.19,3.19,0,0,1-1.22.23A2.79,2.79,0,0,1,749,157.14Z"/><path class="cls-8" d="M754.66,157.14a2.57,2.57,0,0,1-.94-1.18l.91-.41a1.87,1.87,0,0,0,.68.85,1.75,1.75,0,0,0,1,.3,2,2,0,0,0,1-.23.75.75,0,0,0,.41-.67.73.73,0,0,0-.33-.62,3,3,0,0,0-1-.4l-.74-.19a2.73,2.73,0,0,1-1.2-.61,1.43,1.43,0,0,1-.47-1.12,1.48,1.48,0,0,1,.32-.93,2.05,2.05,0,0,1,.84-.62,3.12,3.12,0,0,1,1.14-.21,2.85,2.85,0,0,1,1.44.35,1.91,1.91,0,0,1,.89,1l-.89.41a1.47,1.47,0,0,0-1.45-.82,1.7,1.7,0,0,0-.88.23.71.71,0,0,0-.38.6.65.65,0,0,0,.27.54,1.89,1.89,0,0,0,.79.34l.89.23a3,3,0,0,1,1.35.68,1.47,1.47,0,0,1,.46,1.1,1.55,1.55,0,0,1-.33,1,2.06,2.06,0,0,1-.87.65,3.25,3.25,0,0,1-1.23.23A2.78,2.78,0,0,1,754.66,157.14Z"/><path class="cls-8" d="M759.87,150a.7.7,0,0,1-.22-.52.67.67,0,0,1,.22-.52.69.69,0,0,1,.51-.21.72.72,0,0,1,.53.21.7.7,0,0,1,.21.52.73.73,0,0,1-.21.52.72.72,0,0,1-.53.21A.69.69,0,0,1,759.87,150Zm0,1.34h1v6.12h-1Z"/><path class="cls-8" d="M762.5,151.29h1v.9h0a1.92,1.92,0,0,1,.8-.77,2.25,2.25,0,0,1,1.18-.32,2.15,2.15,0,0,1,1.68.64,2.5,2.5,0,0,1,.58,1.75v3.92h-1v-3.77a1.61,1.61,0,0,0-.4-1.23,1.57,1.57,0,0,0-1.12-.39,1.44,1.44,0,0,0-.88.28,1.87,1.87,0,0,0-.61.72,2.22,2.22,0,0,0-.21.94v3.45h-1Z"/><path class="cls-8" d="M770.07,159.69a2.53,2.53,0,0,1-.94-1.21l.94-.4a1.81,1.81,0,0,0,.66.86,1.93,1.93,0,0,0,1.13.33,2,2,0,0,0,1.47-.53,2.09,2.09,0,0,0,.52-1.51v-.69h-.05a2.2,2.2,0,0,1-.85.77,2.64,2.64,0,0,1-1.24.29,2.72,2.72,0,0,1-1.45-.41,3,3,0,0,1-1-1.15,3.84,3.84,0,0,1,0-3.37,2.91,2.91,0,0,1,1-1.16,2.78,2.78,0,0,1,2.69-.12,2.14,2.14,0,0,1,.85.78h.05v-.88h1v5.88a3,3,0,0,1-.82,2.25,3,3,0,0,1-2.14.77A3,3,0,0,1,770.07,159.69Zm2.79-3.29a2,2,0,0,0,.72-.81,2.67,2.67,0,0,0,.27-1.24,2.73,2.73,0,0,0-.27-1.26,2,2,0,0,0-.72-.8,1.92,1.92,0,0,0-1-.27,1.85,1.85,0,0,0-1,.28,2,2,0,0,0-.73.81,2.67,2.67,0,0,0-.27,1.24,2.71,2.71,0,0,0,.27,1.25,1.89,1.89,0,0,0,.73.8,1.85,1.85,0,0,0,1,.28A1.93,1.93,0,0,0,772.86,156.4Z"/><path class="cls-8" d="M780.78,157.48a1.54,1.54,0,0,1-.54-.33,1.7,1.7,0,0,1-.48-1.28v-3.66h-1.07v-.92h1.07v-1.73h1v1.73h1.5v.92h-1.5v3.41a1.26,1.26,0,0,0,.19.76.84.84,0,0,0,.66.27,1.16,1.16,0,0,0,.68-.2v1a1.73,1.73,0,0,1-.37.11,2.05,2.05,0,0,1-.47,0A1.92,1.92,0,0,1,780.78,157.48Z"/><path class="cls-8" d="M783.65,150a.74.74,0,0,1-.22-.52.71.71,0,0,1,.22-.52.73.73,0,0,1,.52-.21.72.72,0,0,1,.52.21.7.7,0,0,1,.21.52.73.73,0,0,1-.21.52.72.72,0,0,1-.52.21A.73.73,0,0,1,783.65,150Zm0,1.34h1v6.12h-1Z"/><path class="cls-8" d="M786.28,151.29h1v.9h0a2.26,2.26,0,0,1,1.91-1.09,2.18,2.18,0,0,1,1.17.32,1.78,1.78,0,0,1,.71.87,2.47,2.47,0,0,1,.86-.87,2.38,2.38,0,0,1,1.24-.32,2,2,0,0,1,1.59.64,2.63,2.63,0,0,1,.53,1.75v3.92h-1v-3.77a1.79,1.79,0,0,0-.35-1.23,1.31,1.31,0,0,0-1-.39,1.37,1.37,0,0,0-.83.27,1.74,1.74,0,0,0-.58.7,2.24,2.24,0,0,0-.21,1v3.46h-1v-3.76a1.82,1.82,0,0,0-.35-1.24,1.29,1.29,0,0,0-1-.39,1.37,1.37,0,0,0-.83.27,1.8,1.8,0,0,0-.58.72,2.25,2.25,0,0,0-.21,1v3.43h-1Z"/><path class="cls-8" d="M797.94,157.18a3,3,0,0,1-1.08-1.16,3.48,3.48,0,0,1-.39-1.66,3.69,3.69,0,0,1,.36-1.62,3,3,0,0,1,1-1.2,2.81,2.81,0,0,1,1.55-.44,2.92,2.92,0,0,1,1.56.4,2.64,2.64,0,0,1,1,1.11,3.51,3.51,0,0,1,.36,1.62,1.71,1.71,0,0,1,0,.31h-4.84a2.4,2.4,0,0,0,.33,1.18,2,2,0,0,0,.76.72,2.08,2.08,0,0,0,1,.24,2,2,0,0,0,1.81-1.11l.87.42a3.1,3.1,0,0,1-1.07,1.17,3,3,0,0,1-1.65.44A3,3,0,0,1,797.94,157.18Zm3.34-3.48a2.09,2.09,0,0,0-.22-.77,1.66,1.66,0,0,0-.6-.64,1.81,1.81,0,0,0-1-.27,1.72,1.72,0,0,0-1.22.46,2.18,2.18,0,0,0-.66,1.22Z"/><path class="cls-2" d="M530.3,222.65s-.88,9.28,8.39,9.28H818.55c9.27,0,8.39,9.27,8.39,9.27s-.88-9.27,8.39-9.27h279.86c9.27,0,8.39-9.28,8.39-9.28"/><path class="cls-8" d="M716.22,244.59h1v7.62H721v1h-4.77Z"/><path class="cls-8" d="M723.18,252.94a2.93,2.93,0,0,1-1.12-1.17,3.42,3.42,0,0,1-.41-1.65,3.38,3.38,0,0,1,.41-1.64,3,3,0,0,1,1.12-1.18,3.27,3.27,0,0,1,3.24,0,3,3,0,0,1,1.12,1.18,3.37,3.37,0,0,1,.4,1.64,3.41,3.41,0,0,1-.4,1.65,3,3,0,0,1-1.12,1.17,3.2,3.2,0,0,1-3.24,0Zm2.67-.77a2.17,2.17,0,0,0,.78-.81,2.77,2.77,0,0,0,0-2.47,2.17,2.17,0,0,0-.78-.81,2.06,2.06,0,0,0-2.11,0,2,2,0,0,0-.78.81,2.69,2.69,0,0,0,0,2.47,2,2,0,0,0,.78.81,2.13,2.13,0,0,0,2.11,0Z"/><path class="cls-8" d="M729,247.06h1v.9h0a2.12,2.12,0,0,1,.8-.77,2.35,2.35,0,0,1,1.18-.32,2.19,2.19,0,0,1,1.69.64,2.55,2.55,0,0,1,.58,1.75v3.92h-1v-3.76a1.65,1.65,0,0,0-.41-1.24,1.67,1.67,0,0,0-2-.11,1.86,1.86,0,0,0-.6.73,2.06,2.06,0,0,0-.22.94v3.44h-1Z"/><path class="cls-8" d="M736.59,255.46a2.45,2.45,0,0,1-1-1.21l.94-.39a1.74,1.74,0,0,0,.67.85,1.9,1.9,0,0,0,1.12.33,2,2,0,0,0,1.47-.53,2,2,0,0,0,.52-1.51v-.68h-.05a2.21,2.21,0,0,1-.84.76,2.57,2.57,0,0,1-1.25.3,2.61,2.61,0,0,1-1.44-.42,2.9,2.9,0,0,1-1-1.15,3.93,3.93,0,0,1,0-3.37,3,3,0,0,1,1-1.16,2.68,2.68,0,0,1,1.44-.41,2.57,2.57,0,0,1,1.25.3,2.16,2.16,0,0,1,.84.77h.05v-.88h1v5.88a3,3,0,0,1-.81,2.25,3,3,0,0,1-2.15.78A2.93,2.93,0,0,1,736.59,255.46Zm2.78-3.29a2,2,0,0,0,.72-.8,3,3,0,0,0,0-2.5,1.94,1.94,0,0,0-.72-.8,1.91,1.91,0,0,0-1-.28,1.89,1.89,0,0,0-1,.29,2,2,0,0,0-.73.8,2.8,2.8,0,0,0-.26,1.24,2.84,2.84,0,0,0,.26,1.25,2,2,0,0,0,.73.81,2,2,0,0,0,1,.27A1.82,1.82,0,0,0,739.37,252.17Z"/><path class="cls-8" d="M743.94,253a2.9,2.9,0,0,1-1.09-1.16,3.51,3.51,0,0,1-.39-1.66,3.58,3.58,0,0,1,.37-1.63,2.87,2.87,0,0,1,1-1.19,2.75,2.75,0,0,1,1.56-.45,3,3,0,0,1,1.56.4,2.78,2.78,0,0,1,1,1.11,3.57,3.57,0,0,1,.35,1.62,1.83,1.83,0,0,1,0,.32h-4.85a2.48,2.48,0,0,0,.34,1.17,1.94,1.94,0,0,0,.76.72,2.08,2.08,0,0,0,1,.24,2,2,0,0,0,1.81-1.1l.86.42a3,3,0,0,1-1.07,1.17,3.21,3.21,0,0,1-3.21,0Zm3.33-3.48a1.81,1.81,0,0,0-.21-.77,1.69,1.69,0,0,0-.6-.65,1.84,1.84,0,0,0-1-.27,1.77,1.77,0,0,0-1.23.47,2.27,2.27,0,0,0-.66,1.22Z"/><path class="cls-8" d="M750.09,252.91a2.44,2.44,0,0,1-.93-1.18l.91-.41a1.84,1.84,0,0,0,.68.86,1.75,1.75,0,0,0,1,.3,1.9,1.9,0,0,0,1-.24.73.73,0,0,0,.41-.66.71.71,0,0,0-.33-.62,2.8,2.8,0,0,0-1-.4l-.75-.2a2.63,2.63,0,0,1-1.2-.61,1.46,1.46,0,0,1-.47-1.11,1.44,1.44,0,0,1,.32-.93,1.94,1.94,0,0,1,.85-.62,2.86,2.86,0,0,1,1.14-.22,2.94,2.94,0,0,1,1.43.35,2,2,0,0,1,.9,1l-.89.41a1.5,1.5,0,0,0-1.45-.82,1.65,1.65,0,0,0-.89.24.68.68,0,0,0-.38.59.66.66,0,0,0,.27.55,2.09,2.09,0,0,0,.79.34l.89.23a2.94,2.94,0,0,1,1.36.68,1.48,1.48,0,0,1,.45,1.09,1.61,1.61,0,0,1-.32,1,2,2,0,0,1-.88.66,3.23,3.23,0,0,1-1.22.23A2.8,2.8,0,0,1,750.09,252.91Z"/><path class="cls-8" d="M756.88,253.25a1.63,1.63,0,0,1-.54-.33,1.68,1.68,0,0,1-.47-1.28V248H754.8v-.93h1.07v-1.72h1v1.72h1.5V248h-1.5v3.41a1.23,1.23,0,0,0,.2.76.81.81,0,0,0,.66.27,1.16,1.16,0,0,0,.67-.21v1a1.23,1.23,0,0,1-.37.12,2.84,2.84,0,0,1-.47,0A1.73,1.73,0,0,1,756.88,253.25Z"/><path class="cls-8" d="M763.55,253a2.9,2.9,0,0,1-1.09-1.16,3.51,3.51,0,0,1-.39-1.66,3.71,3.71,0,0,1,.36-1.63,3,3,0,0,1,1.05-1.19,2.74,2.74,0,0,1,1.55-.45,3,3,0,0,1,1.56.4,2.73,2.73,0,0,1,1,1.11A3.7,3.7,0,0,1,768,250c0,.1,0,.2,0,.32h-4.85a2.37,2.37,0,0,0,.33,1.17,2,2,0,0,0,1.73,1,2,2,0,0,0,1.81-1.1l.87.42a2.93,2.93,0,0,1-2.71,1.61A3,3,0,0,1,763.55,253Zm3.33-3.48a2.16,2.16,0,0,0-.21-.77,1.64,1.64,0,0,0-.61-.65,1.81,1.81,0,0,0-1-.27,1.72,1.72,0,0,0-1.22.47,2.15,2.15,0,0,0-.66,1.22Z"/><path class="cls-8" d="M768.36,247.06h1.09l1.89,4.92h0l1.92-4.92h1.07l-2.5,6.12h-1Z"/><path class="cls-8" d="M776.17,253a3,3,0,0,1-1.09-1.16,3.51,3.51,0,0,1-.39-1.66,3.58,3.58,0,0,1,.37-1.63,2.87,2.87,0,0,1,1-1.19,2.75,2.75,0,0,1,1.56-.45,3,3,0,0,1,1.56.4,2.64,2.64,0,0,1,1,1.11,3.57,3.57,0,0,1,.36,1.62,1.91,1.91,0,0,1,0,.32h-4.85a2.48,2.48,0,0,0,.34,1.17,1.94,1.94,0,0,0,.76.72,2.08,2.08,0,0,0,1,.24,2,2,0,0,0,1.81-1.1l.86.42a2.93,2.93,0,0,1-2.71,1.61A3,3,0,0,1,776.17,253Zm3.34-3.48a2,2,0,0,0-.22-.77,1.69,1.69,0,0,0-.6-.65,1.84,1.84,0,0,0-1-.27,1.77,1.77,0,0,0-1.23.47,2.27,2.27,0,0,0-.66,1.22Z"/><path class="cls-8" d="M781.77,247.06h1v.9h0a2.08,2.08,0,0,1,.81-.77,2.31,2.31,0,0,1,1.17-.32,2.19,2.19,0,0,1,1.69.64,2.5,2.5,0,0,1,.58,1.75v3.92h-1v-3.76a1.65,1.65,0,0,0-.41-1.24,1.67,1.67,0,0,0-2-.11,1.86,1.86,0,0,0-.6.73,2.06,2.06,0,0,0-.22.94v3.44h-1Z"/><path class="cls-8" d="M789.87,253.25a1.54,1.54,0,0,1-.54-.33,1.69,1.69,0,0,1-.48-1.28V248h-1.07v-.93h1.07v-1.72h1v1.72h1.5V248h-1.5v3.41a1.31,1.31,0,0,0,.19.76.84.84,0,0,0,.66.27,1.16,1.16,0,0,0,.68-.21v1a1.33,1.33,0,0,1-.37.12,2.84,2.84,0,0,1-.47,0A1.73,1.73,0,0,1,789.87,253.25Z"/><path class="cls-8" d="M796.49,253a3,3,0,0,1-1-1.16,3.86,3.86,0,0,1,0-3.34,3,3,0,0,1,1-1.17,2.72,2.72,0,0,1,1.49-.42,2.47,2.47,0,0,1,1.25.32,2.21,2.21,0,0,1,.84.79h0l0-.86v-2.53h1v8.59h-1v-.9h0a2.27,2.27,0,0,1-.84.78,2.47,2.47,0,0,1-1.25.32A2.72,2.72,0,0,1,796.49,253Zm2.6-.8a2.1,2.1,0,0,0,.75-.81,2.82,2.82,0,0,0,0-2.45,2.2,2.2,0,0,0-.75-.82,1.85,1.85,0,0,0-2,0,2,2,0,0,0-.75.83,2.69,2.69,0,0,0,0,2.43,1.93,1.93,0,0,0,.75.82,1.85,1.85,0,0,0,2,0Z"/><path class="cls-8" d="M803.14,252.73a2.63,2.63,0,0,1-.58-1.81v-3.86h1v3.7A1.8,1.8,0,0,0,804,252a1.4,1.4,0,0,0,1.07.41,1.63,1.63,0,0,0,.92-.27,2,2,0,0,0,.62-.72,2.06,2.06,0,0,0,.22-.94v-3.46h1v6.12h-1v-.89h-.05a1.87,1.87,0,0,1-.8.77,2.35,2.35,0,0,1-1.18.32A2.15,2.15,0,0,1,803.14,252.73Z"/><path class="cls-8" d="M809.34,247.06h1v1h.05a1.64,1.64,0,0,1,.69-.84,1.95,1.95,0,0,1,1.8-.21v1.1a1.85,1.85,0,0,0-.86-.2,1.43,1.43,0,0,0-.82.26,1.71,1.71,0,0,0-.59.68,1.92,1.92,0,0,0-.22.92v3.42h-1Z"/><path class="cls-8" d="M814.35,253.11a2,2,0,0,1-.81-.72,1.89,1.89,0,0,1-.29-1,1.78,1.78,0,0,1,.73-1.52,3,3,0,0,1,1.85-.55,4.08,4.08,0,0,1,1,.12,2.47,2.47,0,0,1,.73.28v-.38a1.36,1.36,0,0,0-.48-1.09,1.76,1.76,0,0,0-1.21-.42,2.13,2.13,0,0,0-.94.22,1.67,1.67,0,0,0-.69.62l-.77-.57a2.47,2.47,0,0,1,1-.87,3.31,3.31,0,0,1,1.41-.31,2.74,2.74,0,0,1,2,.66,2.27,2.27,0,0,1,.71,1.78v3.87h-1v-.87h-.05a2.12,2.12,0,0,1-.79.75,2.28,2.28,0,0,1-1.19.32A2.59,2.59,0,0,1,814.35,253.11Zm2.26-.9a2,2,0,0,0,.71-.71,1.9,1.9,0,0,0,.26-1,2.45,2.45,0,0,0-.71-.31,3.19,3.19,0,0,0-.89-.12,2,2,0,0,0-1.26.35,1.09,1.09,0,0,0-.43.9,1,1,0,0,0,.39.81,1.47,1.47,0,0,0,1,.32A1.84,1.84,0,0,0,816.61,252.21Z"/><path class="cls-8" d="M821.51,253.25a1.49,1.49,0,0,1-.53-.33,1.69,1.69,0,0,1-.48-1.28V248h-1.07v-.93h1.07v-1.72h1v1.72H823V248h-1.5v3.41a1.23,1.23,0,0,0,.19.76.81.81,0,0,0,.66.27,1.13,1.13,0,0,0,.67-.21v1a1.23,1.23,0,0,1-.37.12,2.84,2.84,0,0,1-.47,0A1.73,1.73,0,0,1,821.51,253.25Z"/><path class="cls-8" d="M824.38,245.72a.75.75,0,0,1,0-1,.73.73,0,0,1,.52-.21.7.7,0,0,1,.52.21.75.75,0,0,1,0,1,.71.71,0,0,1-.52.22A.74.74,0,0,1,824.38,245.72Zm0,1.34h1v6.12h-1Z"/><path class="cls-8" d="M828.15,252.94a3,3,0,0,1-1.12-1.17,3.41,3.41,0,0,1-.4-1.65,3.37,3.37,0,0,1,.4-1.64,3,3,0,0,1,1.12-1.18,3.27,3.27,0,0,1,3.24,0,3,3,0,0,1,1.12,1.18,3.38,3.38,0,0,1,.41,1.64,3.42,3.42,0,0,1-.41,1.65,2.93,2.93,0,0,1-1.12,1.17,3.2,3.2,0,0,1-3.24,0Zm2.67-.77a2,2,0,0,0,.78-.81,2.69,2.69,0,0,0,0-2.47,2.09,2.09,0,0,0-1.83-1.1,2.05,2.05,0,0,0-1,.29,2.12,2.12,0,0,0-.79.81,2.77,2.77,0,0,0,0,2.47,2.12,2.12,0,0,0,.79.81,2,2,0,0,0,1,.28A2,2,0,0,0,830.82,252.17Z"/><path class="cls-8" d="M834,247.06h1v.9h0a2,2,0,0,1,.8-.77,2.34,2.34,0,0,1,1.17-.32,2.19,2.19,0,0,1,1.69.64,2.5,2.5,0,0,1,.58,1.75v3.92h-1v-3.76a1.61,1.61,0,0,0-.41-1.24,1.53,1.53,0,0,0-1.11-.39,1.51,1.51,0,0,0-.88.28,1.89,1.89,0,0,0-.61.73,2.19,2.19,0,0,0-.21.94v3.44h-1Z"/><path class="cls-8" d="M844.7,252.94a3,3,0,0,1-1.12-1.17,3.41,3.41,0,0,1-.4-1.65,3.37,3.37,0,0,1,.4-1.64,3,3,0,0,1,1.12-1.18,3.27,3.27,0,0,1,3.24,0,3,3,0,0,1,1.12,1.18,3.37,3.37,0,0,1,.4,1.64,3.41,3.41,0,0,1-.4,1.65,3,3,0,0,1-1.12,1.17,3.2,3.2,0,0,1-3.24,0Zm2.67-.77a2.17,2.17,0,0,0,.78-.81,2.77,2.77,0,0,0,0-2.47,2.17,2.17,0,0,0-.78-.81,2,2,0,0,0-1-.29,2.09,2.09,0,0,0-1.84,1.1,2.69,2.69,0,0,0,0,2.47,2.1,2.1,0,0,0,.78.81,2.08,2.08,0,0,0,1.06.28A2,2,0,0,0,847.37,252.17Z"/><path class="cls-8" d="M851.18,248h-1.13v-.93h1.13v-.66a1.82,1.82,0,0,1,1-1.67,2.06,2.06,0,0,1,1-.23,2.5,2.5,0,0,1,.9.14v1a2.85,2.85,0,0,0-.41-.14,1.56,1.56,0,0,0-.46-.06.94.94,0,0,0-.68.29,1,1,0,0,0-.29.78v.55h1.57V248H852.2v5.19h-1Z"/><path class="cls-8" d="M859.47,253.25a1.54,1.54,0,0,1-.54-.33,1.69,1.69,0,0,1-.48-1.28V248h-1.07v-.93h1.07v-1.72h1v1.72H861V248h-1.5v3.41a1.31,1.31,0,0,0,.19.76.84.84,0,0,0,.66.27,1.16,1.16,0,0,0,.68-.21v1a1.33,1.33,0,0,1-.37.12,2.84,2.84,0,0,1-.47,0A1.73,1.73,0,0,1,859.47,253.25Z"/><path class="cls-8" d="M862.26,244.59h1v2.53l0,.84h0a2,2,0,0,1,.79-.78,2.49,2.49,0,0,1,1.2-.31,2.16,2.16,0,0,1,1.7.66,2.49,2.49,0,0,1,.59,1.73v3.92h-1v-3.76a1.62,1.62,0,0,0-.42-1.23,1.54,1.54,0,0,0-1.09-.4,1.47,1.47,0,0,0-.88.29,2.12,2.12,0,0,0-.64.75,2,2,0,0,0-.23.95v3.4h-1Z"/><path class="cls-8" d="M870.18,253a2.9,2.9,0,0,1-1.09-1.16,3.51,3.51,0,0,1-.39-1.66,3.58,3.58,0,0,1,.37-1.63,2.87,2.87,0,0,1,1-1.19,2.74,2.74,0,0,1,1.55-.45,3,3,0,0,1,1.56.4,2.73,2.73,0,0,1,1,1.11,3.7,3.7,0,0,1,.35,1.62c0,.1,0,.2,0,.32h-4.85a2.37,2.37,0,0,0,.34,1.17,1.94,1.94,0,0,0,.76.72,2.07,2.07,0,0,0,1,.24,2,2,0,0,0,1.82-1.1l.86.42a3,3,0,0,1-1.07,1.17,3.21,3.21,0,0,1-3.21,0Zm3.33-3.48a2,2,0,0,0-.21-.77,1.69,1.69,0,0,0-.6-.65,1.87,1.87,0,0,0-1-.27,1.74,1.74,0,0,0-1.22.47,2.15,2.15,0,0,0-.66,1.22Z"/><path class="cls-8" d="M878.65,245.72a.73.73,0,0,1,.51-1.25.74.74,0,0,1,.53,1.25.73.73,0,0,1-.53.22A.7.7,0,0,1,878.65,245.72Zm0,1.34h1v6.12h-1Z"/><path class="cls-8" d="M881.28,247.06h1v.9h0a2,2,0,0,1,.8-.77,2.35,2.35,0,0,1,1.18-.32,2.18,2.18,0,0,1,1.68.64,2.5,2.5,0,0,1,.58,1.75v3.92h-1v-3.76a1.65,1.65,0,0,0-.4-1.24,1.57,1.57,0,0,0-1.12-.39,1.51,1.51,0,0,0-.88.28,2,2,0,0,0-.61.73,2.19,2.19,0,0,0-.21.94v3.44h-1Z"/><path class="cls-8" d="M889.37,253.25a1.49,1.49,0,0,1-.53-.33,1.65,1.65,0,0,1-.48-1.28V248h-1.07v-.93h1.07v-1.72h1v1.72h1.5V248h-1.5v3.41a1.23,1.23,0,0,0,.19.76.81.81,0,0,0,.66.27,1.16,1.16,0,0,0,.67-.21v1a1.23,1.23,0,0,1-.37.12,2.84,2.84,0,0,1-.47,0A1.73,1.73,0,0,1,889.37,253.25Z"/><path class="cls-8" d="M893,253a2.9,2.9,0,0,1-1.09-1.16,3.51,3.51,0,0,1-.39-1.66,3.58,3.58,0,0,1,.37-1.63,2.87,2.87,0,0,1,1-1.19,2.75,2.75,0,0,1,1.56-.45,3,3,0,0,1,1.56.4,2.78,2.78,0,0,1,1,1.11,3.57,3.57,0,0,1,.35,1.62,1.83,1.83,0,0,1,0,.32h-4.85a2.37,2.37,0,0,0,.34,1.17,1.94,1.94,0,0,0,.76.72,2.07,2.07,0,0,0,1,.24,2,2,0,0,0,1.82-1.1l.86.42a3,3,0,0,1-1.07,1.17,3.21,3.21,0,0,1-3.21,0Zm3.33-3.48a1.81,1.81,0,0,0-.21-.77,1.69,1.69,0,0,0-.6-.65,1.84,1.84,0,0,0-1-.27,1.77,1.77,0,0,0-1.23.47,2.27,2.27,0,0,0-.66,1.22Z"/><path class="cls-8" d="M898.59,247.06h1v1h.05a1.62,1.62,0,0,1,.7-.84,1.89,1.89,0,0,1,1.08-.34,1.93,1.93,0,0,1,.72.13v1.1a1.92,1.92,0,0,0-.87-.2,1.39,1.39,0,0,0-.81.26,1.73,1.73,0,0,0-.6.68,1.92,1.92,0,0,0-.22.92v3.42h-1Z"/><path class="cls-8" d="M903.61,253.11a1.9,1.9,0,0,1-1.11-1.77,1.78,1.78,0,0,1,.74-1.52,2.94,2.94,0,0,1,1.84-.55,4.22,4.22,0,0,1,1,.12,2.47,2.47,0,0,1,.73.28v-.38a1.36,1.36,0,0,0-.48-1.09,1.79,1.79,0,0,0-1.22-.42,2.16,2.16,0,0,0-.94.22,1.8,1.8,0,0,0-.69.62l-.77-.57a2.5,2.5,0,0,1,1-.87,3.23,3.23,0,0,1,1.4-.31,2.75,2.75,0,0,1,2,.66,2.3,2.3,0,0,1,.71,1.78v3.87h-1v-.87h-.05a2.2,2.2,0,0,1-.79.75,2.31,2.31,0,0,1-1.19.32A2.59,2.59,0,0,1,903.61,253.11Zm2.25-.9a1.86,1.86,0,0,0,.71-.71,1.82,1.82,0,0,0,.27-1,2.58,2.58,0,0,0-.71-.31,3.24,3.24,0,0,0-.89-.12,2,2,0,0,0-1.27.35,1.11,1.11,0,0,0-.42.9,1,1,0,0,0,.38.81,1.49,1.49,0,0,0,1,.32A1.78,1.78,0,0,0,905.86,252.21Z"/><path class="cls-8" d="M910.34,253a2.93,2.93,0,0,1-1.1-1.16,3.44,3.44,0,0,1-.4-1.67,3.4,3.4,0,0,1,.4-1.66,2.89,2.89,0,0,1,1.1-1.17,3.06,3.06,0,0,1,1.6-.42,3,3,0,0,1,1.67.46,2.61,2.61,0,0,1,1,1.23l-.93.39a1.79,1.79,0,0,0-.68-.86,1.9,1.9,0,0,0-1.08-.3,1.84,1.84,0,0,0-1,.3,2.2,2.2,0,0,0-.75.82,2.51,2.51,0,0,0-.28,1.21,2.55,2.55,0,0,0,.28,1.22,2.2,2.2,0,0,0,.75.82,1.91,1.91,0,0,0,1,.29,2,2,0,0,0,1.11-.3,1.73,1.73,0,0,0,.7-.85l.91.38a2.68,2.68,0,0,1-1,1.23,2.93,2.93,0,0,1-1.67.47A3.06,3.06,0,0,1,910.34,253Z"/><path class="cls-8" d="M917.32,253.25a1.63,1.63,0,0,1-.54-.33,1.69,1.69,0,0,1-.48-1.28V248h-1.06v-.93h1.06v-1.72h1v1.72h1.5V248h-1.5v3.41a1.23,1.23,0,0,0,.2.76.81.81,0,0,0,.66.27,1.16,1.16,0,0,0,.67-.21v1a1.23,1.23,0,0,1-.37.12,2.84,2.84,0,0,1-.47,0A1.73,1.73,0,0,1,917.32,253.25Z"/><path class="cls-8" d="M920.19,245.72a.75.75,0,0,1,0-1,.73.73,0,0,1,.52-.21.7.7,0,0,1,.52.21.75.75,0,0,1,0,1,.71.71,0,0,1-.52.22A.74.74,0,0,1,920.19,245.72Zm0,1.34h1v6.12h-1Z"/><path class="cls-8" d="M924,252.94a2.93,2.93,0,0,1-1.12-1.17,3.42,3.42,0,0,1-.41-1.65,3.38,3.38,0,0,1,.41-1.64A3,3,0,0,1,924,247.3a3.27,3.27,0,0,1,3.24,0,3,3,0,0,1,1.12,1.18,3.37,3.37,0,0,1,.4,1.64,3.41,3.41,0,0,1-.4,1.65,3,3,0,0,1-1.12,1.17,3.2,3.2,0,0,1-3.24,0Zm2.67-.77a2.17,2.17,0,0,0,.78-.81,2.77,2.77,0,0,0,0-2.47,2.17,2.17,0,0,0-.78-.81,2.05,2.05,0,0,0-1-.29,2.09,2.09,0,0,0-1.06.29,2,2,0,0,0-.78.81,2.69,2.69,0,0,0,0,2.47,2,2,0,0,0,.78.81,2.08,2.08,0,0,0,1.06.28A2,2,0,0,0,926.63,252.17Z"/><path class="cls-8" d="M929.79,247.06h1v.9h0a2.08,2.08,0,0,1,.81-.77,2.31,2.31,0,0,1,1.17-.32,2.19,2.19,0,0,1,1.69.64,2.5,2.5,0,0,1,.58,1.75v3.92h-1v-3.76a1.65,1.65,0,0,0-.41-1.24,1.67,1.67,0,0,0-2-.11,1.86,1.86,0,0,0-.6.73,2.06,2.06,0,0,0-.22.94v3.44h-1Z"/><path class="cls-8" d="M936.65,253a.79.79,0,1,1,.55.22A.73.73,0,0,1,936.65,253Z"/><path class="cls-8" d="M735,260h-2.41v-1h5.83v1H736v7.62h-1Z"/><path class="cls-8" d="M739.49,259h1v2.53l0,.84h0a2,2,0,0,1,.79-.78,2.49,2.49,0,0,1,1.2-.31,2.19,2.19,0,0,1,1.7.65,2.53,2.53,0,0,1,.59,1.74v3.92h-1v-3.76a1.62,1.62,0,0,0-.42-1.23,1.53,1.53,0,0,0-1.09-.39,1.46,1.46,0,0,0-.88.28,2,2,0,0,0-.64.75,2,2,0,0,0-.23.94v3.41h-1Z"/><path class="cls-8" d="M746.34,260.12a.73.73,0,0,1,.51-1.25.72.72,0,0,1,.53.21.75.75,0,0,1,0,1,.73.73,0,0,1-.53.22A.7.7,0,0,1,746.34,260.12Zm0,1.34h1v6.12h-1Z"/><path class="cls-8" d="M749.46,267.31a2.52,2.52,0,0,1-.94-1.18l.91-.41a1.9,1.9,0,0,0,.68.86,1.75,1.75,0,0,0,1,.3,1.94,1.94,0,0,0,1-.24.72.72,0,0,0,.4-.66.73.73,0,0,0-.32-.62,3,3,0,0,0-1-.4l-.74-.2a2.63,2.63,0,0,1-1.2-.61,1.55,1.55,0,0,1-.16-2,2.06,2.06,0,0,1,.85-.62,2.86,2.86,0,0,1,1.14-.22,2.91,2.91,0,0,1,1.43.35,2,2,0,0,1,.9,1l-.89.41a1.49,1.49,0,0,0-1.45-.82,1.59,1.59,0,0,0-.88.24.66.66,0,0,0-.38.59.68.68,0,0,0,.26.55,2.15,2.15,0,0,0,.8.34l.88.23a2.85,2.85,0,0,1,1.36.68,1.49,1.49,0,0,1,.46,1.09,1.55,1.55,0,0,1-.33,1,2,2,0,0,1-.87.66,3.25,3.25,0,0,1-1.23.23A2.79,2.79,0,0,1,749.46,267.31Z"/><path class="cls-8" d="M756.75,261.46h1.09l1.9,4.92h0l1.92-4.92h1.07l-2.49,6.12h-1Z"/><path class="cls-8" d="M764.23,267.51a2,2,0,0,1-.82-.72,2,2,0,0,1-.28-1.05,1.78,1.78,0,0,1,.73-1.52,3,3,0,0,1,1.85-.55,4.13,4.13,0,0,1,1,.12,2.47,2.47,0,0,1,.73.28v-.37a1.37,1.37,0,0,0-.48-1.1,1.79,1.79,0,0,0-1.22-.42,2,2,0,0,0-.94.23,1.7,1.7,0,0,0-.69.61l-.76-.57a2.4,2.4,0,0,1,1-.87,3.26,3.26,0,0,1,1.4-.31,2.79,2.79,0,0,1,2,.65,2.34,2.34,0,0,1,.71,1.79v3.87h-1v-.87h-.05a2.36,2.36,0,0,1-2,1.07A2.59,2.59,0,0,1,764.23,267.51Zm2.25-.9a1.86,1.86,0,0,0,.71-.71,1.82,1.82,0,0,0,.27-1,2.58,2.58,0,0,0-.71-.31,3.24,3.24,0,0,0-.89-.12,2,2,0,0,0-1.27.35,1.11,1.11,0,0,0-.42.9,1,1,0,0,0,.38.81,1.49,1.49,0,0,0,1,.32A1.78,1.78,0,0,0,766.48,266.61Z"/><path class="cls-8" d="M769.84,259h1v8.59h-1Z"/><path class="cls-8" d="M772.91,267.13a2.61,2.61,0,0,1-.58-1.81v-3.86h1v3.7a1.75,1.75,0,0,0,.4,1.28,1.42,1.42,0,0,0,1.06.41,1.61,1.61,0,0,0,.92-.27,2,2,0,0,0,.63-.72,2.2,2.2,0,0,0,.22-.94v-3.46h1v6.12h-1v-.88h0a2.06,2.06,0,0,1-.81.76,2.31,2.31,0,0,1-1.17.32A2.16,2.16,0,0,1,772.91,267.13Z"/><path class="cls-8" d="M780.2,267.36a3,3,0,0,1-1.08-1.16,3.4,3.4,0,0,1-.4-1.66,3.71,3.71,0,0,1,.37-1.63,3,3,0,0,1,1-1.2,2.84,2.84,0,0,1,1.56-.44,3,3,0,0,1,1.56.4,2.64,2.64,0,0,1,1,1.11,3.54,3.54,0,0,1,.36,1.62,1.71,1.71,0,0,1,0,.31h-4.84a2.37,2.37,0,0,0,.33,1.18,2,2,0,0,0,.76.72,2.08,2.08,0,0,0,1,.24,2,2,0,0,0,1.81-1.1l.87.42a3.17,3.17,0,0,1-1.07,1.17,3,3,0,0,1-1.65.44A3.1,3.1,0,0,1,780.2,267.36Zm3.34-3.48a2,2,0,0,0-.22-.77,1.69,1.69,0,0,0-.6-.65,1.83,1.83,0,0,0-1-.26,1.76,1.76,0,0,0-1.23.46,2.24,2.24,0,0,0-.66,1.22Z"/><path class="cls-8" d="M788.67,260.12a.75.75,0,0,1,0-1,.73.73,0,0,1,.52-.21.7.7,0,0,1,.52.21.75.75,0,0,1,0,1,.71.71,0,0,1-.52.22A.74.74,0,0,1,788.67,260.12Zm0,1.34h1v6.12h-1Z"/><path class="cls-8" d="M791.79,267.31a2.44,2.44,0,0,1-.93-1.18l.91-.41a1.84,1.84,0,0,0,.68.86,1.75,1.75,0,0,0,1,.3,1.9,1.9,0,0,0,1-.24.75.75,0,0,0,.09-1.28,3,3,0,0,0-1-.4l-.75-.2a2.63,2.63,0,0,1-1.2-.61,1.46,1.46,0,0,1-.47-1.11,1.44,1.44,0,0,1,.32-.93,1.94,1.94,0,0,1,.85-.62,2.86,2.86,0,0,1,1.14-.22,2.94,2.94,0,0,1,1.43.35,2,2,0,0,1,.9,1l-.89.41a1.49,1.49,0,0,0-1.45-.82,1.65,1.65,0,0,0-.89.24.68.68,0,0,0-.38.59.66.66,0,0,0,.27.55,2.17,2.17,0,0,0,.79.34l.89.23a2.85,2.85,0,0,1,1.36.68,1.48,1.48,0,0,1,.45,1.09,1.61,1.61,0,0,1-.32,1,2,2,0,0,1-.88.66,3.23,3.23,0,0,1-1.22.23A2.8,2.8,0,0,1,791.79,267.31Z"/><path class="cls-8" d="M801.42,267.65a1.49,1.49,0,0,1-.53-.33,1.69,1.69,0,0,1-.48-1.28v-3.65h-1.07v-.93h1.07v-1.72h1v1.72h1.5v.93h-1.5v3.41a1.23,1.23,0,0,0,.19.76.81.81,0,0,0,.66.27,1.13,1.13,0,0,0,.67-.21v1l-.36.12a3.08,3.08,0,0,1-.48,0A2,2,0,0,1,801.42,267.65Z"/><path class="cls-8" d="M804.21,259h1v2.53l-.05.84h.05a2.07,2.07,0,0,1,.8-.78,2.43,2.43,0,0,1,1.19-.31,2.19,2.19,0,0,1,1.71.65,2.53,2.53,0,0,1,.59,1.74v3.92h-1v-3.76a1.62,1.62,0,0,0-.42-1.23,1.56,1.56,0,0,0-1.1-.39,1.49,1.49,0,0,0-.88.28,1.92,1.92,0,0,0-.63.75,2,2,0,0,0-.24.94v3.41h-1Z"/><path class="cls-8" d="M812.13,267.36a3,3,0,0,1-1.08-1.16,3.51,3.51,0,0,1-.39-1.66,3.71,3.71,0,0,1,.36-1.63,3,3,0,0,1,1.05-1.2,2.81,2.81,0,0,1,1.55-.44,3,3,0,0,1,1.56.4,2.64,2.64,0,0,1,1,1.11,3.54,3.54,0,0,1,.36,1.62,1.71,1.71,0,0,1,0,.31h-4.84a2.37,2.37,0,0,0,.33,1.18,2,2,0,0,0,.76.72,2.08,2.08,0,0,0,1,.24,2,2,0,0,0,1.81-1.1l.87.42a3.17,3.17,0,0,1-1.07,1.17,3,3,0,0,1-1.64.44A3.11,3.11,0,0,1,812.13,267.36Zm3.34-3.48a2,2,0,0,0-.22-.77,1.61,1.61,0,0,0-.6-.65,1.81,1.81,0,0,0-1-.26,1.72,1.72,0,0,0-1.22.46,2.12,2.12,0,0,0-.66,1.22Z"/><path class="cls-8" d="M820.6,260.12a.75.75,0,0,1,0-1,.73.73,0,0,1,.52-.21.7.7,0,0,1,.52.21.75.75,0,0,1,0,1,.71.71,0,0,1-.52.22A.74.74,0,0,1,820.6,260.12Zm0,1.34h1v6.12h-1Z"/><path class="cls-8" d="M823.23,261.46h1v.9h0a2.08,2.08,0,0,1,.81-.77,2.31,2.31,0,0,1,1.17-.32,2.19,2.19,0,0,1,1.69.64,2.5,2.5,0,0,1,.58,1.75v3.92h-1v-3.76a1.65,1.65,0,0,0-.41-1.24,1.71,1.71,0,0,0-2-.11,1.86,1.86,0,0,0-.6.73,2.06,2.06,0,0,0-.22.94v3.44h-1Z"/><path class="cls-8" d="M831.33,267.65a1.54,1.54,0,0,1-.54-.33,1.69,1.69,0,0,1-.48-1.28v-3.65h-1.07v-.93h1.07v-1.72h1v1.72h1.5v.93h-1.5v3.41a1.31,1.31,0,0,0,.19.76.84.84,0,0,0,.66.27,1.16,1.16,0,0,0,.68-.21v1a2.65,2.65,0,0,1-.37.12,2.84,2.84,0,0,1-.47,0A1.93,1.93,0,0,1,831.33,267.65Z"/><path class="cls-8" d="M834.94,267.36a3,3,0,0,1-1.08-1.16,3.51,3.51,0,0,1-.39-1.66,3.71,3.71,0,0,1,.36-1.63,3.06,3.06,0,0,1,1-1.2,2.81,2.81,0,0,1,1.55-.44,3,3,0,0,1,1.56.4,2.73,2.73,0,0,1,1,1.11,3.67,3.67,0,0,1,.35,1.62c0,.1,0,.2,0,.31h-4.85a2.37,2.37,0,0,0,.33,1.18,2,2,0,0,0,.77.72,2,2,0,0,0,1,.24,2,2,0,0,0,1.81-1.1l.87.42a3.09,3.09,0,0,1-1.07,1.17,3,3,0,0,1-1.64.44A3.11,3.11,0,0,1,834.94,267.36Zm3.34-3.48a2,2,0,0,0-.22-.77,1.55,1.55,0,0,0-.6-.65,1.81,1.81,0,0,0-1-.26,1.72,1.72,0,0,0-1.22.46,2.12,2.12,0,0,0-.66,1.22Z"/><path class="cls-8" d="M840.55,261.46h1v1h.05a1.64,1.64,0,0,1,.69-.84,1.95,1.95,0,0,1,1.8-.21v1.1a1.85,1.85,0,0,0-.86-.2,1.43,1.43,0,0,0-.82.26,1.79,1.79,0,0,0-.59.68,1.92,1.92,0,0,0-.22.92v3.42h-1Z"/><path class="cls-8" d="M845.56,267.51a1.92,1.92,0,0,1-1.1-1.77,1.78,1.78,0,0,1,.73-1.52,3,3,0,0,1,1.85-.55,4.22,4.22,0,0,1,1,.12,2.51,2.51,0,0,1,.72.28v-.37a1.37,1.37,0,0,0-.48-1.1,1.76,1.76,0,0,0-1.21-.42,2,2,0,0,0-.94.23,1.7,1.7,0,0,0-.69.61l-.77-.57a2.43,2.43,0,0,1,1-.87,3.23,3.23,0,0,1,1.4-.31,2.83,2.83,0,0,1,2,.65,2.34,2.34,0,0,1,.7,1.79v3.87h-1v-.87h0a2.2,2.2,0,0,1-.79.75,2.28,2.28,0,0,1-1.19.32A2.65,2.65,0,0,1,845.56,267.51Zm2.26-.9a1.93,1.93,0,0,0,.71-.71,1.9,1.9,0,0,0,.26-1,2.45,2.45,0,0,0-.71-.31,3.17,3.17,0,0,0-.88-.12,2,2,0,0,0-1.27.35,1.12,1.12,0,0,0-.43.9,1,1,0,0,0,.39.81,1.47,1.47,0,0,0,1,.32A1.84,1.84,0,0,0,847.82,266.61Z"/><path class="cls-8" d="M852.3,267.35a3,3,0,0,1-1.11-1.16,3.55,3.55,0,0,1-.39-1.67,3.51,3.51,0,0,1,.39-1.66,2.91,2.91,0,0,1,1.11-1.17,3,3,0,0,1,1.59-.42,3,3,0,0,1,1.68.46,2.54,2.54,0,0,1,1,1.23l-.92.39a1.79,1.79,0,0,0-.68-.86,1.91,1.91,0,0,0-1.09-.29,1.79,1.79,0,0,0-1,.29,2.05,2.05,0,0,0-.75.82,2.52,2.52,0,0,0-.29,1.21,2.56,2.56,0,0,0,.29,1.22,2.05,2.05,0,0,0,.75.82,1.88,1.88,0,0,0,1,.29,2,2,0,0,0,1.12-.3,1.85,1.85,0,0,0,.7-.85l.91.38a2.68,2.68,0,0,1-1,1.23,2.94,2.94,0,0,1-1.68.47A3.05,3.05,0,0,1,852.3,267.35Z"/><path class="cls-8" d="M859.27,267.65a1.49,1.49,0,0,1-.53-.33,1.69,1.69,0,0,1-.48-1.28v-3.65h-1.07v-.93h1.07v-1.72h1v1.72h1.5v.93h-1.5v3.41a1.23,1.23,0,0,0,.19.76.81.81,0,0,0,.66.27,1.13,1.13,0,0,0,.67-.21v1l-.36.12a3,3,0,0,1-.48,0A2,2,0,0,1,859.27,267.65Z"/><path class="cls-8" d="M862.15,260.12a.73.73,0,0,1,.51-1.25.74.74,0,0,1,.53,1.25.73.73,0,0,1-.53.22A.7.7,0,0,1,862.15,260.12Zm0,1.34h1v6.12h-1Z"/><path class="cls-8" d="M865.92,267.34a3,3,0,0,1-1.13-1.17,3.53,3.53,0,0,1-.4-1.65,3.49,3.49,0,0,1,.4-1.64,3.05,3.05,0,0,1,1.13-1.18,3.27,3.27,0,0,1,3.24,0,3,3,0,0,1,1.12,1.18,3.37,3.37,0,0,1,.4,1.64,3.41,3.41,0,0,1-.4,1.65,3,3,0,0,1-1.12,1.17,3.2,3.2,0,0,1-3.24,0Zm2.67-.77a2.17,2.17,0,0,0,.78-.81,2.77,2.77,0,0,0,0-2.47,2.17,2.17,0,0,0-.78-.81,2.13,2.13,0,0,0-2.11,0,2.12,2.12,0,0,0-.79.81,2.77,2.77,0,0,0,0,2.47,2.12,2.12,0,0,0,.79.81,2.13,2.13,0,0,0,2.11,0Z"/><path class="cls-8" d="M871.75,261.46h1v.9h0a2.05,2.05,0,0,1,.8-.77,2.35,2.35,0,0,1,1.18-.32,2.17,2.17,0,0,1,1.68.64,2.5,2.5,0,0,1,.59,1.75v3.92h-1v-3.76a1.65,1.65,0,0,0-.41-1.24,1.55,1.55,0,0,0-1.12-.38,1.5,1.5,0,0,0-.88.27,2,2,0,0,0-.61.73,2.19,2.19,0,0,0-.21.94v3.44h-1Z"/><path class="cls-8" d="M881.26,259h1v8.59h-1Z"/><path class="cls-8" d="M884.49,267.51a2,2,0,0,1-.81-.72,1.89,1.89,0,0,1-.29-1.05,1.78,1.78,0,0,1,.73-1.52,3,3,0,0,1,1.85-.55,4.08,4.08,0,0,1,1,.12,2.47,2.47,0,0,1,.73.28v-.37a1.37,1.37,0,0,0-.48-1.1,1.76,1.76,0,0,0-1.21-.42,2,2,0,0,0-.94.23,1.58,1.58,0,0,0-.69.61l-.77-.57a2.47,2.47,0,0,1,1-.87,3.31,3.31,0,0,1,1.41-.31,2.78,2.78,0,0,1,2,.65,2.31,2.31,0,0,1,.71,1.79v3.87h-1v-.87h-.05a2.2,2.2,0,0,1-.79.75,2.28,2.28,0,0,1-1.19.32A2.59,2.59,0,0,1,884.49,267.51Zm2.26-.9a2,2,0,0,0,.71-.71,1.9,1.9,0,0,0,.26-1,2.45,2.45,0,0,0-.71-.31,3.19,3.19,0,0,0-.89-.12,2,2,0,0,0-1.26.35,1.09,1.09,0,0,0-.43.9,1,1,0,0,0,.39.81,1.47,1.47,0,0,0,1,.32A1.84,1.84,0,0,0,886.75,266.61Z"/><path class="cls-8" d="M891.65,267.65a1.49,1.49,0,0,1-.53-.33,1.69,1.69,0,0,1-.48-1.28v-3.65h-1.07v-.93h1.07v-1.72h1v1.72h1.5v.93h-1.5v3.41a1.23,1.23,0,0,0,.19.76.81.81,0,0,0,.66.27,1.13,1.13,0,0,0,.67-.21v1a2.29,2.29,0,0,1-.37.12,2.84,2.84,0,0,1-.47,0A1.93,1.93,0,0,1,891.65,267.65Z"/><path class="cls-8" d="M895.27,267.36a2.9,2.9,0,0,1-1.09-1.16,3.51,3.51,0,0,1-.39-1.66,3.58,3.58,0,0,1,.37-1.63,3,3,0,0,1,1-1.2,2.82,2.82,0,0,1,1.56-.44,3,3,0,0,1,1.56.4,2.71,2.71,0,0,1,1,1.11,3.54,3.54,0,0,1,.35,1.62,1.67,1.67,0,0,1,0,.31h-4.85a2.48,2.48,0,0,0,.34,1.18,1.94,1.94,0,0,0,.76.72,2.08,2.08,0,0,0,1,.24,2,2,0,0,0,1.81-1.1l.86.42a3,3,0,0,1-1.07,1.17,3,3,0,0,1-1.64.44A3.07,3.07,0,0,1,895.27,267.36Zm3.33-3.48a1.81,1.81,0,0,0-.21-.77,1.69,1.69,0,0,0-.6-.65,1.83,1.83,0,0,0-1-.26,1.76,1.76,0,0,0-1.23.46,2.24,2.24,0,0,0-.66,1.22Z"/><path class="cls-8" d="M900.87,261.46h1v.9h0a2.08,2.08,0,0,1,.81-.77,2.31,2.31,0,0,1,1.17-.32,2.19,2.19,0,0,1,1.69.64,2.5,2.5,0,0,1,.58,1.75v3.92h-1v-3.76a1.65,1.65,0,0,0-.41-1.24,1.71,1.71,0,0,0-2-.11,1.86,1.86,0,0,0-.6.73,2.06,2.06,0,0,0-.22.94v3.44h-1Z"/><path class="cls-8" d="M908.78,267.35a2.93,2.93,0,0,1-1.1-1.16,3.44,3.44,0,0,1-.4-1.67,3.4,3.4,0,0,1,.4-1.66,2.89,2.89,0,0,1,1.1-1.17,3.06,3.06,0,0,1,1.6-.42,3,3,0,0,1,1.67.46,2.61,2.61,0,0,1,1,1.23l-.93.39a1.79,1.79,0,0,0-.68-.86,1.9,1.9,0,0,0-1.08-.29,1.83,1.83,0,0,0-1,.29,2.2,2.2,0,0,0-.75.82,2.51,2.51,0,0,0-.28,1.21,2.55,2.55,0,0,0,.28,1.22,2.2,2.2,0,0,0,.75.82,1.91,1.91,0,0,0,1,.29,2,2,0,0,0,1.11-.3,1.73,1.73,0,0,0,.7-.85l.91.38a2.68,2.68,0,0,1-1,1.23,2.93,2.93,0,0,1-1.67.47A3.06,3.06,0,0,1,908.78,267.35Z"/><path class="cls-8" d="M916,267.2l-2.53-5.74h1.1l1.92,4.55h0l1.85-4.55h1.11l-3.78,8.71h-1.06Z"/><path class="cls-8" d="M919.63,267.36a.77.77,0,0,1,0-1.08.8.8,0,0,1,1.1,0,.77.77,0,0,1,0,1.08.8.8,0,0,1-1.1,0Z"/><path d="M802.63,112.52a1.7,1.7,0,0,0,.5-.26,1.44,1.44,0,0,0,.35-.39,1,1,0,0,0,.14-.49h1a1.7,1.7,0,0,1-.22.81,2.26,2.26,0,0,1-.57.67,2.85,2.85,0,0,1-.82.46,2.65,2.65,0,0,1-1,.18,2.92,2.92,0,0,1-1.26-.26,2.48,2.48,0,0,1-.89-.7,2.79,2.79,0,0,1-.55-1,4,4,0,0,1-.18-1.21v-.24a4.07,4.07,0,0,1,.18-1.21,2.83,2.83,0,0,1,.55-1,2.45,2.45,0,0,1,.89-.69,3.14,3.14,0,0,1,2.3-.08,2.72,2.72,0,0,1,.81.48,2.31,2.31,0,0,1,.54.74,2.11,2.11,0,0,1,.19.9h-1a1.43,1.43,0,0,0-.13-.54,1.45,1.45,0,0,0-.33-.45,1.52,1.52,0,0,0-.49-.31,1.7,1.7,0,0,0-.61-.11,1.66,1.66,0,0,0-.84.2,1.67,1.67,0,0,0-.56.53,2.25,2.25,0,0,0-.3.73,3.75,3.75,0,0,0-.09.82v.24a3.91,3.91,0,0,0,.09.83,2.11,2.11,0,0,0,.3.72,1.67,1.67,0,0,0,.55.54,1.7,1.7,0,0,0,.85.2A1.56,1.56,0,0,0,802.63,112.52Z"/><path d="M810,104.38v8.06H812v.94h-5.31v-.94h2.16v-7.12h-2.16v-.94Z"/><path d="M817.17,107v5.4h2.07v.94h-5.31v-.94h2.16V108h-2.16V107ZM816,105.11a.6.6,0,0,1,.14-.21.56.56,0,0,1,.2-.12.93.93,0,0,1,.54,0,.52.52,0,0,1,.19.12.43.43,0,0,1,.14.21.76.76,0,0,1,0,.27.59.59,0,0,1-.16.43.64.64,0,0,1-.49.18.63.63,0,0,1-.49-.18.59.59,0,0,1-.16-.43A.77.77,0,0,1,816,105.11Z"/><path d="M824.24,112.52a1.64,1.64,0,0,0,.49-.26,1.3,1.3,0,0,0,.35-.39,1,1,0,0,0,.14-.49h1a1.59,1.59,0,0,1-.22.81,2.26,2.26,0,0,1-.57.67,2.85,2.85,0,0,1-.82.46,2.64,2.64,0,0,1-1,.18,2.92,2.92,0,0,1-1.26-.26,2.6,2.6,0,0,1-.9-.7,3.13,3.13,0,0,1-.55-1,4,4,0,0,1-.18-1.21v-.24a4.07,4.07,0,0,1,.18-1.21,3.18,3.18,0,0,1,.55-1,2.58,2.58,0,0,1,.9-.69,2.92,2.92,0,0,1,1.26-.26,2.86,2.86,0,0,1,1,.18,2.77,2.77,0,0,1,.82.48,2.45,2.45,0,0,1,.53.74,2.11,2.11,0,0,1,.19.9h-1a1.43,1.43,0,0,0-.13-.54,1.6,1.6,0,0,0-.32-.45,1.64,1.64,0,0,0-.49-.31,1.78,1.78,0,0,0-.61-.11,1.7,1.7,0,0,0-.85.2,1.64,1.64,0,0,0-.55.53,2.27,2.27,0,0,0-.31.73,3.75,3.75,0,0,0-.09.82v.24a3.91,3.91,0,0,0,.09.83,2.12,2.12,0,0,0,.31.72,1.64,1.64,0,0,0,.54.54,1.74,1.74,0,0,0,.86.2A1.63,1.63,0,0,0,824.24,112.52Z"/><path d="M829.27,111.19v2.19h-1.09v-9h1.09v5.51l.71-.76,2.08-2.09h1.32l-2.57,2.64,3,3.7h-1.38l-2.33-3Z"/></svg>