<svg id="Layer_2" data-name="Layer 2" xmlns="http://www.w3.org/2000/svg" viewBox="0 0 1030.12 272.75"><defs><style>.cls-1{fill:#fff;}.cls-2,.cls-3{fill:#c9c9c9;}.cls-2{stroke:#231f20;}.cls-12,.cls-2,.cls-3,.cls-4,.cls-5,.cls-6,.cls-7,.cls-9{stroke-linecap:round;}.cls-10,.cls-12,.cls-2,.cls-3,.cls-4,.cls-5,.cls-6,.cls-7,.cls-9{stroke-linejoin:round;stroke-width:1.5px;}.cls-3{stroke:#727272;}.cls-4{fill:#efc458;stroke:#9b7c37;}.cls-5{fill:#74b266;stroke:#416837;}.cls-6{fill:#9b7fe6;stroke:#5d4e93;}.cls-10,.cls-12,.cls-7,.cls-9{fill:none;stroke:#191919;}.cls-8{fill:#191919;}.cls-9{stroke-dasharray:0.95 5.71;}.cls-11{fill:#231f20;}.cls-12{stroke-dasharray:0.95 5.71;}</style></defs><rect class="cls-1" width="1030.12" height="272.75"/><polygon class="cls-2" points="207.42 16.5 210.97 26.5 220.56 21.94 216 31.53 226 35.08 216 38.64 220.56 48.22 210.97 43.66 207.42 53.66 203.86 43.66 194.28 48.22 198.84 38.64 188.84 35.08 198.84 31.53 194.28 21.94 203.86 26.5 207.42 16.5"/><rect class="cls-3" x="16.71" y="96.75" width="233.67" height="26.06"/><rect class="cls-4" x="264.51" y="96.75" width="107.34" height="26.06"/><rect class="cls-4" x="379.35" y="96.75" width="187.51" height="26.06"/><rect class="cls-4" x="575.26" y="96.75" width="76.64" height="26.06"/><rect class="cls-5" x="711.31" y="96.75" width="76.64" height="26.06"/><rect class="cls-6" x="659.62" y="96.75" width="44.39" height="26.06"/><rect class="cls-5" x="797.66" y="193.48" width="77.3" height="26.06"/><path class="cls-7" d="M207.31,126.78s-.89,9.28,8.39,9.28h11.81c9.28,0,8.4,9.28,8.4,9.28s-.89-9.28,8.39-9.28h11.82c9.27,0,8.39-9.28,8.39-9.28"/><path class="cls-7" d="M267.94,126.78s-.89,9.28,8.39,9.28H451.51c9.28,0,8.39,9.28,8.39,9.28s-.88-9.28,8.4-9.28H643.48c9.27,0,8.39-9.28,8.39-9.28"/><path class="cls-7" d="M659.65,126.78s-.89,9.28,8.39,9.28H758.9c9.28,0,8.39,9.28,8.39,9.28s-.88-9.28,8.4-9.28h90.86c9.27,0,8.39-9.28,8.39-9.28"/><path class="cls-7" d="M659.65,93.36s-.89-9.28,8.39-9.28h5.39c9.27,0,8.39-9.27,8.39-9.27s-.88,9.27,8.39,9.27h5.39c9.28,0,8.39,9.28,8.39,9.28"/><path class="cls-7" d="M711.33,93.36s-.89-9.28,8.39-9.28h21.51c9.28,0,8.39-9.27,8.39-9.27s-.88,9.27,8.4,9.27h21.51c9.27,0,8.39,9.28,8.39,9.28"/><path d="M286.79,106.94h1l.05.7a2,2,0,0,1,.28-.3,1.94,1.94,0,0,1,.33-.23,2.1,2.1,0,0,1,.55-.21,2.62,2.62,0,0,1,.64-.07,2.32,2.32,0,0,1,1.08.24,2.21,2.21,0,0,1,.79.67,3,3,0,0,1,.48,1,4.82,4.82,0,0,1,.16,1.3v.12a4.65,4.65,0,0,1-.16,1.27,3.16,3.16,0,0,1-.48,1,2.46,2.46,0,0,1-.79.68,2.27,2.27,0,0,1-1.06.24,3,3,0,0,1-.68-.07,2.84,2.84,0,0,1-.56-.22l-.29-.2a1.88,1.88,0,0,1-.25-.24v3h-1.08Zm4.16,2.24a2.14,2.14,0,0,0-.31-.74,1.75,1.75,0,0,0-.54-.51,1.62,1.62,0,0,0-.79-.18,1.78,1.78,0,0,0-.47.06,1,1,0,0,0-.38.17,1.22,1.22,0,0,0-.33.27,1.83,1.83,0,0,0-.26.36v3.06a2.35,2.35,0,0,0,.23.32,1,1,0,0,0,.29.26,2,2,0,0,0,.42.2,2,2,0,0,0,.51.07,1.61,1.61,0,0,0,.78-.19,1.58,1.58,0,0,0,.54-.52,2.14,2.14,0,0,0,.31-.74,3.68,3.68,0,0,0,.11-.89v-.12A3.6,3.6,0,0,0,291,109.18Z"/><path d="M293.89,108.78a3,3,0,0,1,.57-1,2.62,2.62,0,0,1,.9-.68,3,3,0,0,1,2.41,0,2.6,2.6,0,0,1,.92.68,3.15,3.15,0,0,1,.56,1,3.78,3.78,0,0,1,.2,1.28v.12a3.78,3.78,0,0,1-.2,1.28,3.15,3.15,0,0,1-.56,1,2.68,2.68,0,0,1-2.11.92,2.9,2.9,0,0,1-1.21-.24,2.82,2.82,0,0,1-.91-.68,3,3,0,0,1-.57-1,3.78,3.78,0,0,1-.2-1.28v-.12A3.78,3.78,0,0,1,293.89,108.78Zm1,2.3a2.57,2.57,0,0,0,.34.75,1.61,1.61,0,0,0,.57.5,1.72,1.72,0,0,0,1.57,0,1.67,1.67,0,0,0,.56-.5,2.57,2.57,0,0,0,.34-.75,3.76,3.76,0,0,0,.11-.9v-.12a3.24,3.24,0,0,0-.12-.89,2.22,2.22,0,0,0-.33-.75,1.64,1.64,0,0,0-.57-.51,1.72,1.72,0,0,0-1.57,0,1.7,1.7,0,0,0-.56.51,2.45,2.45,0,0,0-.34.75,3.68,3.68,0,0,0-.11.89v.12A3.76,3.76,0,0,0,294.88,111.08Z"/><path d="M304.6,106.94v5.41h2.07v.93h-5.31v-.93h2.16v-4.46h-2.16v-1ZM303.42,105a.46.46,0,0,1,.14-.21.37.37,0,0,1,.2-.12.75.75,0,0,1,.54,0,.35.35,0,0,1,.19.12.48.48,0,0,1,.14.2.76.76,0,0,1,.05.27.66.66,0,0,1-.16.44.64.64,0,0,1-.49.18.63.63,0,0,1-.49-.18.61.61,0,0,1-.16-.44A.75.75,0,0,1,303.42,105Z"/><path d="M308.39,106.94h1l.07.94a3.65,3.65,0,0,1,.31-.36,1.64,1.64,0,0,1,.36-.29,1.91,1.91,0,0,1,.61-.29,2.28,2.28,0,0,1,.7-.11,2.58,2.58,0,0,1,.9.14,1.7,1.7,0,0,1,.7.44,2,2,0,0,1,.44.76,3.48,3.48,0,0,1,.16,1.09v4h-1.09v-4a2.41,2.41,0,0,0-.09-.71,1.24,1.24,0,0,0-.28-.48,1,1,0,0,0-.45-.26,1.92,1.92,0,0,0-.61-.08,2,2,0,0,0-.56.08,2.65,2.65,0,0,0-.48.23,3,3,0,0,0-.32.3,2,2,0,0,0-.26.38v4.54h-1.09Z"/><path d="M318.16,106.94h2.42v.84h-2.42v3.45a1.56,1.56,0,0,0,.1.61.89.89,0,0,0,.63.58,1.7,1.7,0,0,0,.46.06l.36,0,.37,0,.33-.06.25-.06.16.77a1.26,1.26,0,0,1-.33.14,2.58,2.58,0,0,1-.42.11l-.49.07-.5,0a2.47,2.47,0,0,1-.79-.12,1.65,1.65,0,0,1-.64-.38,1.74,1.74,0,0,1-.42-.67,2.72,2.72,0,0,1-.16-1v-3.45h-1.66v-.84h1.66v-1.53h1.09Z"/><path d="M324.37,113.17a2.74,2.74,0,0,1-1-.64,2.93,2.93,0,0,1-.62-1,3.23,3.23,0,0,1-.22-1.22v-.25a3.68,3.68,0,0,1,.24-1.37,3.26,3.26,0,0,1,.66-1,2.88,2.88,0,0,1,.92-.64,2.66,2.66,0,0,1,1.07-.22,3,3,0,0,1,1.2.23,2.41,2.41,0,0,1,.85.66,2.89,2.89,0,0,1,.5,1,4.07,4.07,0,0,1,.17,1.23v.48h-4.53v0a2.75,2.75,0,0,0,.19.81,1.91,1.91,0,0,0,.39.62,1.87,1.87,0,0,0,.62.45,2,2,0,0,0,.81.17,2.22,2.22,0,0,0,1.78-.86l.66.52a2.84,2.84,0,0,1-1,.85,3,3,0,0,1-1.55.37A3.06,3.06,0,0,1,324.37,113.17Zm.47-5.33a1.44,1.44,0,0,0-.53.35,1.87,1.87,0,0,0-.4.57,2.79,2.79,0,0,0-.22.77h3.41v0a2.2,2.2,0,0,0-.11-.63,2,2,0,0,0-.31-.58,1.44,1.44,0,0,0-.51-.4,1.71,1.71,0,0,0-1.33,0Z"/><path d="M334.78,106.87a2,2,0,0,1,.49.11l-.15,1.06a4.69,4.69,0,0,0-.6-.1,5.74,5.74,0,0,0-.6,0,2.73,2.73,0,0,0-.72.09,1.75,1.75,0,0,0-.56.29,1.82,1.82,0,0,0-.38.4,2.61,2.61,0,0,0-.26.53v4.06h-1.09v-6.34h1l0,.85V108a2.9,2.9,0,0,1,.93-.82,2.49,2.49,0,0,1,1.23-.3A4.64,4.64,0,0,1,334.78,106.87Z"/><path d="M341.31,112.41a2.21,2.21,0,0,1-.79.73,2.28,2.28,0,0,1-1.09.26,2.59,2.59,0,0,1-.91-.15,1.78,1.78,0,0,1-.69-.49,2.19,2.19,0,0,1-.44-.83,4.35,4.35,0,0,1-.16-1.22v-3.77h1.09v3.78a4.05,4.05,0,0,0,.08.86,1.23,1.23,0,0,0,.25.54,1,1,0,0,0,.4.29,1.82,1.82,0,0,0,.55.08,2.22,2.22,0,0,0,.65-.09,1.32,1.32,0,0,0,.49-.24,1.42,1.42,0,0,0,.31-.29,1.79,1.79,0,0,0,.22-.38v-4.55h1.09v6.34h-1Z"/><path d="M344.39,106.94h1l.06.7a2,2,0,0,1,.28-.3,1.94,1.94,0,0,1,.33-.23,2.17,2.17,0,0,1,.54-.21,2.76,2.76,0,0,1,.65-.07,2.23,2.23,0,0,1,1.87.91,3,3,0,0,1,.48,1,4.82,4.82,0,0,1,.16,1.3v.12a4.65,4.65,0,0,1-.16,1.27,3.16,3.16,0,0,1-.48,1,2.58,2.58,0,0,1-.79.68,2.27,2.27,0,0,1-1.06.24,3,3,0,0,1-.68-.07,2.84,2.84,0,0,1-.56-.22l-.29-.2a1.88,1.88,0,0,1-.25-.24v3h-1.09Zm4.17,2.24a2.36,2.36,0,0,0-.31-.74,1.68,1.68,0,0,0-.55-.51,1.58,1.58,0,0,0-.78-.18,1.78,1.78,0,0,0-.47.06,1,1,0,0,0-.38.17,1.22,1.22,0,0,0-.33.27,1.83,1.83,0,0,0-.26.36v3.06a1.72,1.72,0,0,0,.23.32,1,1,0,0,0,.29.26,1.63,1.63,0,0,0,.42.2,2,2,0,0,0,.51.07,1.61,1.61,0,0,0,.78-.19,1.58,1.58,0,0,0,.54-.52,2.36,2.36,0,0,0,.31-.74,3.68,3.68,0,0,0,.11-.89v-.12A3.6,3.6,0,0,0,348.56,109.18Z"/><path d="M449.45,107.54a1.39,1.39,0,0,1,1.27-.71,2,2,0,0,1,.45,0,1.31,1.31,0,0,1,.36.16,1.26,1.26,0,0,1,.2.2,1.17,1.17,0,0,1,.15.27,1.64,1.64,0,0,1,.2-.26,1.59,1.59,0,0,1,.24-.2,1.46,1.46,0,0,1,.36-.16,1.63,1.63,0,0,1,.45-.06,1.87,1.87,0,0,1,.59.09,1.21,1.21,0,0,1,.44.29,1.28,1.28,0,0,1,.31.55,2.62,2.62,0,0,1,.1.79v4.73h-1v-4.74a.92.92,0,0,0-.05-.35.64.64,0,0,0-.13-.26.59.59,0,0,0-.23-.14,1,1,0,0,0-.32,0,.82.82,0,0,0-.33,0,.57.57,0,0,0-.24.14.8.8,0,0,0-.15.21,1.76,1.76,0,0,0-.07.27v4.86h-1v-4.75a1.25,1.25,0,0,0,0-.35.61.61,0,0,0-.14-.25.55.55,0,0,0-.22-.14,1,1,0,0,0-.31,0,1.11,1.11,0,0,0-.33,0,.66.66,0,0,0-.25.13.86.86,0,0,0-.13.14,1.51,1.51,0,0,0-.09.18v5h-1v-6.34h1Z"/><path d="M456,108.78a3,3,0,0,1,.57-1,2.56,2.56,0,0,1,.91-.68,2.71,2.71,0,0,1,1.2-.25,2.79,2.79,0,0,1,1.21.25,2.56,2.56,0,0,1,.91.68,3.17,3.17,0,0,1,.57,1,4,4,0,0,1,.2,1.27v.13a4.09,4.09,0,0,1-.2,1.28,3,3,0,0,1-.57,1,2.56,2.56,0,0,1-.91.68,2.71,2.71,0,0,1-1.2.25,2.79,2.79,0,0,1-1.21-.25,2.56,2.56,0,0,1-.91-.68,2.86,2.86,0,0,1-.57-1,4.09,4.09,0,0,1-.2-1.28v-.13A4,4,0,0,1,456,108.78Zm1,2.3a2,2,0,0,0,.34.74,1.45,1.45,0,0,0,.56.51,1.57,1.57,0,0,0,.79.19,1.5,1.5,0,0,0,.78-.19,1.55,1.55,0,0,0,.57-.51,2.17,2.17,0,0,0,.33-.74,3.31,3.31,0,0,0,.11-.9v-.13a3.66,3.66,0,0,0-.11-.88,2.45,2.45,0,0,0-.34-.75,1.7,1.7,0,0,0-.56-.51,1.61,1.61,0,0,0-2.13.51,2.06,2.06,0,0,0-.34.75,3.22,3.22,0,0,0-.11.88v.13A3.31,3.31,0,0,0,457,111.08Z"/><path d="M467.44,112.41a2.21,2.21,0,0,1-.79.73,2.29,2.29,0,0,1-1.1.26,2.57,2.57,0,0,1-.9-.15,1.78,1.78,0,0,1-.69-.49,2.27,2.27,0,0,1-.44-.83,4,4,0,0,1-.16-1.22v-3.77h1.09v3.78a3.49,3.49,0,0,0,.08.86,1.34,1.34,0,0,0,.24.54.89.89,0,0,0,.41.28,1.49,1.49,0,0,0,.54.09,2.13,2.13,0,0,0,.65-.09,1.29,1.29,0,0,0,.5-.24,1.42,1.42,0,0,0,.31-.29,1.79,1.79,0,0,0,.22-.38v-4.55h1.09v6.34h-1Z"/><path d="M474.66,111.25a.73.73,0,0,0-.25-.28,1.79,1.79,0,0,0-.48-.24,4.51,4.51,0,0,0-.75-.19,10,10,0,0,1-1-.27,4,4,0,0,1-.77-.38,1.61,1.61,0,0,1-.49-.52,1.27,1.27,0,0,1-.18-.69,1.51,1.51,0,0,1,.18-.72,1.89,1.89,0,0,1,.51-.59,2.61,2.61,0,0,1,.78-.4,3.55,3.55,0,0,1,1-.14,3.48,3.48,0,0,1,1.06.15,2.43,2.43,0,0,1,.8.42,2,2,0,0,1,.5.63,1.72,1.72,0,0,1,.18.78h-1.08a.83.83,0,0,0-.11-.4,1.09,1.09,0,0,0-.29-.35,1.56,1.56,0,0,0-.46-.25,1.8,1.8,0,0,0-.6-.09,2.15,2.15,0,0,0-.6.07,1.15,1.15,0,0,0-.43.21.77.77,0,0,0-.27.3.73.73,0,0,0-.09.35.7.7,0,0,0,.08.33.61.61,0,0,0,.24.27,2.54,2.54,0,0,0,.46.21,7.36,7.36,0,0,0,.74.18,9.84,9.84,0,0,1,1,.28,3.26,3.26,0,0,1,.77.39,1.6,1.6,0,0,1,.49.52,1.42,1.42,0,0,1,.17.7,1.51,1.51,0,0,1-.2.76,1.77,1.77,0,0,1-.53.6,2.53,2.53,0,0,1-.81.38,3.8,3.8,0,0,1-1,.13,3.71,3.71,0,0,1-1.15-.17,3,3,0,0,1-.85-.46,2,2,0,0,1-.53-.66,1.79,1.79,0,0,1-.19-.78h1.09a1,1,0,0,0,.18.56,1.06,1.06,0,0,0,.39.37,1.43,1.43,0,0,0,.51.2,2.57,2.57,0,0,0,.55.06,2.5,2.5,0,0,0,.76-.1,1.26,1.26,0,0,0,.5-.28.79.79,0,0,0,.17-.25.72.72,0,0,0,.06-.29A.69.69,0,0,0,474.66,111.25Z"/><path d="M479.3,113.17a2.74,2.74,0,0,1-1-.64,2.93,2.93,0,0,1-.62-1,3.44,3.44,0,0,1-.22-1.22v-.25a3.49,3.49,0,0,1,.25-1.37,3.07,3.07,0,0,1,.65-1,2.82,2.82,0,0,1,.93-.64,2.62,2.62,0,0,1,1.06-.22,3,3,0,0,1,1.2.23,2.41,2.41,0,0,1,.85.66,2.74,2.74,0,0,1,.51,1,4.41,4.41,0,0,1,.16,1.23v.48h-4.53v0a2.75,2.75,0,0,0,.19.81,2.32,2.32,0,0,0,.39.62,2,2,0,0,0,1.43.62,2.22,2.22,0,0,0,1.78-.86l.66.52a2.8,2.8,0,0,1-.94.85,3,3,0,0,1-1.56.37A3.28,3.28,0,0,1,479.3,113.17Zm.47-5.33a1.53,1.53,0,0,0-.53.35,1.69,1.69,0,0,0-.39.57,2.48,2.48,0,0,0-.23.77H482v0a2.2,2.2,0,0,0-.11-.63,2,2,0,0,0-.31-.58,1.41,1.41,0,0,0-.5-.4,1.73,1.73,0,0,0-1.34,0Z"/><path d="M489,112.41a2.21,2.21,0,0,1-.79.73,2.25,2.25,0,0,1-1.09.26,2.63,2.63,0,0,1-.91-.15,1.86,1.86,0,0,1-.69-.49,2.27,2.27,0,0,1-.44-.83,4.37,4.37,0,0,1-.15-1.22v-3.77h1.08v3.78a4.05,4.05,0,0,0,.08.86,1.5,1.5,0,0,0,.25.54.86.86,0,0,0,.4.28,1.55,1.55,0,0,0,.55.09,2.17,2.17,0,0,0,.65-.09,1.45,1.45,0,0,0,.5-.24,1.38,1.38,0,0,0,.3-.29,1.79,1.79,0,0,0,.22-.38v-4.55h1.09v6.34h-1Z"/><path d="M492.13,106.94h1l.05.7a2,2,0,0,1,.28-.3,1.94,1.94,0,0,1,.33-.23,2.1,2.1,0,0,1,.55-.21,2.62,2.62,0,0,1,.64-.07,2.32,2.32,0,0,1,1.08.24,2.29,2.29,0,0,1,.79.66,3.16,3.16,0,0,1,.48,1,4.82,4.82,0,0,1,.16,1.3v.12a4.65,4.65,0,0,1-.16,1.27,3,3,0,0,1-.48,1,2.25,2.25,0,0,1-1.85.93,2.66,2.66,0,0,1-1.24-.29l-.29-.2a1.88,1.88,0,0,1-.25-.24v3h-1.08Zm4.16,2.24a2.14,2.14,0,0,0-.31-.74,1.65,1.65,0,0,0-.54-.51,1.62,1.62,0,0,0-.79-.18,2.16,2.16,0,0,0-.46,0,1.39,1.39,0,0,0-.39.17,1.75,1.75,0,0,0-.33.28,1.83,1.83,0,0,0-.26.36v3.06a2.35,2.35,0,0,0,.23.32,1,1,0,0,0,.29.26,1.6,1.6,0,0,0,.93.27,1.61,1.61,0,0,0,.78-.19,1.58,1.58,0,0,0,.54-.52,2.14,2.14,0,0,0,.31-.74,3.68,3.68,0,0,0,.11-.89v-.12A3.6,3.6,0,0,0,496.29,109.18Z"/><path d="M599.86,112.43a1.42,1.42,0,0,0,.5-.27,1.31,1.31,0,0,0,.35-.39,1,1,0,0,0,.14-.48h1a1.63,1.63,0,0,1-.22.8,2.15,2.15,0,0,1-.57.67,2.8,2.8,0,0,1-1.79.64,2.92,2.92,0,0,1-1.26-.26,2.54,2.54,0,0,1-.89-.69,2.83,2.83,0,0,1-.55-1,4,4,0,0,1-.18-1.2V110a4,4,0,0,1,.18-1.2,2.83,2.83,0,0,1,.55-1,2.69,2.69,0,0,1,.89-.7,3.2,3.2,0,0,1,2.3-.07,2.52,2.52,0,0,1,.81.48,2.28,2.28,0,0,1,.54.73,2.11,2.11,0,0,1,.19.9h-1a1.43,1.43,0,0,0-.13-.54,1.45,1.45,0,0,0-.33-.45,1.31,1.31,0,0,0-.48-.3,1.84,1.84,0,0,0-1.46.09,1.65,1.65,0,0,0-.56.52,2.3,2.3,0,0,0-.3.74,3.72,3.72,0,0,0-.09.81v.25a3.81,3.81,0,0,0,.09.82,2.25,2.25,0,0,0,.3.73,1.64,1.64,0,0,0,.55.53,1.7,1.7,0,0,0,.85.2A1.79,1.79,0,0,0,599.86,112.43Z"/><path d="M607.2,104.28v8.07h2.07v.93H604v-.93h2.16v-7.12H604v-1Z"/><path d="M614.4,106.94v5.41h2.07v.93h-5.31v-.93h2.16v-4.46h-2.16v-1ZM613.22,105a.55.55,0,0,1,.14-.22.56.56,0,0,1,.2-.12.93.93,0,0,1,.54,0,.52.52,0,0,1,.19.12.49.49,0,0,1,.14.21.59.59,0,0,1,.05.27.61.61,0,0,1-.16.44.79.79,0,0,1-1,0,.61.61,0,0,1-.16-.44A.75.75,0,0,1,613.22,105Z"/><path d="M621.47,112.43a1.47,1.47,0,0,0,.49-.27,1.19,1.19,0,0,0,.35-.39.92.92,0,0,0,.14-.48h1a1.62,1.62,0,0,1-.21.8,2.32,2.32,0,0,1-.58.67,2.75,2.75,0,0,1-.82.47,2.81,2.81,0,0,1-1,.17,2.92,2.92,0,0,1-1.26-.26,2.58,2.58,0,0,1-.9-.69,3,3,0,0,1-.54-1,3.68,3.68,0,0,1-.19-1.2V110a3.68,3.68,0,0,1,.19-1.2,3,3,0,0,1,.54-1,2.73,2.73,0,0,1,.9-.7,2.92,2.92,0,0,1,1.26-.25,2.86,2.86,0,0,1,1,.18,2.47,2.47,0,0,1,.82.48,2.4,2.4,0,0,1,.53.73,2.11,2.11,0,0,1,.19.9h-1a1.26,1.26,0,0,0-.13-.54,1.42,1.42,0,0,0-.32-.45,1.44,1.44,0,0,0-.49-.3,1.54,1.54,0,0,0-.61-.11,1.6,1.6,0,0,0-.85.2,1.61,1.61,0,0,0-.55.52,2.57,2.57,0,0,0-.31.74,3.72,3.72,0,0,0-.09.81v.25a3.81,3.81,0,0,0,.09.82,2.51,2.51,0,0,0,.31.73,1.61,1.61,0,0,0,.54.53,1.74,1.74,0,0,0,.86.2A1.88,1.88,0,0,0,621.47,112.43Z"/><path d="M626.5,111.09v2.19h-1.09v-9h1.09v5.51l.71-.76,2.08-2.09h1.32L628,109.59l3,3.69h-1.38l-2.32-3Z"/><path class="cls-8" d="M663.37,62.83h2.91a2.86,2.86,0,0,1,1.32.32,2.57,2.57,0,0,1,1,.91,2.48,2.48,0,0,1,.1,2.43,2.55,2.55,0,0,1-.74.86,2.62,2.62,0,0,1-1,.47l0,0,2.43,3.51v0h-1.2l-2.34-3.5h-1.35v3.5h-1ZM666.22,67a1.85,1.85,0,0,0,.83-.2,1.62,1.62,0,0,0,.62-.57,1.49,1.49,0,0,0,.24-.83,1.47,1.47,0,0,0-.21-.75,1.53,1.53,0,0,0-.57-.59,1.55,1.55,0,0,0-.84-.23h-1.9V67Z"/><path class="cls-8" d="M671.23,71.19A2.88,2.88,0,0,1,670.15,70a3.48,3.48,0,0,1-.39-1.66,3.69,3.69,0,0,1,.36-1.62,3,3,0,0,1,1-1.2,2.81,2.81,0,0,1,1.55-.44,2.92,2.92,0,0,1,1.56.4,2.64,2.64,0,0,1,1,1.11,3.51,3.51,0,0,1,.36,1.62,1.71,1.71,0,0,1,0,.31h-4.84a2.37,2.37,0,0,0,.33,1.18,2,2,0,0,0,.76.72,2.08,2.08,0,0,0,1,.24,2,2,0,0,0,1.81-1.1l.87.42a3.25,3.25,0,0,1-1.07,1.17,3.26,3.26,0,0,1-3.22,0Zm3.34-3.48a2,2,0,0,0-.22-.76,1.62,1.62,0,0,0-.6-.65,1.81,1.81,0,0,0-1-.27,1.72,1.72,0,0,0-1.22.47,2.12,2.12,0,0,0-.66,1.21Z"/><path class="cls-8" d="M676.84,65.3h1v.9h.05a2,2,0,0,1,.8-.77,2.35,2.35,0,0,1,1.18-.32,2.15,2.15,0,0,1,1.68.64,2.5,2.5,0,0,1,.58,1.75v3.92h-1V67.65a1.63,1.63,0,0,0-.4-1.23,1.57,1.57,0,0,0-1.12-.39,1.51,1.51,0,0,0-.88.28,1.94,1.94,0,0,0-.61.72,2.26,2.26,0,0,0-.21,1v3.44h-1Z"/><path class="cls-8" d="M684.68,71.19a2.81,2.81,0,0,1-1-1.16,3.49,3.49,0,0,1-.39-1.67,3.57,3.57,0,0,1,.39-1.67,2.88,2.88,0,0,1,1-1.16,2.72,2.72,0,0,1,1.49-.42,2.47,2.47,0,0,1,1.25.32,2.27,2.27,0,0,1,.84.78h0l0-.85V62.83h1v8.59h-1v-.9h0a2.35,2.35,0,0,1-.84.78,2.47,2.47,0,0,1-1.25.31A2.72,2.72,0,0,1,684.68,71.19Zm2.6-.79a2,2,0,0,0,.74-.81,2.57,2.57,0,0,0,.29-1.23,2.53,2.53,0,0,0-.29-1.22,2,2,0,0,0-.74-.82,1.88,1.88,0,0,0-1-.29,1.93,1.93,0,0,0-1,.29,2.13,2.13,0,0,0-.75.82,2.71,2.71,0,0,0-.28,1.22,2.67,2.67,0,0,0,.28,1.22,2.06,2.06,0,0,0,.75.82,1.93,1.93,0,0,0,1,.29A1.88,1.88,0,0,0,687.28,70.4Z"/><path class="cls-8" d="M691.88,71.19A2.88,2.88,0,0,1,690.8,70a3.48,3.48,0,0,1-.39-1.66,3.69,3.69,0,0,1,.36-1.62,3,3,0,0,1,1.05-1.2,2.81,2.81,0,0,1,1.55-.44,2.92,2.92,0,0,1,1.56.4,2.64,2.64,0,0,1,1,1.11,3.51,3.51,0,0,1,.36,1.62,1.71,1.71,0,0,1,0,.31h-4.84a2.37,2.37,0,0,0,.33,1.18,2,2,0,0,0,.76.72,2.08,2.08,0,0,0,1,.24,2,2,0,0,0,1.81-1.1l.87.42a3.16,3.16,0,0,1-1.07,1.17,3.26,3.26,0,0,1-3.22,0Zm3.34-3.48A2,2,0,0,0,695,67a1.49,1.49,0,0,0-.6-.65,1.81,1.81,0,0,0-1-.27,1.72,1.72,0,0,0-1.22.47,2.12,2.12,0,0,0-.66,1.21Z"/><path class="cls-8" d="M697.49,65.3h1v1h0a1.66,1.66,0,0,1,.69-.83,1.94,1.94,0,0,1,1.08-.34,1.75,1.75,0,0,1,.72.13v1.09a2,2,0,0,0-.86-.19,1.49,1.49,0,0,0-.82.25,1.86,1.86,0,0,0-.59.68,2,2,0,0,0-.22.92v3.43h-1Z"/><path class="cls-8" d="M737.3,62.83h2.89a2.87,2.87,0,0,1,1.33.32,2.6,2.6,0,0,1,1,.91,2.58,2.58,0,0,1,0,2.63,2.5,2.5,0,0,1-1,.9,2.76,2.76,0,0,1-1.33.33h-1.87v3.5h-1ZM740.21,67a1.61,1.61,0,0,0,.85-.23,1.69,1.69,0,0,0,.57-.59,1.53,1.53,0,0,0,0-1.51,1.69,1.69,0,0,0-.57-.59,1.61,1.61,0,0,0-.85-.23h-1.89V67Z"/><path class="cls-8" d="M744.52,71.35a2,2,0,0,1-.82-.73,1.92,1.92,0,0,1-.28-1.05,1.8,1.8,0,0,1,.73-1.52,3,3,0,0,1,1.85-.54,4.13,4.13,0,0,1,1,.12,2.47,2.47,0,0,1,.73.28v-.38a1.36,1.36,0,0,0-.48-1.09,1.78,1.78,0,0,0-1.21-.42,2.17,2.17,0,0,0-.95.22,1.8,1.8,0,0,0-.69.62l-.76-.58a2.45,2.45,0,0,1,1-.86,3.14,3.14,0,0,1,1.41-.31,2.78,2.78,0,0,1,2,.65,2.33,2.33,0,0,1,.71,1.79v3.87h-1v-.87h0a2.32,2.32,0,0,1-2,1.06A2.58,2.58,0,0,1,744.52,71.35Zm2.25-.9a1.93,1.93,0,0,0,.71-.71,1.82,1.82,0,0,0,.27-1,2.45,2.45,0,0,0-.71-.31,3.24,3.24,0,0,0-.89-.12,1.89,1.89,0,0,0-1.26.35,1.09,1.09,0,0,0-.43.9,1,1,0,0,0,.38.81,1.48,1.48,0,0,0,1,.31A1.78,1.78,0,0,0,746.77,70.45Z"/><path class="cls-8" d="M750.22,64a.74.74,0,0,1-.22-.52.71.71,0,0,1,.22-.52.75.75,0,0,1,1,0,.7.7,0,0,1,.21.52.73.73,0,0,1-.21.52.75.75,0,0,1-1,0Zm0,1.34h1v6.12h-1Z"/><path class="cls-8" d="M752.85,65.3h1v.9h0a2.05,2.05,0,0,1,.8-.77,2.35,2.35,0,0,1,1.18-.32,2.15,2.15,0,0,1,1.68.64,2.5,2.5,0,0,1,.59,1.75v3.92h-1V67.65a1.63,1.63,0,0,0-.41-1.23,1.56,1.56,0,0,0-1.12-.39,1.51,1.51,0,0,0-.88.28,1.94,1.94,0,0,0-.61.72,2.26,2.26,0,0,0-.21,1v3.44h-1Z"/><path class="cls-8" d="M760.94,71.49a1.49,1.49,0,0,1-.53-.33,1.7,1.7,0,0,1-.48-1.28V66.23h-1.07V65.3h1.07V63.57h1V65.3h1.5v.93H761v3.41a1.23,1.23,0,0,0,.19.76.81.81,0,0,0,.66.27,1.13,1.13,0,0,0,.67-.21v1a2.29,2.29,0,0,1-.37.12,3,3,0,0,1-.47,0A1.92,1.92,0,0,1,760.94,71.49Z"/><path class="cls-7" d="M16.73,93.36s-.89-9.28,8.39-9.28h100c9.27,0,8.39-9.27,8.39-9.27s-.88,9.27,8.39,9.27H242c9.27,0,8.39,9.28,8.39,9.28"/><path class="cls-8" d="M96.14,62.83h3.09a2.55,2.55,0,0,1,1.21.3,2.35,2.35,0,0,1,.91.83,2.2,2.2,0,0,1,.34,1.19,1.92,1.92,0,0,1-.32,1.09,2.1,2.1,0,0,1-.86.72V67a2.21,2.21,0,0,1,1.06.74A2,2,0,0,1,102,69a2.25,2.25,0,0,1-.35,1.25,2.49,2.49,0,0,1-1,.87,2.66,2.66,0,0,1-1.28.31H96.14Zm3.09,3.71a1.49,1.49,0,0,0,.76-.2,1.34,1.34,0,0,0,.51-.52,1.3,1.3,0,0,0,.18-.65,1.27,1.27,0,0,0-.18-.64A1.36,1.36,0,0,0,100,64a1.31,1.31,0,0,0-.74-.21H97.16v2.74Zm.22,3.91a1.39,1.39,0,0,0,.78-.22,1.55,1.55,0,0,0,.53-.55,1.53,1.53,0,0,0,.18-.71,1.39,1.39,0,0,0-.19-.7,1.5,1.5,0,0,0-.54-.55,1.52,1.52,0,0,0-.8-.21H97.16v2.94Z"/><path class="cls-8" d="M103.21,62.83h1v8.59h-1Z"/><path class="cls-8" d="M106.88,71.18A3.07,3.07,0,0,1,105.76,70a3.41,3.41,0,0,1-.4-1.65,3.35,3.35,0,0,1,.4-1.64,3,3,0,0,1,1.12-1.18,3.27,3.27,0,0,1,3.24,0,3,3,0,0,1,1.12,1.18,3.35,3.35,0,0,1,.41,1.64,3.42,3.42,0,0,1-.41,1.65,3,3,0,0,1-1.12,1.17,3.27,3.27,0,0,1-3.24,0Zm2.67-.77a2,2,0,0,0,.78-.81,2.47,2.47,0,0,0,.3-1.24,2.44,2.44,0,0,0-.3-1.23,1.91,1.91,0,0,0-.78-.81,2,2,0,0,0-1-.29,2.05,2.05,0,0,0-1,.29,2,2,0,0,0-.79.81,2.43,2.43,0,0,0-.29,1.23,2.47,2.47,0,0,0,.29,1.24,2.12,2.12,0,0,0,.79.81,2,2,0,0,0,1,.28A2,2,0,0,0,109.55,70.41Z"/><path class="cls-8" d="M114,71.19a3,3,0,0,1-1.1-1.17,3.37,3.37,0,0,1-.4-1.66,3.46,3.46,0,0,1,.4-1.67,2.93,2.93,0,0,1,1.1-1.16,3.06,3.06,0,0,1,1.6-.42,2.88,2.88,0,0,1,1.67.46,2.54,2.54,0,0,1,1,1.23l-.92.39a1.74,1.74,0,0,0-.68-.86,1.9,1.9,0,0,0-1.08-.3,1.84,1.84,0,0,0-1,.3,2.13,2.13,0,0,0-.75.82,2.51,2.51,0,0,0-.28,1.21,2.49,2.49,0,0,0,.28,1.21,2.16,2.16,0,0,0,.75.83,1.91,1.91,0,0,0,1,.29,2,2,0,0,0,1.11-.3,1.73,1.73,0,0,0,.7-.85l.91.38a2.73,2.73,0,0,1-1,1.23,2.92,2.92,0,0,1-1.67.46A3.06,3.06,0,0,1,114,71.19Z"/><path class="cls-8" d="M119.38,62.83h1v5.4l2.88-2.93h1.29v0l-2.4,2.42,2.47,3.6v0h-1.22l-2-2.94-1,1.06v1.88h-1Z"/><path class="cls-8" d="M125.53,64a.74.74,0,0,1-.22-.52.71.71,0,0,1,.22-.52.75.75,0,0,1,1,0,.7.7,0,0,1,.21.52.73.73,0,0,1-.21.52.75.75,0,0,1-1,0Zm0,1.34h1v6.12h-1Z"/><path class="cls-8" d="M128.16,65.3h1v.9h.05a2.05,2.05,0,0,1,.8-.77,2.35,2.35,0,0,1,1.18-.32,2.15,2.15,0,0,1,1.68.64,2.5,2.5,0,0,1,.59,1.75v3.92h-1V67.65a1.63,1.63,0,0,0-.41-1.23,1.56,1.56,0,0,0-1.12-.39,1.51,1.51,0,0,0-.88.28,1.94,1.94,0,0,0-.61.72,2.26,2.26,0,0,0-.21,1v3.44h-1Z"/><path class="cls-8" d="M135.74,73.7a2.45,2.45,0,0,1-1-1.21l.94-.4a1.72,1.72,0,0,0,.67.86,1.88,1.88,0,0,0,1.12.33,2,2,0,0,0,1.47-.53,2.08,2.08,0,0,0,.52-1.51v-.68h0a2.3,2.3,0,0,1-.84.76,2.68,2.68,0,0,1-1.25.29,2.6,2.6,0,0,1-1.44-.41,2.9,2.9,0,0,1-1-1.15,3.84,3.84,0,0,1,0-3.37,2.93,2.93,0,0,1,1-1.16,2.78,2.78,0,0,1,2.69-.12,2.26,2.26,0,0,1,.84.78h0V65.3h1v5.88a2.92,2.92,0,0,1-.82,2.25,3.34,3.34,0,0,1-3.92.27Zm2.78-3.29a2,2,0,0,0,.72-.81,2.64,2.64,0,0,0,.27-1.24,2.68,2.68,0,0,0-.27-1.25,1.94,1.94,0,0,0-.72-.8,1.84,1.84,0,0,0-1-.28,1.94,1.94,0,0,0-1,.28,2,2,0,0,0-.73.81,2.67,2.67,0,0,0-.27,1.24,2.71,2.71,0,0,0,.27,1.25,1.89,1.89,0,0,0,.73.8,1.94,1.94,0,0,0,2,0Z"/><path class="cls-8" d="M146.44,71.49a1.49,1.49,0,0,1-.53-.33,1.67,1.67,0,0,1-.48-1.28V66.23h-1.07V65.3h1.07V63.57h1V65.3H148v.93h-1.5v3.41a1.23,1.23,0,0,0,.19.76.81.81,0,0,0,.66.27,1.16,1.16,0,0,0,.67-.21v1a2.29,2.29,0,0,1-.37.12,3,3,0,0,1-.47,0A1.92,1.92,0,0,1,146.44,71.49Z"/><path class="cls-8" d="M149.8,71.35a2,2,0,0,1-.81-.73,1.92,1.92,0,0,1-.29-1.05,1.83,1.83,0,0,1,.73-1.52,3,3,0,0,1,1.85-.54,4.22,4.22,0,0,1,1,.12,2.39,2.39,0,0,1,.72.28v-.38a1.36,1.36,0,0,0-.48-1.09,1.76,1.76,0,0,0-1.21-.42,2.13,2.13,0,0,0-.94.22,1.8,1.8,0,0,0-.69.62l-.77-.58a2.48,2.48,0,0,1,1-.86,3.09,3.09,0,0,1,1.4-.31,2.81,2.81,0,0,1,2,.65,2.32,2.32,0,0,1,.7,1.79v3.87h-1v-.87h0a2.32,2.32,0,0,1-.8.75,2.25,2.25,0,0,1-1.19.31A2.64,2.64,0,0,1,149.8,71.35Zm2.26-.9a2,2,0,0,0,.71-.71,1.81,1.81,0,0,0,.26-1,2.51,2.51,0,0,0-.7-.31,3.3,3.3,0,0,0-.89-.12,1.92,1.92,0,0,0-1.27.35,1.12,1.12,0,0,0-.43.9,1,1,0,0,0,.39.81,1.47,1.47,0,0,0,1,.31A1.8,1.8,0,0,0,152.06,70.45Z"/><path class="cls-8" d="M155.85,71.15a2.49,2.49,0,0,1-.93-1.18l.91-.41a1.81,1.81,0,0,0,.68.85,1.75,1.75,0,0,0,1,.3,1.9,1.9,0,0,0,1-.23.75.75,0,0,0,.41-.67.72.72,0,0,0-.32-.61,3.14,3.14,0,0,0-1-.41l-.75-.19a2.63,2.63,0,0,1-1.2-.61,1.54,1.54,0,0,1-.15-2,2.07,2.07,0,0,1,.85-.61,2.86,2.86,0,0,1,1.14-.22,2.94,2.94,0,0,1,1.43.35,2,2,0,0,1,.9,1l-.89.41a1.48,1.48,0,0,0-1.45-.82,1.65,1.65,0,0,0-.89.24.68.68,0,0,0-.38.59.67.67,0,0,0,.27.55,2.17,2.17,0,0,0,.79.34l.89.23a2.94,2.94,0,0,1,1.36.67,1.5,1.5,0,0,1,.45,1.1,1.61,1.61,0,0,1-.32,1,2.11,2.11,0,0,1-.88.66,3.19,3.19,0,0,1-1.22.22A2.79,2.79,0,0,1,155.85,71.15Z"/><path class="cls-8" d="M161,62.83h1v5.4l2.88-2.93h1.29v0l-2.4,2.42,2.48,3.6v0h-1.23l-2-2.94-1.05,1.06v1.88h-1Z"/><path class="cls-8" d="M167.47,71.15a2.57,2.57,0,0,1-.94-1.18l.91-.41a1.87,1.87,0,0,0,.68.85,1.75,1.75,0,0,0,1,.3,1.93,1.93,0,0,0,1-.23.74.74,0,0,0,.4-.67.7.7,0,0,0-.32-.61,3.14,3.14,0,0,0-1-.41l-.74-.19a2.63,2.63,0,0,1-1.2-.61,1.54,1.54,0,0,1-.15-2,2,2,0,0,1,.84-.61,2.86,2.86,0,0,1,1.14-.22,3,3,0,0,1,1.44.35,2,2,0,0,1,.89,1l-.89.41A1.47,1.47,0,0,0,169,66a1.59,1.59,0,0,0-.88.24.68.68,0,0,0-.38.59.69.69,0,0,0,.26.55,2.15,2.15,0,0,0,.8.34l.88.23a2.89,2.89,0,0,1,1.36.67,1.51,1.51,0,0,1,.46,1.1,1.55,1.55,0,0,1-.33,1,2.08,2.08,0,0,1-.87.66,3.24,3.24,0,0,1-1.23.22A2.78,2.78,0,0,1,167.47,71.15Z"/><path class="cls-8" d="M718.35,148.72h2.89a2.73,2.73,0,0,1,1.33.33,2.43,2.43,0,0,1,1,.9,2.52,2.52,0,0,1,0,2.63,2.53,2.53,0,0,1-1,.91,2.84,2.84,0,0,1-1.33.32h-1.87v3.5h-1Zm2.92,4.12a1.55,1.55,0,0,0,.84-.23,1.53,1.53,0,0,0,.57-.59,1.46,1.46,0,0,0,0-1.51,1.53,1.53,0,0,0-.57-.59,1.55,1.55,0,0,0-.84-.23h-1.9v3.15Z"/><path class="cls-8" d="M725.06,151.19h1v1h.05a1.64,1.64,0,0,1,.69-.84,2,2,0,0,1,1.81-.21v1.1a1.92,1.92,0,0,0-.87-.2,1.45,1.45,0,0,0-.82.26,1.79,1.79,0,0,0-.59.68,1.92,1.92,0,0,0-.22.92v3.42h-1Z"/><path class="cls-8" d="M730.35,157.09a2.88,2.88,0,0,1-1.08-1.16,3.4,3.4,0,0,1-.4-1.66,3.71,3.71,0,0,1,.37-1.63,2.87,2.87,0,0,1,1-1.19,2.77,2.77,0,0,1,1.56-.45,3,3,0,0,1,1.56.4,2.64,2.64,0,0,1,1,1.11,3.57,3.57,0,0,1,.36,1.62,1.91,1.91,0,0,1,0,.32h-4.85a2.48,2.48,0,0,0,.34,1.17,1.94,1.94,0,0,0,.76.72,2.08,2.08,0,0,0,1,.24,2,2,0,0,0,1.81-1.1l.87.42a3.1,3.1,0,0,1-1.07,1.17,3,3,0,0,1-1.65.44A3,3,0,0,1,730.35,157.09Zm3.34-3.48a2,2,0,0,0-.22-.77,1.69,1.69,0,0,0-.6-.65,1.83,1.83,0,0,0-1-.26,1.76,1.76,0,0,0-1.23.46,2.27,2.27,0,0,0-.66,1.22Z"/><path class="cls-8" d="M736.51,157a2.46,2.46,0,0,1-.94-1.18l.91-.41a1.84,1.84,0,0,0,.68.86,1.75,1.75,0,0,0,1,.3,1.9,1.9,0,0,0,1-.24.71.71,0,0,0,.41-.66.73.73,0,0,0-.32-.62,3,3,0,0,0-1-.4l-.75-.2a2.73,2.73,0,0,1-1.2-.61,1.45,1.45,0,0,1-.46-1.11,1.43,1.43,0,0,1,.31-.93,2.06,2.06,0,0,1,.85-.62,2.86,2.86,0,0,1,1.14-.22,2.91,2.91,0,0,1,1.43.35,2,2,0,0,1,.9,1l-.89.41a1.49,1.49,0,0,0-1.45-.82,1.59,1.59,0,0,0-.88.24.66.66,0,0,0-.38.59.68.68,0,0,0,.26.55,2.17,2.17,0,0,0,.79.34l.89.23a2.94,2.94,0,0,1,1.36.68,1.48,1.48,0,0,1,.45,1.09,1.55,1.55,0,0,1-.32,1,2,2,0,0,1-.88.66,3.16,3.16,0,0,1-1.22.23A2.76,2.76,0,0,1,736.51,157Z"/><path class="cls-8" d="M742.9,157.09a3,3,0,0,1-1.08-1.16,3.51,3.51,0,0,1-.39-1.66,3.71,3.71,0,0,1,.36-1.63,2.89,2.89,0,0,1,1.05-1.19,2.74,2.74,0,0,1,1.55-.45,3,3,0,0,1,1.56.4,2.64,2.64,0,0,1,1,1.11,3.57,3.57,0,0,1,.36,1.62,1.91,1.91,0,0,1,0,.32h-4.84a2.37,2.37,0,0,0,.33,1.17,2,2,0,0,0,.76.72,2.08,2.08,0,0,0,1,.24,2,2,0,0,0,1.81-1.1l.87.42a3.1,3.1,0,0,1-1.07,1.17,3,3,0,0,1-1.65.44A3,3,0,0,1,742.9,157.09Zm3.34-3.48a2,2,0,0,0-.22-.77,1.69,1.69,0,0,0-.6-.65,1.81,1.81,0,0,0-1-.26,1.72,1.72,0,0,0-1.22.46,2.15,2.15,0,0,0-.66,1.22Z"/><path class="cls-8" d="M748.51,151.19h1v.9h0a2,2,0,0,1,.8-.77,2.35,2.35,0,0,1,1.18-.32,2.18,2.18,0,0,1,1.68.64,2.5,2.5,0,0,1,.58,1.75v3.92h-1v-3.76a1.65,1.65,0,0,0-.4-1.24,1.57,1.57,0,0,0-1.12-.38,1.5,1.5,0,0,0-.88.27,2,2,0,0,0-.61.73,2.19,2.19,0,0,0-.21.94v3.44h-1Z"/><path class="cls-8" d="M756.6,157.38a1.49,1.49,0,0,1-.53-.33,1.69,1.69,0,0,1-.48-1.28v-3.65h-1.07v-.93h1.07v-1.72h1v1.72h1.5v.93h-1.5v3.41a1.23,1.23,0,0,0,.19.76.81.81,0,0,0,.66.27,1.13,1.13,0,0,0,.67-.21v1a1.23,1.23,0,0,1-.37.12,2.84,2.84,0,0,1-.47,0A1.93,1.93,0,0,1,756.6,157.38Z"/><path class="cls-8" d="M760,157.24a1.93,1.93,0,0,1-.82-.72,2,2,0,0,1-.29-1.05,1.8,1.8,0,0,1,.73-1.52,3,3,0,0,1,1.85-.55,4.22,4.22,0,0,1,1,.12,2.39,2.39,0,0,1,.72.28v-.37a1.37,1.37,0,0,0-.48-1.1,1.76,1.76,0,0,0-1.21-.42,2,2,0,0,0-.94.23,1.7,1.7,0,0,0-.69.61l-.77-.57a2.43,2.43,0,0,1,1-.87,3.23,3.23,0,0,1,1.4-.31,2.77,2.77,0,0,1,2,.66,2.3,2.3,0,0,1,.71,1.78v3.87h-1v-.87h0a2.15,2.15,0,0,1-.8.75,2.24,2.24,0,0,1-1.18.32A2.59,2.59,0,0,1,760,157.24Zm2.25-.9a1.93,1.93,0,0,0,.71-.71,1.81,1.81,0,0,0,.26-1,2.38,2.38,0,0,0-.7-.31,3.24,3.24,0,0,0-.89-.12,2,2,0,0,0-1.27.35,1.11,1.11,0,0,0-.42.9,1,1,0,0,0,.38.81,1.49,1.49,0,0,0,1,.32A1.78,1.78,0,0,0,762.22,156.34Z"/><path class="cls-8" d="M767.12,157.38a1.49,1.49,0,0,1-.53-.33,1.69,1.69,0,0,1-.48-1.28v-3.65H765v-.93h1.07v-1.72h1v1.72h1.5v.93h-1.5v3.41a1.23,1.23,0,0,0,.19.76.81.81,0,0,0,.66.27,1.13,1.13,0,0,0,.67-.21v1a1.27,1.27,0,0,1-.36.12,3,3,0,0,1-.48,0A2,2,0,0,1,767.12,157.38Z"/><path class="cls-8" d="M770,149.85a.73.73,0,0,1,.51-1.25.74.74,0,0,1,.53,1.25.73.73,0,0,1-.53.22A.7.7,0,0,1,770,149.85Zm0,1.34h1v6.12h-1Z"/><path class="cls-8" d="M773.77,157.07a3,3,0,0,1-1.13-1.17,3.53,3.53,0,0,1-.4-1.65,3.49,3.49,0,0,1,.4-1.64,3.05,3.05,0,0,1,1.13-1.18,3.27,3.27,0,0,1,3.24,0,3,3,0,0,1,1.12,1.18,3.37,3.37,0,0,1,.4,1.64,3.41,3.41,0,0,1-.4,1.65,3,3,0,0,1-1.12,1.17,3.2,3.2,0,0,1-3.24,0Zm2.67-.77a2.17,2.17,0,0,0,.78-.81,2.77,2.77,0,0,0,0-2.47,2.17,2.17,0,0,0-.78-.81,2.13,2.13,0,0,0-2.11,0,2.12,2.12,0,0,0-.79.81,2.77,2.77,0,0,0,0,2.47,2.12,2.12,0,0,0,.79.81,2.13,2.13,0,0,0,2.11,0Z"/><path class="cls-8" d="M779.6,151.19h1v.9h0a2.05,2.05,0,0,1,.8-.77,2.35,2.35,0,0,1,1.18-.32,2.17,2.17,0,0,1,1.68.64,2.5,2.5,0,0,1,.59,1.75v3.92h-1v-3.76a1.65,1.65,0,0,0-.41-1.24,1.55,1.55,0,0,0-1.12-.38,1.5,1.5,0,0,0-.88.27,2,2,0,0,0-.61.73,2.19,2.19,0,0,0-.21.94v3.44h-1Z"/><path class="cls-8" d="M790.22,157.09a3,3,0,0,1-1.05-1.16,3.86,3.86,0,0,1,0-3.34,3,3,0,0,1,1.05-1.17,2.78,2.78,0,0,1,1.5-.42,2.5,2.5,0,0,1,1.25.32,2.37,2.37,0,0,1,.84.79h0l0-.86v-2.53h1v8.59h-1v-.9h0a2.44,2.44,0,0,1-.84.78,2.5,2.5,0,0,1-1.25.32A2.78,2.78,0,0,1,790.22,157.09Zm2.61-.8a2.08,2.08,0,0,0,.74-.81,2.82,2.82,0,0,0,0-2.45,2.18,2.18,0,0,0-.74-.82,1.93,1.93,0,0,0-2,0,2.16,2.16,0,0,0-.75.83,2.78,2.78,0,0,0,0,2.43,2.06,2.06,0,0,0,.75.82,1.87,1.87,0,0,0,2,0Z"/><path class="cls-8" d="M797.43,157.09a3,3,0,0,1-1.09-1.16,3.51,3.51,0,0,1-.39-1.66,3.71,3.71,0,0,1,.37-1.63,2.87,2.87,0,0,1,1-1.19,2.77,2.77,0,0,1,1.56-.45,3,3,0,0,1,1.56.4,2.64,2.64,0,0,1,1,1.11,3.57,3.57,0,0,1,.36,1.62,1.91,1.91,0,0,1,0,.32H797a2.48,2.48,0,0,0,.34,1.17,1.94,1.94,0,0,0,.76.72,2.08,2.08,0,0,0,1,.24,2,2,0,0,0,1.81-1.1l.86.42a3,3,0,0,1-1.06,1.17,3,3,0,0,1-1.65.44A3,3,0,0,1,797.43,157.09Zm3.34-3.48a2,2,0,0,0-.22-.77,1.69,1.69,0,0,0-.6-.65,1.83,1.83,0,0,0-1-.26,1.76,1.76,0,0,0-1.23.46,2.27,2.27,0,0,0-.66,1.22Z"/><path class="cls-8" d="M803,148.72h1v8.59h-1Z"/><path class="cls-8" d="M806.26,157.24a2,2,0,0,1-.81-.72,1.89,1.89,0,0,1-.29-1.05,1.78,1.78,0,0,1,.73-1.52,3,3,0,0,1,1.85-.55,4.13,4.13,0,0,1,1,.12,2.47,2.47,0,0,1,.73.28v-.37a1.37,1.37,0,0,0-.48-1.1,1.76,1.76,0,0,0-1.21-.42,2,2,0,0,0-.94.23,1.58,1.58,0,0,0-.69.61l-.77-.57a2.47,2.47,0,0,1,1-.87,3.31,3.31,0,0,1,1.41-.31,2.74,2.74,0,0,1,2,.66,2.3,2.3,0,0,1,.71,1.78v3.87h-1v-.87h0a2.12,2.12,0,0,1-.79.75,2.28,2.28,0,0,1-1.19.32A2.59,2.59,0,0,1,806.26,157.24Zm2.26-.9a1.91,1.91,0,0,0,.7-.71,1.82,1.82,0,0,0,.27-1,2.45,2.45,0,0,0-.71-.31,3.19,3.19,0,0,0-.89-.12,2,2,0,0,0-1.26.35,1.09,1.09,0,0,0-.43.9,1,1,0,0,0,.39.81,1.47,1.47,0,0,0,1,.32A1.84,1.84,0,0,0,808.52,156.34Z"/><path class="cls-8" d="M813.63,156.93l-2.53-5.74h1.1l1.92,4.55h0l1.85-4.55h1.11l-3.78,8.72h-1.06Z"/><path class="cls-8" d="M920.2,43.22h5v1h-3.95v2.94h3.57v1h-3.57v3.72h-1Z"/><path class="cls-8" d="M926.13,45.7h1v1h0a1.62,1.62,0,0,1,.7-.84,2,2,0,0,1,1.08-.34,1.74,1.74,0,0,1,.72.14v1.09a1.92,1.92,0,0,0-.87-.19,1.41,1.41,0,0,0-.81.25,1.8,1.8,0,0,0-.6.68,2,2,0,0,0-.22.92v3.43h-1Z"/><path class="cls-8" d="M931.15,51.74a1.92,1.92,0,0,1-.82-.72A2,2,0,0,1,930,50a1.78,1.78,0,0,1,.74-1.52,3,3,0,0,1,1.84-.55,4.16,4.16,0,0,1,1,.12,2.78,2.78,0,0,1,.73.28v-.37a1.38,1.38,0,0,0-.48-1.1,1.78,1.78,0,0,0-1.22-.41,2,2,0,0,0-.94.22,1.72,1.72,0,0,0-.69.62l-.77-.58a2.4,2.4,0,0,1,1-.86,3.1,3.1,0,0,1,1.4-.32,2.75,2.75,0,0,1,2,.66,2.3,2.3,0,0,1,.71,1.78v3.88h-1v-.88h0a2.22,2.22,0,0,1-.79.76,2.4,2.4,0,0,1-1.19.31A2.59,2.59,0,0,1,931.15,51.74Zm2.25-.9a1.91,1.91,0,0,0,.71-.7,1.85,1.85,0,0,0,.27-1,2.92,2.92,0,0,0-.71-.31,3.24,3.24,0,0,0-.89-.12,2,2,0,0,0-1.26.35,1.09,1.09,0,0,0-.43.9,1,1,0,0,0,.38.82,1.54,1.54,0,0,0,1,.31A1.78,1.78,0,0,0,933.4,50.84Z"/><path class="cls-8" d="M936.76,45.7h1v.9h0a2,2,0,0,1,.8-.78,2.13,2.13,0,0,1,1.11-.32,2.06,2.06,0,0,1,1.17.33,1.83,1.83,0,0,1,.72.86,2.42,2.42,0,0,1,.85-.86,2.33,2.33,0,0,1,1.25-.33,2,2,0,0,1,1.59.65,2.66,2.66,0,0,1,.53,1.74v3.93h-1V48.05a1.78,1.78,0,0,0-.35-1.24,1.33,1.33,0,0,0-1-.38,1.46,1.46,0,0,0-.83.26,1.85,1.85,0,0,0-.58.71,2.24,2.24,0,0,0-.21,1v3.46h-1V48.06a1.8,1.8,0,0,0-.35-1.25,1.32,1.32,0,0,0-1-.38,1.34,1.34,0,0,0-.82.27,1.82,1.82,0,0,0-.59.72,2.24,2.24,0,0,0-.21,1v3.44h-1Z"/><path class="cls-8" d="M948.43,51.59a2.9,2.9,0,0,1-1.09-1.16,3.51,3.51,0,0,1-.39-1.66,3.58,3.58,0,0,1,.37-1.63,2.87,2.87,0,0,1,1-1.19,2.75,2.75,0,0,1,1.56-.45,2.93,2.93,0,0,1,1.56.41,2.53,2.53,0,0,1,1,1.11,3.51,3.51,0,0,1,.36,1.62,1.8,1.8,0,0,1,0,.31H948a2.48,2.48,0,0,0,.34,1.17,1.94,1.94,0,0,0,.76.72,2.08,2.08,0,0,0,1,.24,2,2,0,0,0,1.81-1.1l.86.42A2.93,2.93,0,0,1,950,52,3,3,0,0,1,948.43,51.59Zm3.34-3.48a2,2,0,0,0-.22-.77,1.69,1.69,0,0,0-.6-.65,1.92,1.92,0,0,0-1-.26,1.76,1.76,0,0,0-1.23.46,2.27,2.27,0,0,0-.66,1.22Z"/><path class="cls-8" d="M956.77,45.7h1v.91h0a2.19,2.19,0,0,1,.83-.79,2.51,2.51,0,0,1,1.26-.32,2.72,2.72,0,0,1,1.49.42,3,3,0,0,1,1,1.17,3.86,3.86,0,0,1,0,3.34,3,3,0,0,1-1,1.16,2.72,2.72,0,0,1-1.49.42,2.51,2.51,0,0,1-1.26-.32,2.22,2.22,0,0,1-.83-.77h0l0,.84v2.65h-1Zm4,5.1a2.12,2.12,0,0,0,.75-.82,2.91,2.91,0,0,0,0-2.45,2,2,0,0,0-.75-.81,1.85,1.85,0,0,0-2,0,2.1,2.1,0,0,0-.75.81A2.82,2.82,0,0,0,958,50a2.2,2.2,0,0,0,.75.82,1.91,1.91,0,0,0,2,0Z"/><path class="cls-8" d="M963.93,45.7h1v1H965a1.62,1.62,0,0,1,.7-.84,2,2,0,0,1,1.08-.34,1.74,1.74,0,0,1,.72.14v1.09a1.92,1.92,0,0,0-.87-.19,1.41,1.41,0,0,0-.81.25,1.8,1.8,0,0,0-.6.68,1.92,1.92,0,0,0-.22.92v3.43h-1Z"/><path class="cls-8" d="M969.22,51.59a3,3,0,0,1-1.08-1.16,3.51,3.51,0,0,1-.39-1.66,3.71,3.71,0,0,1,.36-1.63,3,3,0,0,1,1-1.19,2.74,2.74,0,0,1,1.55-.45,2.93,2.93,0,0,1,1.56.41,2.61,2.61,0,0,1,1,1.11,3.64,3.64,0,0,1,.35,1.62c0,.09,0,.2,0,.31h-4.85a2.37,2.37,0,0,0,.33,1.17,2,2,0,0,0,.77.72,2,2,0,0,0,1,.24,1.94,1.94,0,0,0,1.81-1.1l.87.42a3.12,3.12,0,0,1-4.29,1.19Zm3.34-3.48a2.22,2.22,0,0,0-.21-.77,1.64,1.64,0,0,0-.61-.65,1.89,1.89,0,0,0-1-.26,1.72,1.72,0,0,0-1.22.46,2.15,2.15,0,0,0-.66,1.22Z"/><path class="cls-8" d="M975.38,51.55a2.6,2.6,0,0,1-.94-1.19l.91-.4a1.93,1.93,0,0,0,.68.85,1.75,1.75,0,0,0,1,.3,1.91,1.91,0,0,0,1-.24.74.74,0,0,0,.08-1.28,2.79,2.79,0,0,0-1-.4l-.74-.19a2.64,2.64,0,0,1-1.2-.62,1.44,1.44,0,0,1-.47-1.11,1.48,1.48,0,0,1,.32-.93,2,2,0,0,1,.84-.62A3.12,3.12,0,0,1,977,45.5a3,3,0,0,1,1.44.35,1.94,1.94,0,0,1,.89,1l-.89.41a1.47,1.47,0,0,0-1.45-.81,1.61,1.61,0,0,0-.88.23.69.69,0,0,0-.38.59.66.66,0,0,0,.27.55,2.09,2.09,0,0,0,.79.34l.89.23A2.86,2.86,0,0,1,979,49a1.46,1.46,0,0,1,.46,1.1,1.6,1.6,0,0,1-.33,1,2.06,2.06,0,0,1-.87.65A3.25,3.25,0,0,1,977,52,2.86,2.86,0,0,1,975.38,51.55Z"/><path class="cls-8" d="M981.77,51.59a3,3,0,0,1-1.08-1.16,3.51,3.51,0,0,1-.39-1.66,3.58,3.58,0,0,1,.37-1.63,2.87,2.87,0,0,1,1-1.19,2.74,2.74,0,0,1,1.55-.45,2.93,2.93,0,0,1,1.56.41,2.61,2.61,0,0,1,1,1.11,3.64,3.64,0,0,1,.35,1.62c0,.09,0,.2,0,.31h-4.85a2.27,2.27,0,0,0,.34,1.17,1.88,1.88,0,0,0,.76.72,2,2,0,0,0,1,.24,1.94,1.94,0,0,0,1.81-1.1l.87.42a3.12,3.12,0,0,1-4.29,1.19Zm3.34-3.48a2,2,0,0,0-.21-.77,1.64,1.64,0,0,0-.61-.65,1.89,1.89,0,0,0-1-.26,1.72,1.72,0,0,0-1.22.46,2.15,2.15,0,0,0-.66,1.22Z"/><path class="cls-8" d="M987.38,45.7h1v.9h0a2.07,2.07,0,0,1,.8-.78,2.35,2.35,0,0,1,1.18-.32,2.18,2.18,0,0,1,1.69.65,2.52,2.52,0,0,1,.58,1.74v3.93h-1V48.05a1.65,1.65,0,0,0-.41-1.24,1.58,1.58,0,0,0-1.12-.38,1.5,1.5,0,0,0-.88.27,2,2,0,0,0-.61.73,2.19,2.19,0,0,0-.21.94v3.45h-1Z"/><path class="cls-8" d="M995.47,51.89a1.84,1.84,0,0,1-.53-.33,1.71,1.71,0,0,1-.48-1.29V46.62h-1.07V45.7h1.07V44h1V45.7H997v.92h-1.5V50a1.22,1.22,0,0,0,.19.76.81.81,0,0,0,.66.27,1.2,1.2,0,0,0,.67-.2v1a1.27,1.27,0,0,1-.36.12,2.21,2.21,0,0,1-.48,0A2,2,0,0,1,995.47,51.89Z"/><path class="cls-8" d="M999.09,51.59A3,3,0,0,1,998,50.43a3.51,3.51,0,0,1-.4-1.66,3.71,3.71,0,0,1,.37-1.63A2.94,2.94,0,0,1,999,46a2.79,2.79,0,0,1,1.56-.45,2.93,2.93,0,0,1,1.56.41,2.53,2.53,0,0,1,1,1.11,3.51,3.51,0,0,1,.36,1.62,1.8,1.8,0,0,1,0,.31h-4.84a2.37,2.37,0,0,0,.33,1.17,2,2,0,0,0,.76.72,2.08,2.08,0,0,0,1,.24,2,2,0,0,0,1.81-1.1l.87.42a3.1,3.1,0,0,1-1.07,1.17,3,3,0,0,1-1.65.44A3,3,0,0,1,999.09,51.59Zm3.34-3.48a2,2,0,0,0-.22-.77,1.69,1.69,0,0,0-.6-.65,1.89,1.89,0,0,0-1-.26,1.76,1.76,0,0,0-1.23.46,2.27,2.27,0,0,0-.66,1.22Z"/><path class="cls-8" d="M1005.86,51.59a2.92,2.92,0,0,1-1-1.16,3.77,3.77,0,0,1,0-3.34,2.89,2.89,0,0,1,1-1.17,2.78,2.78,0,0,1,1.5-.42,2.5,2.5,0,0,1,1.25.32,2.37,2.37,0,0,1,.84.79h0l0-.85V43.22h1v8.6h-1v-.9h0a2.42,2.42,0,0,1-.84.77,2.5,2.5,0,0,1-1.25.32A2.78,2.78,0,0,1,1005.86,51.59Zm2.61-.79a2.18,2.18,0,0,0,.74-.82,2.73,2.73,0,0,0,0-2.45,2.08,2.08,0,0,0-.74-.81,1.87,1.87,0,0,0-2,0,2.06,2.06,0,0,0-.75.82,2.78,2.78,0,0,0,0,2.43,2.16,2.16,0,0,0,.75.83,1.93,1.93,0,0,0,2,0Z"/><path class="cls-8" d="M1012.1,51.59a.76.76,0,0,1-.22-.54.78.78,0,0,1,1.32-.54.73.73,0,0,1,.22.54.72.72,0,0,1-.22.54.77.77,0,0,1-1.1,0Zm0-5.45V43.22h1v2.92l-.12,3.14h-.77Z"/><path class="cls-8" d="M246.4,43.22h1v8.6h-1Z"/><path class="cls-8" d="M249.13,45.7h1v.9h0a2,2,0,0,1,.81-.78,2.34,2.34,0,0,1,1.17-.32,2.16,2.16,0,0,1,1.69.65,2.47,2.47,0,0,1,.58,1.74v3.93h-1V48.05a1.61,1.61,0,0,0-.41-1.24,1.57,1.57,0,0,0-1.11-.38,1.5,1.5,0,0,0-.88.27,1.89,1.89,0,0,0-.61.73,2.2,2.2,0,0,0-.22.94v3.45h-1Z"/><path class="cls-8" d="M255.82,45.7h1v.91h0a2.19,2.19,0,0,1,.83-.79,2.51,2.51,0,0,1,1.26-.32,2.72,2.72,0,0,1,1.49.42,3,3,0,0,1,1.05,1.17,3.86,3.86,0,0,1,0,3.34,3,3,0,0,1-1.05,1.16,2.72,2.72,0,0,1-1.49.42,2.51,2.51,0,0,1-1.26-.32,2.22,2.22,0,0,1-.83-.77h0l0,.84v2.65h-1Zm4,5.1a2.12,2.12,0,0,0,.75-.82,2.91,2.91,0,0,0,0-2.45,2,2,0,0,0-.75-.81,1.85,1.85,0,0,0-2,0,2.1,2.1,0,0,0-.75.81,2.82,2.82,0,0,0,0,2.45,2.2,2.2,0,0,0,.75.82,1.91,1.91,0,0,0,2,0Z"/><path class="cls-8" d="M263.52,51.36a2.61,2.61,0,0,1-.59-1.81V45.7h1v3.69a1.83,1.83,0,0,0,.4,1.29,1.42,1.42,0,0,0,1.07.4,1.63,1.63,0,0,0,.92-.27,2,2,0,0,0,.84-1.66V45.7h1v6.12h-1v-.89h-.05a2.05,2.05,0,0,1-.8.77,2.45,2.45,0,0,1-1.18.31A2.14,2.14,0,0,1,263.52,51.36Z"/><path class="cls-8" d="M271.44,51.89a1.9,1.9,0,0,1-.54-.33,1.71,1.71,0,0,1-.48-1.29V46.62h-1.07V45.7h1.07V44h1V45.7h1.5v.92h-1.5V50a1.28,1.28,0,0,0,.19.76.84.84,0,0,0,.66.27,1.23,1.23,0,0,0,.68-.2v1a1.33,1.33,0,0,1-.37.12,2.05,2.05,0,0,1-.47,0A1.92,1.92,0,0,1,271.44,51.89Z"/><path class="cls-8" d="M277,45.7h1v1H278a1.62,1.62,0,0,1,.7-.84,2,2,0,0,1,1.08-.34,1.74,1.74,0,0,1,.72.14v1.09a1.92,1.92,0,0,0-.87-.19,1.39,1.39,0,0,0-.81.25,1.8,1.8,0,0,0-.6.68,1.92,1.92,0,0,0-.22.92v3.43h-1Z"/><path class="cls-8" d="M282.24,51.59a3,3,0,0,1-1.08-1.16,3.51,3.51,0,0,1-.39-1.66,3.71,3.71,0,0,1,.36-1.63A2.89,2.89,0,0,1,282.18,46a2.74,2.74,0,0,1,1.55-.45,2.93,2.93,0,0,1,1.56.41,2.53,2.53,0,0,1,1,1.11,3.51,3.51,0,0,1,.36,1.62,1.8,1.8,0,0,1,0,.31h-4.84a2.37,2.37,0,0,0,.33,1.17,2,2,0,0,0,.76.72,2.08,2.08,0,0,0,1,.24,2,2,0,0,0,1.81-1.1l.87.42a3.1,3.1,0,0,1-1.07,1.17,3,3,0,0,1-1.65.44A3,3,0,0,1,282.24,51.59Zm3.34-3.48a2,2,0,0,0-.22-.77,1.69,1.69,0,0,0-.6-.65,1.89,1.89,0,0,0-1-.26,1.72,1.72,0,0,0-1.22.46,2.15,2.15,0,0,0-.66,1.22Z"/><path class="cls-8" d="M289.08,51.58a2.93,2.93,0,0,1-1.1-1.16,3.67,3.67,0,0,1,0-3.33,2.89,2.89,0,0,1,1.1-1.17,3.06,3.06,0,0,1,1.6-.42,2.88,2.88,0,0,1,1.67.47,2.52,2.52,0,0,1,1,1.23l-.93.38a1.77,1.77,0,0,0-.67-.86,2,2,0,0,0-1.09-.29,1.91,1.91,0,0,0-1,.29,2.2,2.2,0,0,0-.75.82,2.55,2.55,0,0,0-.28,1.22,2.51,2.51,0,0,0,.28,1.21,2.2,2.2,0,0,0,.75.82,1.83,1.83,0,0,0,1,.29,2,2,0,0,0,1.11-.3,1.73,1.73,0,0,0,.7-.85l.91.39a2.64,2.64,0,0,1-1,1.22,2.93,2.93,0,0,1-1.67.47A3,3,0,0,1,289.08,51.58Z"/><path class="cls-8" d="M295.55,51.59a3,3,0,0,1-1.09-1.16,3.51,3.51,0,0,1-.39-1.66,3.71,3.71,0,0,1,.37-1.63,2.87,2.87,0,0,1,1-1.19A2.77,2.77,0,0,1,297,45.5a2.93,2.93,0,0,1,1.56.41,2.53,2.53,0,0,1,1,1.11,3.51,3.51,0,0,1,.36,1.62,1.8,1.8,0,0,1,0,.31h-4.85a2.48,2.48,0,0,0,.34,1.17,1.94,1.94,0,0,0,.76.72,2.08,2.08,0,0,0,1,.24A2,2,0,0,0,299,50l.86.42a3,3,0,0,1-1.06,1.17,3,3,0,0,1-1.65.44A3,3,0,0,1,295.55,51.59Zm3.34-3.48a2,2,0,0,0-.22-.77,1.69,1.69,0,0,0-.6-.65,1.92,1.92,0,0,0-1-.26,1.76,1.76,0,0,0-1.23.46,2.27,2.27,0,0,0-.66,1.22Z"/><path class="cls-8" d="M301.24,44.35a.67.67,0,0,1-.22-.51.73.73,0,0,1,.73-.74.72.72,0,0,1,.53.21.77.77,0,0,1,.21.53.74.74,0,0,1-.21.51.69.69,0,0,1-.53.22A.67.67,0,0,1,301.24,44.35Zm0,1.35h1v6.12h-1Z"/><path class="cls-8" d="M303.19,45.7h1.1l1.89,4.92h0l1.92-4.92h1.07l-2.49,6.12h-1Z"/><path class="cls-8" d="M311,51.59a2.9,2.9,0,0,1-1.09-1.16,3.51,3.51,0,0,1-.39-1.66,3.58,3.58,0,0,1,.37-1.63,2.87,2.87,0,0,1,1-1.19,2.74,2.74,0,0,1,1.55-.45,2.93,2.93,0,0,1,1.56.41,2.61,2.61,0,0,1,1,1.11,3.64,3.64,0,0,1,.35,1.62c0,.09,0,.2,0,.31h-4.85a2.37,2.37,0,0,0,.34,1.17,1.94,1.94,0,0,0,.76.72,2,2,0,0,0,1,.24,2,2,0,0,0,1.82-1.1l.86.42a3,3,0,0,1-1.07,1.17,3.21,3.21,0,0,1-3.21,0Zm3.33-3.48a2,2,0,0,0-.21-.77,1.69,1.69,0,0,0-.6-.65,2,2,0,0,0-1-.26,1.73,1.73,0,0,0-1.22.46,2.15,2.15,0,0,0-.66,1.22Z"/><path class="cls-8" d="M317.78,51.59a3,3,0,0,1-1-1.16,3.77,3.77,0,0,1,0-3.34,2.91,2.91,0,0,1,1-1.17,2.72,2.72,0,0,1,1.49-.42,2.47,2.47,0,0,1,1.25.32,2.29,2.29,0,0,1,.84.79h.05l-.05-.85V43.22h1v8.6h-1v-.9h-.05a2.33,2.33,0,0,1-.84.77,2.47,2.47,0,0,1-1.25.32A2.72,2.72,0,0,1,317.78,51.59Zm2.6-.79a2.2,2.2,0,0,0,.75-.82,2.82,2.82,0,0,0,0-2.45,2.1,2.1,0,0,0-.75-.81,1.77,1.77,0,0,0-1-.29,1.84,1.84,0,0,0-1,.29,2.06,2.06,0,0,0-.75.82,2.78,2.78,0,0,0,0,2.43,2.16,2.16,0,0,0,.75.83,1.92,1.92,0,0,0,1,.28A1.84,1.84,0,0,0,320.38,50.8Z"/><path class="cls-8" d="M417.58,148.72h2.89a2.8,2.8,0,0,1,1.34.33,2.47,2.47,0,0,1,1,.9,2.52,2.52,0,0,1,0,2.63,2.57,2.57,0,0,1-1,.91,2.91,2.91,0,0,1-1.34.32H418.6v3.5h-1Zm2.92,4.12a1.55,1.55,0,0,0,.84-.23,1.53,1.53,0,0,0,.57-.59,1.46,1.46,0,0,0,0-1.51,1.53,1.53,0,0,0-.57-.59,1.55,1.55,0,0,0-.84-.23h-1.9v3.15Z"/><path class="cls-8" d="M424.29,151.19h1v1h.05a1.62,1.62,0,0,1,.7-.84,1.89,1.89,0,0,1,1.08-.34,1.93,1.93,0,0,1,.72.13v1.1a1.92,1.92,0,0,0-.87-.2,1.39,1.39,0,0,0-.81.26,1.73,1.73,0,0,0-.6.68,1.92,1.92,0,0,0-.22.92v3.42h-1Z"/><path class="cls-8" d="M429.63,157.07a2.93,2.93,0,0,1-1.12-1.17,3.42,3.42,0,0,1-.41-1.65,3.38,3.38,0,0,1,.41-1.64,3,3,0,0,1,1.12-1.18,3.27,3.27,0,0,1,3.24,0,3,3,0,0,1,1.12,1.18,3.37,3.37,0,0,1,.4,1.64,3.41,3.41,0,0,1-.4,1.65,3,3,0,0,1-1.12,1.17,3.2,3.2,0,0,1-3.24,0Zm2.67-.77a2.17,2.17,0,0,0,.78-.81,2.77,2.77,0,0,0,0-2.47,2.17,2.17,0,0,0-.78-.81,2,2,0,0,0-1.05-.28,2.08,2.08,0,0,0-1.06.28,2,2,0,0,0-.78.81,2.69,2.69,0,0,0,0,2.47,2,2,0,0,0,.78.81,2.08,2.08,0,0,0,1.06.28A2,2,0,0,0,432.3,156.3Z"/><path class="cls-8" d="M436.76,157.08a3,3,0,0,1-1.11-1.16,3.55,3.55,0,0,1-.39-1.67,3.51,3.51,0,0,1,.39-1.66,3,3,0,0,1,1.11-1.17,3,3,0,0,1,1.59-.42,3,3,0,0,1,1.68.46,2.54,2.54,0,0,1,1,1.23l-.92.39a1.79,1.79,0,0,0-.68-.86,1.9,1.9,0,0,0-1.08-.29,1.83,1.83,0,0,0-1,.29,2.2,2.2,0,0,0-.75.82,2.51,2.51,0,0,0-.28,1.21,2.55,2.55,0,0,0,.28,1.22,2.2,2.2,0,0,0,.75.82,1.91,1.91,0,0,0,1,.29,2,2,0,0,0,1.11-.3,1.79,1.79,0,0,0,.7-.85l.91.38a2.68,2.68,0,0,1-1,1.23,2.94,2.94,0,0,1-1.68.47A3.05,3.05,0,0,1,436.76,157.08Z"/><path class="cls-8" d="M443.22,157.09a3,3,0,0,1-1.08-1.16,3.51,3.51,0,0,1-.39-1.66,3.71,3.71,0,0,1,.36-1.63,3,3,0,0,1,1.05-1.19,2.74,2.74,0,0,1,1.55-.45,3,3,0,0,1,1.56.4,2.73,2.73,0,0,1,1,1.11,3.7,3.7,0,0,1,.35,1.62c0,.1,0,.2,0,.32h-4.85a2.37,2.37,0,0,0,.33,1.17,2,2,0,0,0,1.73,1,2,2,0,0,0,1.81-1.1l.87.42a3.12,3.12,0,0,1-4.29,1.19Zm3.34-3.48a2.16,2.16,0,0,0-.21-.77,1.64,1.64,0,0,0-.61-.65,1.81,1.81,0,0,0-1-.26,1.72,1.72,0,0,0-1.22.46,2.15,2.15,0,0,0-.66,1.22Z"/><path class="cls-8" d="M449.38,157a2.52,2.52,0,0,1-.94-1.18l.92-.41a1.78,1.78,0,0,0,.68.86,1.74,1.74,0,0,0,1,.3,1.91,1.91,0,0,0,1-.24.73.73,0,0,0,.41-.66.71.71,0,0,0-.33-.62,2.79,2.79,0,0,0-1-.4l-.74-.2a2.63,2.63,0,0,1-1.2-.61,1.46,1.46,0,0,1-.47-1.11,1.44,1.44,0,0,1,.32-.93,1.94,1.94,0,0,1,.85-.62A2.86,2.86,0,0,1,451,151a2.94,2.94,0,0,1,1.43.35,1.94,1.94,0,0,1,.89,1l-.88.41a1.51,1.51,0,0,0-1.46-.82,1.61,1.61,0,0,0-.88.24.68.68,0,0,0-.38.59.66.66,0,0,0,.27.55,2.09,2.09,0,0,0,.79.34l.89.23a2.86,2.86,0,0,1,1.35.68,1.45,1.45,0,0,1,.46,1.09,1.61,1.61,0,0,1-.32,1,2,2,0,0,1-.88.66,3.25,3.25,0,0,1-1.23.23A2.79,2.79,0,0,1,449.38,157Z"/><path class="cls-8" d="M455.06,157a2.52,2.52,0,0,1-.94-1.18l.91-.41a1.84,1.84,0,0,0,.68.86,1.75,1.75,0,0,0,1,.3,1.87,1.87,0,0,0,1-.24.71.71,0,0,0,.41-.66.73.73,0,0,0-.32-.62,3,3,0,0,0-1-.4l-.74-.2a2.63,2.63,0,0,1-1.2-.61,1.55,1.55,0,0,1-.16-2,2.06,2.06,0,0,1,.85-.62,2.86,2.86,0,0,1,1.14-.22,2.91,2.91,0,0,1,1.43.35,2,2,0,0,1,.9,1l-.89.41a1.49,1.49,0,0,0-1.45-.82,1.59,1.59,0,0,0-.88.24.66.66,0,0,0-.38.59.68.68,0,0,0,.26.55,2.15,2.15,0,0,0,.8.34l.88.23a2.94,2.94,0,0,1,1.36.68,1.49,1.49,0,0,1,.46,1.09,1.55,1.55,0,0,1-.33,1,2,2,0,0,1-.87.66,3.25,3.25,0,0,1-1.23.23A2.79,2.79,0,0,1,455.06,157Z"/><path class="cls-8" d="M460.27,149.85a.73.73,0,0,1,.51-1.25.7.7,0,0,1,.52.21.75.75,0,0,1,0,1,.71.71,0,0,1-1,0Zm0,1.34h1v6.12h-1Z"/><path class="cls-8" d="M462.89,151.19h1v.9h.05a2.08,2.08,0,0,1,.81-.77,2.34,2.34,0,0,1,1.17-.32,2.19,2.19,0,0,1,1.69.64,2.5,2.5,0,0,1,.58,1.75v3.92h-1v-3.76a1.61,1.61,0,0,0-.41-1.24,1.71,1.71,0,0,0-2-.11,1.86,1.86,0,0,0-.6.73,2.06,2.06,0,0,0-.22.94v3.44h-1Z"/><path class="cls-8" d="M470.47,159.59a2.43,2.43,0,0,1-.94-1.21l.94-.39a1.67,1.67,0,0,0,.66.85,2.2,2.2,0,0,0,2.59-.2,2,2,0,0,0,.52-1.51v-.68h0a2.17,2.17,0,0,1-.85.76,2.53,2.53,0,0,1-1.24.3,2.64,2.64,0,0,1-1.45-.42,2.88,2.88,0,0,1-1-1.15,3.84,3.84,0,0,1,0-3.37,3,3,0,0,1,1-1.16,2.72,2.72,0,0,1,1.45-.41,2.53,2.53,0,0,1,1.24.3,2.12,2.12,0,0,1,.85.77h0v-.88h1v5.88a3.06,3.06,0,0,1-4.75,2.52Zm2.79-3.29a1.91,1.91,0,0,0,.71-.8,3,3,0,0,0,0-2.5,1.85,1.85,0,0,0-.71-.8,1.93,1.93,0,0,0-1-.27,1.9,1.9,0,0,0-1,.28,1.94,1.94,0,0,0-.72.8,2.67,2.67,0,0,0-.27,1.24,2.71,2.71,0,0,0,.27,1.25,1.85,1.85,0,0,0,1.73,1.08A1.85,1.85,0,0,0,473.26,156.3Z"/><path class="cls-8" d="M481.17,157.38a1.49,1.49,0,0,1-.53-.33,1.69,1.69,0,0,1-.48-1.28v-3.65h-1.07v-.93h1.07v-1.72h1v1.72h1.5v.93h-1.5v3.41a1.23,1.23,0,0,0,.19.76.81.81,0,0,0,.66.27,1.13,1.13,0,0,0,.67-.21v1a1.27,1.27,0,0,1-.36.12,3,3,0,0,1-.48,0A2,2,0,0,1,481.17,157.38Z"/><path class="cls-8" d="M484.05,149.85a.73.73,0,0,1,.51-1.25.74.74,0,0,1,.53,1.25.73.73,0,0,1-.53.22A.7.7,0,0,1,484.05,149.85Zm0,1.34h1v6.12h-1Z"/><path class="cls-8" d="M486.68,151.19h1v.9h.05a2.11,2.11,0,0,1,.79-.78,2.21,2.21,0,0,1,1.11-.31,2.06,2.06,0,0,1,1.17.33,1.78,1.78,0,0,1,.72.86,2.36,2.36,0,0,1,.86-.86,2.3,2.3,0,0,1,1.24-.33,2,2,0,0,1,1.59.64,2.69,2.69,0,0,1,.53,1.75v3.92h-1v-3.76a1.84,1.84,0,0,0-.34-1.24,1.53,1.53,0,0,0-1.86-.12,1.79,1.79,0,0,0-.59.71,2.18,2.18,0,0,0-.21,1v3.45h-1v-3.75a1.85,1.85,0,0,0-.34-1.25,1.31,1.31,0,0,0-1-.38,1.37,1.37,0,0,0-.83.27,1.8,1.8,0,0,0-.58.72,2.24,2.24,0,0,0-.21,1v3.43h-1Z"/><path class="cls-8" d="M498.34,157.09a3,3,0,0,1-1.09-1.16,3.51,3.51,0,0,1-.39-1.66,3.71,3.71,0,0,1,.37-1.63,2.87,2.87,0,0,1,1-1.19,2.77,2.77,0,0,1,1.56-.45,3,3,0,0,1,1.56.4,2.64,2.64,0,0,1,1,1.11,3.57,3.57,0,0,1,.36,1.62,1.91,1.91,0,0,1,0,.32h-4.85a2.48,2.48,0,0,0,.34,1.17,1.94,1.94,0,0,0,.76.72,2.08,2.08,0,0,0,1,.24,2,2,0,0,0,1.81-1.1l.86.42a3,3,0,0,1-1.06,1.17,3,3,0,0,1-1.65.44A3,3,0,0,1,498.34,157.09Zm3.34-3.48a2,2,0,0,0-.22-.77,1.69,1.69,0,0,0-.6-.65,1.83,1.83,0,0,0-1-.26,1.76,1.76,0,0,0-1.23.46,2.27,2.27,0,0,0-.66,1.22Z"/><path class="cls-8" d="M207.07,148.72h1v8.59h-1Z"/><path class="cls-8" d="M209.81,151.19h1v.9h.05a2.05,2.05,0,0,1,.8-.77,2.35,2.35,0,0,1,1.18-.32,2.17,2.17,0,0,1,1.68.64,2.5,2.5,0,0,1,.59,1.75v3.92h-1v-3.76a1.65,1.65,0,0,0-.41-1.24,1.55,1.55,0,0,0-1.12-.38,1.5,1.5,0,0,0-.88.27,2,2,0,0,0-.61.73,2.19,2.19,0,0,0-.21.94v3.44h-1Z"/><path class="cls-8" d="M216.49,151.19h1v.92h0a2.14,2.14,0,0,1,.84-.79,2.5,2.5,0,0,1,1.25-.32,2.72,2.72,0,0,1,1.49.42,2.84,2.84,0,0,1,1,1.17,3.77,3.77,0,0,1,0,3.34,2.88,2.88,0,0,1-1,1.16,2.72,2.72,0,0,1-1.49.42,2.5,2.5,0,0,1-1.25-.32,2.2,2.2,0,0,1-.84-.78h0l0,.84v2.66h-1Zm4,5.1a2,2,0,0,0,.74-.81,2.82,2.82,0,0,0,0-2.45,2.1,2.1,0,0,0-.74-.82,1.89,1.89,0,0,0-1-.28,1.87,1.87,0,0,0-1,.28,2.1,2.1,0,0,0-.74.82,2.73,2.73,0,0,0,0,2.45,2,2,0,0,0,.74.81,1.79,1.79,0,0,0,1,.29A1.82,1.82,0,0,0,220.49,156.29Z"/><path class="cls-8" d="M224.19,156.86a2.61,2.61,0,0,1-.58-1.81v-3.86h1v3.7a1.8,1.8,0,0,0,.39,1.28,1.4,1.4,0,0,0,1.07.41,1.61,1.61,0,0,0,.92-.27,1.87,1.87,0,0,0,.62-.72,2.07,2.07,0,0,0,.23-.94v-3.46h1v6.12h-1v-.88h0a2,2,0,0,1-.81.76,2.34,2.34,0,0,1-1.17.32A2.16,2.16,0,0,1,224.19,156.86Z"/><path class="cls-8" d="M232.11,157.38a1.63,1.63,0,0,1-.54-.33,1.68,1.68,0,0,1-.47-1.28v-3.65H230v-.93h1.07v-1.72h1v1.72h1.5v.93h-1.5v3.41a1.23,1.23,0,0,0,.2.76.81.81,0,0,0,.66.27,1.16,1.16,0,0,0,.67-.21v1a1.23,1.23,0,0,1-.37.12,2.84,2.84,0,0,1-.47,0A1.93,1.93,0,0,1,232.11,157.38Z"/><path class="cls-8" d="M238.73,157.09a3,3,0,0,1-1-1.16,3.86,3.86,0,0,1,0-3.34,3,3,0,0,1,1-1.17,2.78,2.78,0,0,1,1.5-.42,2.5,2.5,0,0,1,1.25.32,2.37,2.37,0,0,1,.84.79h0l0-.86v-2.53h1v8.59h-1v-.9h0a2.44,2.44,0,0,1-.84.78,2.5,2.5,0,0,1-1.25.32A2.78,2.78,0,0,1,238.73,157.09Zm2.61-.8a2.08,2.08,0,0,0,.74-.81,2.82,2.82,0,0,0,0-2.45,2.18,2.18,0,0,0-.74-.82,1.93,1.93,0,0,0-2,0,2.16,2.16,0,0,0-.75.83,2.78,2.78,0,0,0,0,2.43,2.06,2.06,0,0,0,.75.82,1.87,1.87,0,0,0,2,0Z"/><path class="cls-8" d="M245.94,157.09a3,3,0,0,1-1.09-1.16,3.51,3.51,0,0,1-.39-1.66,3.71,3.71,0,0,1,.37-1.63,2.87,2.87,0,0,1,1-1.19,2.77,2.77,0,0,1,1.56-.45,3,3,0,0,1,1.56.4,2.64,2.64,0,0,1,1,1.11,3.57,3.57,0,0,1,.36,1.62,1.91,1.91,0,0,1,0,.32h-4.85a2.48,2.48,0,0,0,.34,1.17,1.94,1.94,0,0,0,.76.72,2.08,2.08,0,0,0,1,.24,2,2,0,0,0,1.81-1.1l.86.42a3,3,0,0,1-1.06,1.17,3,3,0,0,1-1.65.44A3,3,0,0,1,245.94,157.09Zm3.34-3.48a2,2,0,0,0-.22-.77,1.69,1.69,0,0,0-.6-.65,1.83,1.83,0,0,0-1-.26,1.76,1.76,0,0,0-1.23.46,2.27,2.27,0,0,0-.66,1.22Z"/><path class="cls-8" d="M251.54,148.72h1v8.59h-1Z"/><path class="cls-8" d="M254.77,157.24a2,2,0,0,1-.81-.72,1.89,1.89,0,0,1-.29-1.05,1.78,1.78,0,0,1,.73-1.52,3,3,0,0,1,1.85-.55,4.13,4.13,0,0,1,1,.12,2.47,2.47,0,0,1,.73.28v-.37a1.37,1.37,0,0,0-.48-1.1,1.76,1.76,0,0,0-1.21-.42,2,2,0,0,0-.94.23,1.58,1.58,0,0,0-.69.61l-.77-.57a2.47,2.47,0,0,1,1-.87,3.31,3.31,0,0,1,1.41-.31,2.74,2.74,0,0,1,1.95.66,2.3,2.3,0,0,1,.71,1.78v3.87h-1v-.87H258a2.2,2.2,0,0,1-.79.75,2.28,2.28,0,0,1-1.19.32A2.59,2.59,0,0,1,254.77,157.24Zm2.26-.9a1.91,1.91,0,0,0,.7-.71,1.82,1.82,0,0,0,.27-1,2.45,2.45,0,0,0-.71-.31,3.19,3.19,0,0,0-.89-.12,2,2,0,0,0-1.26.35,1.09,1.09,0,0,0-.43.9,1,1,0,0,0,.39.81,1.47,1.47,0,0,0,1,.32A1.84,1.84,0,0,0,257,156.34Z"/><path class="cls-8" d="M262.14,156.93l-2.53-5.74h1.1l1.92,4.55h0l1.85-4.55h1.11l-3.78,8.72h-1.06Z"/><line class="cls-7" x1="874.94" y1="126.78" x2="874.94" y2="126.28"/><line class="cls-9" x1="874.94" y1="120.57" x2="874.94" y2="90.09"/><line class="cls-7" x1="874.94" y1="87.23" x2="874.94" y2="86.73"/><rect class="cls-7" x="845.56" y="30.49" width="58.75" height="41.12" rx="3.63"/><line class="cls-10" x1="845.56" y1="65.88" x2="904.31" y2="65.88"/><line class="cls-7" x1="872.99" y1="68.75" x2="876.89" y2="68.75"/><line class="cls-10" x1="868.62" y1="71.42" x2="867.89" y2="76.06"/><line class="cls-10" x1="881.99" y1="76.06" x2="881.25" y2="71.42"/><rect class="cls-7" x="863.09" y="76.06" width="23.71" height="2.95"/><polygon class="cls-5" points="874.94 36.98 878.58 44.36 886.72 45.54 880.83 51.28 882.22 59.39 874.94 55.56 867.66 59.39 869.05 51.28 863.16 45.54 871.3 44.36 874.94 36.98"/><path class="cls-7" d="M797.68,222.93s-.88,9.28,8.4,9.28h21.84c9.27,0,8.39,9.27,8.39,9.27s-.88-9.27,8.39-9.27h21.85c9.27,0,8.39-9.28,8.39-9.28"/><path class="cls-11" d="M221.88,78a.77.77,0,0,1-.66-.38l-7-12.84-6.6,6.39a.73.73,0,0,1-.52.21.72.72,0,0,1-.29-.06.75.75,0,0,1-.46-.69V35.08a.75.75,0,0,1,.46-.69.72.72,0,0,1,.29-.06.73.73,0,0,1,.52.21l25.86,25a.74.74,0,0,1,.17.82.75.75,0,0,1-.69.47h-9.78l6.68,12.14a.75.75,0,0,1,.06.57.81.81,0,0,1-.36.45l-7.29,4A.67.67,0,0,1,221.88,78Z"/><path class="cls-1" d="M207.07,35.08l25.86,25H221.88l7.29,13.25-7.29,4-7.51-13.69-7.3,7.07V35.08m0-1.5a1.43,1.43,0,0,0-.58.12,1.5,1.5,0,0,0-.92,1.38V70.64a1.5,1.5,0,0,0,.92,1.38,1.47,1.47,0,0,0,.58.12,1.51,1.51,0,0,0,1-.42L214,66l6.57,12a1.49,1.49,0,0,0,1.31.77,1.43,1.43,0,0,0,.72-.18l7.29-4a1.51,1.51,0,0,0,.6-2l-6.07-11h8.51A1.5,1.5,0,0,0,234,59L208.11,34a1.51,1.51,0,0,0-1-.42Z"/><path class="cls-8" d="M759.08,253.06a4.26,4.26,0,0,1-1.6-1.61,4.79,4.79,0,0,1,0-4.57,4.29,4.29,0,0,1,1.6-1.62,4.49,4.49,0,0,1,2.27-.58,4.26,4.26,0,0,1,1.76.36,3.88,3.88,0,0,1,1.38,1l-.73.71a3.42,3.42,0,0,0-1.07-.87,3.18,3.18,0,0,0-1.34-.27,3.36,3.36,0,0,0-1.72.44,3.25,3.25,0,0,0-1.24,1.23,3.59,3.59,0,0,0-.46,1.84,3.63,3.63,0,0,0,.46,1.85,3.25,3.25,0,0,0,1.24,1.23,3.47,3.47,0,0,0,1.72.44A3.37,3.37,0,0,0,764,251.4l.74.72a4.23,4.23,0,0,1-1.47,1.12,4.53,4.53,0,0,1-1.92.41A4.39,4.39,0,0,1,759.08,253.06Z"/><path class="cls-8" d="M767,253.22a3,3,0,0,1-1.12-1.18,3.56,3.56,0,0,1,0-3.28,3,3,0,0,1,1.12-1.18,3.13,3.13,0,0,1,4.37,1.18,3.56,3.56,0,0,1,0,3.28,3.19,3.19,0,0,1-4.37,1.18Zm2.67-.77a2,2,0,0,0,.78-.81,2.71,2.71,0,0,0,0-2.48,2,2,0,0,0-.78-.81,2.11,2.11,0,0,0-1-.28,2.17,2.17,0,0,0-1.05.28,2.12,2.12,0,0,0-.79.81,2.8,2.8,0,0,0,0,2.48,2.12,2.12,0,0,0,.79.81,2.17,2.17,0,0,0,1.05.28A2.11,2.11,0,0,0,769.63,252.45Z"/><path class="cls-8" d="M772.8,247.34h1v.9h.05a2.26,2.26,0,0,1,1.9-1.09,2.14,2.14,0,0,1,1.17.32,1.91,1.91,0,0,1,.72.87,2.47,2.47,0,0,1,.86-.87,2.38,2.38,0,0,1,1.24-.32,2,2,0,0,1,1.59.64,2.69,2.69,0,0,1,.53,1.75v3.92h-1v-3.77a1.74,1.74,0,0,0-.35-1.23,1.3,1.3,0,0,0-1-.39,1.34,1.34,0,0,0-.82.27,1.76,1.76,0,0,0-.59.7,2.24,2.24,0,0,0-.21,1v3.46h-1V249.7a1.82,1.82,0,0,0-.34-1.24,1.32,1.32,0,0,0-1-.39,1.35,1.35,0,0,0-.83.27,1.8,1.8,0,0,0-.58.72,2.25,2.25,0,0,0-.21,1v3.43h-1Z"/><path class="cls-8" d="M783.26,247.34h1v.91h0a2.16,2.16,0,0,1,.83-.78,2.44,2.44,0,0,1,1.26-.32,2.72,2.72,0,0,1,1.49.42,2.88,2.88,0,0,1,1,1.16,3.77,3.77,0,0,1,0,3.34,2.81,2.81,0,0,1-1,1.16,2.72,2.72,0,0,1-1.49.42,2.44,2.44,0,0,1-1.26-.32,2.14,2.14,0,0,1-.83-.77h0l0,.84v2.65h-1Zm4,5.1a2,2,0,0,0,.74-.82,2.61,2.61,0,0,0,.28-1.22,2.64,2.64,0,0,0-.28-1.22,2,2,0,0,0-.74-.82,1.93,1.93,0,0,0-1-.29,1.88,1.88,0,0,0-1,.29,2.13,2.13,0,0,0-.75.82,2.64,2.64,0,0,0-.28,1.22,2.61,2.61,0,0,0,.28,1.22,2.06,2.06,0,0,0,.75.82,1.88,1.88,0,0,0,1,.29A1.93,1.93,0,0,0,787.26,252.44Z"/><path class="cls-8" d="M791.68,253.22a3,3,0,0,1-1.12-1.18,3.56,3.56,0,0,1,0-3.28,3,3,0,0,1,1.12-1.18,3.13,3.13,0,0,1,4.37,1.18,3.56,3.56,0,0,1,0,3.28,3.19,3.19,0,0,1-4.37,1.18Zm2.67-.77a2,2,0,0,0,.78-.81,2.71,2.71,0,0,0,0-2.48,2,2,0,0,0-.78-.81,2.11,2.11,0,0,0-1.05-.28,2.17,2.17,0,0,0-1,.28,2.12,2.12,0,0,0-.79.81,2.8,2.8,0,0,0,0,2.48,2.12,2.12,0,0,0,.79.81,2.17,2.17,0,0,0,1,.28A2.11,2.11,0,0,0,794.35,252.45Z"/><path class="cls-8" d="M798.07,253.19a2.57,2.57,0,0,1-.94-1.18l.91-.41a1.87,1.87,0,0,0,.68.85,1.75,1.75,0,0,0,1,.3,2,2,0,0,0,1-.23.76.76,0,0,0,.08-1.29,3.16,3.16,0,0,0-1-.4l-.74-.19a2.63,2.63,0,0,1-1.2-.61,1.54,1.54,0,0,1-.15-2.05,2.05,2.05,0,0,1,.84-.62,3,3,0,0,1,1.14-.21,2.85,2.85,0,0,1,1.44.35,2,2,0,0,1,.89,1l-.89.41a1.47,1.47,0,0,0-1.45-.82,1.67,1.67,0,0,0-.88.23.71.71,0,0,0-.38.6.67.67,0,0,0,.26.54,2,2,0,0,0,.8.35l.88.22a3,3,0,0,1,1.36.68,1.51,1.51,0,0,1,.46,1.1,1.55,1.55,0,0,1-.33,1,2.06,2.06,0,0,1-.87.65,3.06,3.06,0,0,1-1.23.23A2.78,2.78,0,0,1,798.07,253.19Z"/><path class="cls-8" d="M803.28,246a.7.7,0,0,1-.22-.52.67.67,0,0,1,.22-.52.73.73,0,0,1,1.24.52.73.73,0,0,1-.21.52.74.74,0,0,1-1,0Zm0,1.34h1v6.12h-1Z"/><path class="cls-8" d="M807.51,253.53a1.54,1.54,0,0,1-.54-.33,1.7,1.7,0,0,1-.48-1.28v-3.66h-1.07v-.92h1.07v-1.73h1v1.73H809v.92h-1.5v3.41a1.26,1.26,0,0,0,.19.76.81.81,0,0,0,.66.27,1.16,1.16,0,0,0,.68-.2v1a2.65,2.65,0,0,1-.37.12,3,3,0,0,1-.47,0A1.92,1.92,0,0,1,807.51,253.53Z"/><path class="cls-8" d="M810.38,246a.74.74,0,0,1-.22-.52.71.71,0,0,1,.22-.52.75.75,0,0,1,1,0,.7.7,0,0,1,.21.52.73.73,0,0,1-.21.52.75.75,0,0,1-1,0Zm0,1.34h1v6.12h-1Z"/><path class="cls-8" d="M813,247.34h1v.9h0a2.05,2.05,0,0,1,.8-.77,2.25,2.25,0,0,1,1.18-.32,2.14,2.14,0,0,1,1.68.64,2.5,2.5,0,0,1,.59,1.75v3.92h-1v-3.77a1.61,1.61,0,0,0-.41-1.23,1.56,1.56,0,0,0-1.12-.39,1.44,1.44,0,0,0-.88.28,1.87,1.87,0,0,0-.61.72,2.23,2.23,0,0,0-.21,1v3.44h-1Z"/><path class="cls-8" d="M820.59,255.74a2.49,2.49,0,0,1-1-1.21l.94-.4a1.77,1.77,0,0,0,.67.86,1.9,1.9,0,0,0,1.12.33,2,2,0,0,0,1.47-.53,2,2,0,0,0,.52-1.51v-.68h-.05a2.3,2.3,0,0,1-.84.76,2.78,2.78,0,0,1-2.69-.12,3,3,0,0,1-1-1.15,3.93,3.93,0,0,1,0-3.37,2.93,2.93,0,0,1,1-1.16,2.78,2.78,0,0,1,2.69-.12,2.26,2.26,0,0,1,.84.78h.05v-.88h1v5.88a2.74,2.74,0,0,1-3,3A2.93,2.93,0,0,1,820.59,255.74Zm2.78-3.29a2,2,0,0,0,.72-.81,3,3,0,0,0,0-2.49,1.94,1.94,0,0,0-.72-.8,1.82,1.82,0,0,0-1-.28,1.94,1.94,0,0,0-1,.28,2.05,2.05,0,0,0-.73.81,2.67,2.67,0,0,0-.27,1.24,2.71,2.71,0,0,0,.27,1.25,2,2,0,0,0,.73.8,1.85,1.85,0,0,0,1,.28A1.82,1.82,0,0,0,823.37,252.45Z"/><path class="cls-8" d="M826.7,254.46l.65-1a.61.61,0,0,1-.39-.23.66.66,0,0,1-.18-.47.74.74,0,0,1,.23-.53.72.72,0,0,1,.54-.22.74.74,0,0,1,.55.22.73.73,0,0,1,.22.53,1,1,0,0,1-.08.39,2.34,2.34,0,0,1-.26.43l-.79,1.2Z"/><path class="cls-8" d="M834.28,253.06a4.34,4.34,0,0,1-1.62-1.62,4.41,4.41,0,0,1-.6-2.28,4.41,4.41,0,0,1,4.46-4.48,4.81,4.81,0,0,1,1.78.33,3.66,3.66,0,0,1,1.37,1l-.72.73a2.81,2.81,0,0,0-1.05-.77,3.49,3.49,0,0,0-1.37-.27,3.45,3.45,0,0,0-3,1.67,3.5,3.5,0,0,0-.47,1.84,3.54,3.54,0,0,0,.47,1.85,3.33,3.33,0,0,0,1.27,1.23,3.44,3.44,0,0,0,1.69.44,3.4,3.4,0,0,0,1.44-.27,3.34,3.34,0,0,0,1-.71,3,3,0,0,0,.5-.81,3.51,3.51,0,0,0,.24-1h-3.18v-1h4.13a3.5,3.5,0,0,1,.06.62,5,5,0,0,1-.25,1.54,3.47,3.47,0,0,1-.81,1.32,4.1,4.1,0,0,1-3.15,1.28A4.34,4.34,0,0,1,834.28,253.06Z"/><path class="cls-8" d="M842.24,244.87h2.89a2.84,2.84,0,0,1,1.33.32,2.53,2.53,0,0,1,1,.91,2.36,2.36,0,0,1,.37,1.31,2.39,2.39,0,0,1-.37,1.32,2.43,2.43,0,0,1-1,.9,2.73,2.73,0,0,1-1.33.33h-1.87v3.5h-1Zm2.92,4.11a1.55,1.55,0,0,0,.84-.22,1.61,1.61,0,0,0,.57-.59,1.46,1.46,0,0,0,0-1.51,1.53,1.53,0,0,0-.57-.59,1.55,1.55,0,0,0-.84-.23h-1.9V249Z"/><path class="cls-8" d="M850.46,253.23a3,3,0,0,1-1.12-1.19,3.83,3.83,0,0,1-.39-1.76v-5.41h1v5.46a2.55,2.55,0,0,0,.55,1.7,2.26,2.26,0,0,0,3.17,0,2.51,2.51,0,0,0,.56-1.7v-5.46h1v5.41a3.83,3.83,0,0,1-.38,1.76,2.68,2.68,0,0,1-1.09,1.19,3.32,3.32,0,0,1-1.7.42A3.2,3.2,0,0,1,850.46,253.23Z"/><path class="cls-8" d="M856.52,254.46l.65-1a.61.61,0,0,1-.39-.23.66.66,0,0,1-.18-.47.74.74,0,0,1,.23-.53.72.72,0,0,1,.54-.22.74.74,0,0,1,.55.22.73.73,0,0,1,.22.53,1,1,0,0,1-.08.39,2.34,2.34,0,0,1-.26.43l-.79,1.2Z"/><path class="cls-8" d="M863.1,253.39a2,2,0,0,1-.82-.73,2,2,0,0,1-.29-1,1.81,1.81,0,0,1,.73-1.52,3,3,0,0,1,1.85-.54,4.22,4.22,0,0,1,1,.12,2.73,2.73,0,0,1,.72.27v-.37a1.4,1.4,0,0,0-.48-1.1,1.81,1.81,0,0,0-1.21-.41,2,2,0,0,0-.94.22,1.8,1.8,0,0,0-.69.62l-.77-.58a2.48,2.48,0,0,1,1-.86,3.09,3.09,0,0,1,1.4-.31,2.81,2.81,0,0,1,2,.65,2.32,2.32,0,0,1,.71,1.78v3.88h-1v-.88h0a2.18,2.18,0,0,1-.8.76,2.24,2.24,0,0,1-1.18.31A2.71,2.71,0,0,1,863.1,253.39Zm2.25-.9a2,2,0,0,0,.71-.71,1.83,1.83,0,0,0,.26-1,2.51,2.51,0,0,0-.7-.31,3.24,3.24,0,0,0-.89-.12,2,2,0,0,0-1.27.34,1.14,1.14,0,0,0-.42.9,1,1,0,0,0,.38.82,1.48,1.48,0,0,0,1,.31A1.87,1.87,0,0,0,865.35,252.49Z"/><path class="cls-8" d="M868.71,247.34h1v.9h.05a2.08,2.08,0,0,1,.81-.77,2.22,2.22,0,0,1,1.17-.32,2.16,2.16,0,0,1,1.69.64,2.5,2.5,0,0,1,.58,1.75v3.92h-1v-3.77a1.61,1.61,0,0,0-.41-1.23,1.53,1.53,0,0,0-1.11-.39,1.47,1.47,0,0,0-.89.28,1.76,1.76,0,0,0-.6.72,2.1,2.1,0,0,0-.22,1v3.44h-1Z"/><path class="cls-8" d="M876.55,253.23a3,3,0,0,1-1-1.16,3.86,3.86,0,0,1,0-3.34,3,3,0,0,1,1-1.16,2.76,2.76,0,0,1,1.5-.42,2.4,2.4,0,0,1,1.25.32,2.44,2.44,0,0,1,.84.78h0l0-.85v-2.53h1v8.59h-1v-.9h0a2.5,2.5,0,0,1-2.09,1.09A2.76,2.76,0,0,1,876.55,253.23Zm2.61-.79a2,2,0,0,0,.74-.82,2.5,2.5,0,0,0,.28-1.22,2.53,2.53,0,0,0-.28-1.22,2.11,2.11,0,0,0-.74-.82,1.87,1.87,0,0,0-2,0,2.13,2.13,0,0,0-.75.82,2.8,2.8,0,0,0,0,2.44,2.13,2.13,0,0,0,.75.82,1.87,1.87,0,0,0,2,0Z"/><path class="cls-8" d="M885.45,247.34h1v1h.05a1.7,1.7,0,0,1,.7-.84,2,2,0,0,1,1.08-.33,1.75,1.75,0,0,1,.72.13v1.09a1.92,1.92,0,0,0-.87-.19,1.39,1.39,0,0,0-.81.25,1.88,1.88,0,0,0-.6.68,2,2,0,0,0-.22.92v3.43h-1Z"/><path class="cls-8" d="M890.47,253.39a2,2,0,0,1-.82-.73,2,2,0,0,1-.29-1,1.8,1.8,0,0,1,.74-1.52,3,3,0,0,1,1.84-.54,4.22,4.22,0,0,1,1,.12,2.82,2.82,0,0,1,.73.27v-.37a1.4,1.4,0,0,0-.48-1.1,1.85,1.85,0,0,0-1.22-.41,2,2,0,0,0-.94.22,1.8,1.8,0,0,0-.69.62l-.77-.58a2.55,2.55,0,0,1,1-.86,3.09,3.09,0,0,1,1.4-.31,2.79,2.79,0,0,1,2,.65,2.32,2.32,0,0,1,.71,1.78v3.88h-1v-.88h-.05a2.22,2.22,0,0,1-.79.76,2.3,2.3,0,0,1-1.19.31A2.71,2.71,0,0,1,890.47,253.39Zm2.25-.9a1.93,1.93,0,0,0,.71-.71,1.84,1.84,0,0,0,.27-1,2.58,2.58,0,0,0-.71-.31,3.24,3.24,0,0,0-.89-.12,2,2,0,0,0-1.27.34,1.14,1.14,0,0,0-.42.9,1,1,0,0,0,.38.82,1.48,1.48,0,0,0,1,.31A1.87,1.87,0,0,0,892.72,252.49Z"/><path class="cls-8" d="M896.52,253.19a2.45,2.45,0,0,1-.94-1.18l.91-.41a1.81,1.81,0,0,0,.68.85,1.75,1.75,0,0,0,1,.3,2,2,0,0,0,1-.23.75.75,0,0,0,.41-.67.75.75,0,0,0-.32-.62,3.16,3.16,0,0,0-1-.4l-.75-.19a2.63,2.63,0,0,1-1.2-.61,1.57,1.57,0,0,1-.15-2.05,2.09,2.09,0,0,1,.85-.62,3,3,0,0,1,1.14-.21,2.81,2.81,0,0,1,1.43.35,2,2,0,0,1,.9,1l-.89.41a1.48,1.48,0,0,0-1.45-.82,1.67,1.67,0,0,0-.88.23.69.69,0,0,0-.38.6.65.65,0,0,0,.26.54,2,2,0,0,0,.79.35l.89.22a3,3,0,0,1,1.36.68,1.5,1.5,0,0,1,.45,1.1,1.61,1.61,0,0,1-.32,1,2.09,2.09,0,0,1-.88.65,3,3,0,0,1-1.22.23A2.74,2.74,0,0,1,896.52,253.19Z"/><path class="cls-8" d="M903.3,253.53a1.49,1.49,0,0,1-.53-.33,1.7,1.7,0,0,1-.48-1.28v-3.66h-1.07v-.92h1.07v-1.73h1v1.73h1.5v.92h-1.5v3.41a1.2,1.2,0,0,0,.19.76.78.78,0,0,0,.66.27,1.13,1.13,0,0,0,.67-.2v1a2.53,2.53,0,0,1-.36.12,3.23,3.23,0,0,1-.48,0A1.92,1.92,0,0,1,903.3,253.53Z"/><path class="cls-8" d="M906.92,253.23a2.9,2.9,0,0,1-1.09-1.16,3.48,3.48,0,0,1-.39-1.66,3.57,3.57,0,0,1,.37-1.62,3,3,0,0,1,1-1.2,2.84,2.84,0,0,1,1.56-.44,2.92,2.92,0,0,1,1.56.4,2.64,2.64,0,0,1,1,1.11,3.51,3.51,0,0,1,.36,1.62,1.71,1.71,0,0,1,0,.31h-4.85a2.48,2.48,0,0,0,.34,1.18,1.94,1.94,0,0,0,.76.72,2.08,2.08,0,0,0,1,.24,2,2,0,0,0,1.81-1.11l.86.42a3,3,0,0,1-1.06,1.17,3.23,3.23,0,0,1-3.22,0Zm3.34-3.48A2.09,2.09,0,0,0,910,249a1.66,1.66,0,0,0-.6-.64,1.84,1.84,0,0,0-1-.27,1.8,1.8,0,0,0-1.23.46,2.31,2.31,0,0,0-.66,1.22Z"/><path class="cls-8" d="M912.52,247.34h1v1h0a1.7,1.7,0,0,1,.7-.84,2,2,0,0,1,1.08-.33,1.75,1.75,0,0,1,.72.13v1.09a1.9,1.9,0,0,0-.86-.19,1.42,1.42,0,0,0-.82.25,1.77,1.77,0,0,0-.59.68,2,2,0,0,0-.23.92v3.43h-1Z"/><line class="cls-7" x1="207.31" y1="126.78" x2="207.31" y2="126.28"/><line class="cls-12" x1="207.31" y1="120.57" x2="207.31" y2="70.09"/><line class="cls-7" x1="207.31" y1="67.23" x2="207.31" y2="66.73"/></svg>